<svg width="517" height="360" viewBox="0 0 517 360" fill="none" xmlns="http://www.w3.org/2000/svg">
<path d="M470.574 39.3486H368.122C362.906 39.3486 358.677 43.5772 358.677 48.7935V195.296C358.677 200.513 362.906 204.741 368.122 204.741H470.574C475.79 204.741 480.019 200.513 480.019 195.296V48.7935C480.019 43.5772 475.79 39.3486 470.574 39.3486Z" stroke="#CCDDE2" stroke-width="4.83" stroke-miterlimit="10"/>
<path d="M466.152 56.3872H373.787C371.179 56.3872 369.064 58.5015 369.064 61.1096V80.7542C369.064 83.3623 371.179 85.4766 373.787 85.4766H466.152C468.76 85.4766 470.874 83.3623 470.874 80.7542V61.1096C470.874 58.5015 468.76 56.3872 466.152 56.3872Z" stroke="#CCDDE2" stroke-width="4.83" stroke-miterlimit="10"/>
<path d="M419.348 68.6406C421.009 68.6406 422.356 67.2936 422.356 65.6323C422.356 63.9709 421.009 62.624 419.348 62.624C417.687 62.624 416.34 63.9709 416.34 65.6323C416.34 67.2936 417.687 68.6406 419.348 68.6406Z" fill="#D7E8F0"/>
<path d="M410.942 79.245C410.942 77.0155 411.827 74.8773 413.404 73.3011C414.98 71.7243 417.118 70.8389 419.348 70.8389C421.577 70.8389 423.716 71.7243 425.292 73.3011C426.869 74.8773 427.754 77.0155 427.754 79.245H410.942Z" fill="#D7E8F0"/>
<path d="M419.961 116.655C416.756 116.656 413.624 117.607 410.959 119.389C408.295 121.17 406.219 123.701 404.993 126.662C403.768 129.624 403.448 132.882 404.074 136.025C404.7 139.168 406.243 142.055 408.51 144.32C410.777 146.586 413.664 148.129 416.807 148.754C419.951 149.379 423.209 149.058 426.169 147.83C429.13 146.604 431.66 144.527 433.441 141.862C435.221 139.197 436.172 136.065 436.172 132.86C436.172 130.731 435.752 128.623 434.938 126.657C434.123 124.691 432.929 122.904 431.423 121.399C429.918 119.894 428.131 118.701 426.164 117.887C424.198 117.073 422.089 116.654 419.961 116.655ZM419.961 145.154C419.353 145.124 418.779 144.861 418.359 144.42C417.939 143.979 417.704 143.393 417.704 142.784C417.704 142.175 417.939 141.589 418.359 141.148C418.779 140.707 419.353 140.444 419.961 140.415C420.569 140.444 421.143 140.707 421.563 141.148C421.983 141.589 422.218 142.175 422.218 142.784C422.218 143.393 421.983 143.979 421.563 144.42C421.143 144.861 420.569 145.124 419.961 145.154ZM422.952 126.929C422.453 130.442 422.033 134.131 420.983 137.548C420.733 138.371 419.189 138.371 418.939 137.548C418.2 134.979 417.631 132.364 417.237 129.721C416.913 127.797 415.789 124.681 416.862 122.813C417.81 121.111 420.478 120.94 422.027 121.815C423.929 122.887 423.179 125.18 422.952 126.929Z" fill="#D7E8F0"/>
<path d="M242.649 72.1842C236.967 70.4899 230.911 70.5189 225.246 72.2665C219.581 74.0147 214.561 77.4033 210.822 82.0042C207.083 86.6052 204.792 92.2114 204.24 98.1144C203.687 104.017 204.896 109.951 207.717 115.166C210.536 120.381 214.839 124.643 220.082 127.413C225.324 130.182 231.269 131.335 237.167 130.725C243.064 130.115 248.648 127.77 253.213 123.987C257.777 120.204 261.117 115.151 262.81 109.47C263.935 105.698 264.306 101.741 263.901 97.8255C263.497 93.9102 262.325 90.113 260.453 86.6506C258.58 83.1883 256.045 80.1289 252.99 77.6468C249.935 75.1641 246.421 73.3081 242.649 72.1842ZM227.591 122.701C226.508 122.343 225.607 121.578 225.079 120.567C224.552 119.557 224.439 118.38 224.765 117.287C225.091 116.195 225.829 115.272 226.824 114.716C227.819 114.159 228.992 114.012 230.094 114.306C230.66 114.457 231.19 114.72 231.653 115.079C232.116 115.439 232.502 115.888 232.788 116.4C233.074 116.911 233.255 117.475 233.319 118.058C233.384 118.64 233.331 119.23 233.163 119.792C232.996 120.353 232.717 120.876 232.344 121.328C231.971 121.78 231.512 122.153 230.992 122.424C230.472 122.695 229.904 122.859 229.319 122.907C228.735 122.954 228.147 122.884 227.591 122.701ZM242.518 91.9707C239.777 97.9362 237.075 104.254 233.437 109.754C232.563 111.082 229.821 110.264 229.816 108.675C229.862 103.736 230.241 98.8057 230.951 93.9176C231.393 90.3474 231.047 84.2287 233.936 81.4815C236.502 79.0238 241.315 80.0795 243.614 82.4407C246.378 85.3241 243.847 88.9965 242.518 91.9707Z" fill="#4313E1"/>
<path d="M158.928 138.552C156.85 140.667 155.445 143.351 154.892 146.265C154.338 149.178 154.661 152.191 155.82 154.921C156.979 157.651 158.921 159.976 161.401 161.602C163.881 163.228 166.787 164.083 169.753 164.057C172.718 164.032 175.61 163.128 178.062 161.46C180.513 159.791 182.415 157.433 183.527 154.684C184.639 151.934 184.91 148.917 184.307 146.013C183.704 143.109 182.254 140.45 180.139 138.37C177.302 135.582 173.474 134.035 169.496 134.069C165.518 134.103 161.717 135.716 158.928 138.552ZM177.738 157.038C177.537 157.244 177.297 157.407 177.032 157.52C176.767 157.633 176.482 157.692 176.194 157.695C175.907 157.697 175.621 157.643 175.354 157.535C175.088 157.428 174.845 157.268 174.639 157.067C174.434 156.865 174.27 156.625 174.158 156.36C174.045 156.096 173.986 155.811 173.983 155.523C173.981 155.235 174.035 154.95 174.143 154.683C174.25 154.416 174.409 154.173 174.611 153.968C175.018 153.553 175.573 153.317 176.155 153.312C176.736 153.307 177.295 153.532 177.71 153.939C178.125 154.346 178.36 154.902 178.366 155.483C178.371 156.065 178.145 156.624 177.738 157.038ZM167.652 143.252C169.644 145.862 171.807 148.536 173.379 151.442C173.759 152.14 172.76 153.145 172.057 152.793C169.889 151.609 167.803 150.282 165.813 148.82C164.332 147.792 161.55 146.51 161.011 144.585C160.523 142.883 162.146 140.987 163.702 140.538C165.614 139.982 166.642 141.963 167.652 143.252Z" fill="#4313E1"/>
<path d="M379.247 98.4631H458.41" stroke="#CCDDE2" stroke-width="4.83" stroke-miterlimit="10"/>
<path d="M379.247 106.256H458.41" stroke="#CCDDE2" stroke-width="4.83" stroke-miterlimit="10"/>
<path d="M379.247 156.431H458.41" stroke="#CCDDE2" stroke-width="4.83" stroke-miterlimit="10"/>
<path d="M397.632 163.806H440.02" stroke="#CCDDE2" stroke-width="4.83" stroke-miterlimit="10"/>
<path d="M480.024 146.203C487.006 154.978 493.647 165.853 499.652 179.254C536.217 260.909 490.514 302.349 490.514 302.349" stroke="#9F9F9F" stroke-width="4.83" stroke-miterlimit="10"/>
<path d="M98.1155 210.951C98.1155 210.951 43.8587 149.406 111.516 118.932C179.174 88.4573 192.57 84.2231 187.688 52.5227C182.807 20.8223 221.177 -11.457 281.518 9.87331C341.859 31.2037 343.068 71.401 338.789 102.477C336.359 120.192 346.411 124.449 358.655 123.558" stroke="#9F9F9F" stroke-width="4.83" stroke-miterlimit="10"/>
<path d="M476.199 328.909C476.061 332.306 475.182 335.632 473.622 338.654C473.56 338.805 473.488 338.951 473.406 339.091C470.67 344.006 466.843 348.228 462.219 351.431L462.054 351.544C457.88 354.336 453.185 356.258 448.25 357.192H500.776C500.776 357.192 493.749 256.982 429.167 208.226C366.669 161.047 308.155 183.785 304.443 185.306C305.593 188.553 306.108 191.991 305.959 195.432C305.959 195.432 310.659 197.878 311.442 206.637C312.225 215.395 313.86 239.745 298.143 244.331C298.143 244.331 284.033 243.984 280.303 238.57C276.574 233.155 275.677 234.256 274.213 235.629C273.078 236.668 266.227 240.38 263.065 242.083C263.465 242.102 263.862 242.157 264.252 242.248C264.252 242.248 266.062 257.527 288.216 281.474C288.966 282.265 289.675 283.095 290.339 283.96C293.683 286.885 297.443 289.871 301.617 292.917L326.898 311.415C327.468 311.9 328.145 312.244 328.873 312.42C330.287 312.776 331.766 312.79 333.187 312.46C336.127 311.892 356.203 309.843 369.195 308.549C369.49 308.549 369.802 308.492 370.092 308.458L371.795 308.293C372.067 308.293 372.362 308.237 372.601 308.22L374.133 308.072C374.882 307.998 375.558 307.924 376.182 307.873L377.885 307.709C379.389 307.561 380.28 307.47 380.354 307.47C383.449 307.382 386.535 307.083 389.589 306.574C392.512 306.006 395.18 305.092 395.872 303.577C396.003 303.257 396.052 302.909 396.014 302.566C395.857 301.602 395.454 300.695 394.845 299.933C392.177 296.351 385.979 293.28 385.525 293.059C385.512 293.055 385.498 293.055 385.485 293.059L385.36 292.968L348.466 264.305H348.427C348.427 264.305 353.983 205.025 404.619 219.612C404.619 219.612 404.857 219.776 405.294 220.14C407.27 221.661 413.485 226.701 422.623 236.118C422.861 236.373 423.117 236.628 423.372 236.901C424.343 237.888 425.296 238.916 426.244 239.92C432.658 246.777 440.247 255.512 448.619 266.405L448.676 266.461C458.268 278.949 465.182 290.391 469.677 300.517V300.551C474.541 311.557 476.59 320.985 476.187 328.506C476.2 328.64 476.204 328.774 476.199 328.909ZM323.475 227.019C321.976 209.747 330.383 203.492 330.854 203.146C318.9 224.771 341.07 257.919 341.848 259.202C341.212 258.668 324.973 244.285 323.475 227.019Z" fill="black"/>
<path d="M291.723 223.63C291.101 224.088 290.453 224.508 289.782 224.89L285.888 218.079C294.868 213.487 297.388 205.393 293.438 200.949C292.333 199.733 290.909 198.852 289.328 198.406C285.355 197.203 282.602 198.974 280.735 201.352C279.211 203.419 278.093 205.758 277.443 208.243L275.547 186.379L275.399 184.676C275.399 184.676 271.267 182.627 260.074 184.455C248.881 186.282 246.821 192.463 242.013 189.722C237.206 186.98 234.481 187.202 234.481 187.202C233.113 192.225 229.452 192.225 229.452 192.225C228.585 192.12 227.733 191.913 226.915 191.606C221.721 186.833 220.314 178.551 220.314 178.551C225.763 177.876 226.183 172.631 225.558 168.335C228.578 170.128 232.835 170.253 238.812 166.416C255.959 155.45 273.543 161.387 279.724 162.301C282.483 162.704 285.503 161.734 288.006 160.598C288.329 161.178 288.779 161.676 289.322 162.057C293.495 164.964 296.936 168.799 299.375 173.261C315.466 203.339 297.825 219.311 291.723 223.63Z" fill="#4313E1"/>
<path d="M227.488 357.202H233.959C236.727 357.199 239.38 356.098 241.337 354.141C243.293 352.184 244.394 349.531 244.397 346.764V339.521C244.397 338.861 244.267 338.207 244.014 337.598C243.761 336.988 243.391 336.434 242.924 335.967C242.456 335.5 241.902 335.131 241.292 334.879C240.682 334.626 240.028 334.497 239.368 334.498H200.669C200.671 336.04 200.368 337.566 199.779 338.991C199.19 340.415 198.325 341.709 197.234 342.799C196.144 343.889 194.849 344.753 193.424 345.342C192 345.931 190.473 346.233 188.931 346.23H49.0921C49.0938 349.14 50.25 351.93 52.3075 353.987C54.3645 356.044 57.1543 357.2 60.0638 357.202H249.642C249.889 357.203 250.135 357.154 250.364 357.06C250.592 356.965 250.801 356.827 250.976 356.651C251.151 356.477 251.29 356.268 251.384 356.04C251.478 355.811 251.527 355.565 251.526 355.318V343.563C251.526 341.279 252.433 339.089 254.048 337.474C255.663 335.859 257.853 334.952 260.137 334.952C262.42 334.952 264.61 335.859 266.225 337.474C267.84 339.089 268.747 341.279 268.747 343.563V355.318C268.746 355.564 268.794 355.81 268.888 356.038C268.983 356.267 269.121 356.474 269.295 356.65C269.47 356.825 269.677 356.964 269.906 357.058C270.134 357.153 270.378 357.202 270.626 357.202H500.776C500.776 357.202 493.749 256.97 429.167 208.219C366.669 161.04 308.155 183.778 304.443 185.299L304.262 185.367" stroke="black" stroke-width="4.83" stroke-miterlimit="10"/>
<path d="M239.731 209.831C239.729 210.461 239.54 211.077 239.189 211.6C238.837 212.123 238.338 212.53 237.756 212.77C237.173 213.01 236.532 213.072 235.914 212.947C235.296 212.824 234.729 212.519 234.284 212.074C233.839 211.628 233.535 211.059 233.413 210.441C233.29 209.823 233.353 209.183 233.594 208.601C233.835 208.018 234.243 207.52 234.766 207.17C235.29 206.819 235.906 206.631 236.536 206.63C236.783 206.631 237.028 206.662 237.268 206.721C236.938 206.825 236.649 207.032 236.445 207.312C236.241 207.592 236.131 207.93 236.133 208.276C236.131 208.493 236.173 208.709 236.255 208.91C236.337 209.111 236.457 209.295 236.611 209.449C236.763 209.604 236.946 209.727 237.146 209.811C237.346 209.895 237.561 209.938 237.779 209.939C238.176 209.931 238.559 209.785 238.859 209.524C239.16 209.264 239.36 208.907 239.425 208.514C239.621 208.926 239.725 209.375 239.731 209.831Z" fill="black"/>
<path d="M261.873 210.722C261.875 211.355 261.688 211.975 261.336 212.502C260.986 213.029 260.486 213.44 259.901 213.683C259.316 213.927 258.673 213.991 258.051 213.868C257.43 213.745 256.859 213.44 256.41 212.993C255.962 212.546 255.657 211.975 255.533 211.354C255.409 210.733 255.472 210.089 255.714 209.503C255.956 208.918 256.367 208.418 256.893 208.066C257.419 207.714 258.039 207.526 258.672 207.526C258.825 207.525 258.978 207.542 259.126 207.577C258.843 207.708 258.603 207.916 258.435 208.179C258.267 208.441 258.178 208.747 258.178 209.058C258.159 209.496 258.313 209.922 258.608 210.244C258.903 210.567 259.314 210.759 259.751 210.778C260.187 210.798 260.613 210.643 260.936 210.349C261.259 210.053 261.451 209.643 261.47 209.206C261.733 209.669 261.871 210.19 261.873 210.722Z" fill="black"/>
<path d="M287.41 156.103C287.041 158.589 287.5 160.769 289.328 162.063C293.5 164.969 296.942 168.805 299.38 173.267C318.576 209.134 289.782 224.919 289.782 224.919L285.888 218.107C297.098 212.386 298.245 201.182 289.328 198.435C280.411 195.687 277.443 208.271 277.443 208.271L275.399 184.687C275.399 184.687 271.267 182.638 260.074 184.466C248.881 186.294 246.821 192.475 242.013 189.733C237.205 186.992 234.481 187.213 234.481 187.213C233.113 192.236 229.452 192.236 229.452 192.236C218.724 190.868 216.204 176.026 216.204 176.026C221.648 175.345 222.068 170.1 221.449 165.809C224.463 167.603 228.726 167.733 234.702 163.89C251.85 152.924 269.434 158.867 275.609 159.781C279.878 160.4 284.776 157.789 287.41 156.103Z" stroke="black" stroke-width="4.83" stroke-linecap="round" stroke-linejoin="round"/>
<path d="M297.309 333.965L301.549 332.262L304.727 340.839L304.228 356.402L299.931 357.18L283.624 356.476C283.624 356.476 284.759 346.986 288.227 342.473C291.695 337.961 297.309 333.965 297.309 333.965Z" fill="#4313E1"/>
<path d="M223.061 197.481C223.061 197.481 227.403 189.688 236.542 190.499" stroke="black" stroke-width="4.83" stroke-miterlimit="10"/>
<path d="M254.438 190.498C254.438 190.498 264.882 188.154 268.537 193.961" stroke="black" stroke-width="4.83" stroke-miterlimit="10"/>
<path d="M270.62 225.781C270.62 225.781 264.377 222.165 259.807 228.244" stroke="black" stroke-width="4.83" stroke-miterlimit="10"/>
<path d="M231.166 191.748C231.166 191.748 226.722 244.03 259.864 243.065C265.54 242.9 271.182 239.171 276.574 233.172" stroke="black" stroke-width="4.83" stroke-miterlimit="10"/>
<path d="M289.782 237.927L276.574 233.17C276.574 233.17 279.849 243.637 296.071 244.437C312.293 245.238 317.736 208.009 305.817 193.03" stroke="black" stroke-width="4.83" stroke-linejoin="round"/>
<path d="M341.422 342.807C341.422 342.807 329.315 352.632 337.54 357.202" stroke="black" stroke-width="4.83" stroke-miterlimit="10"/>
<path d="M332.057 333.664C332.057 333.664 311.056 345.549 329.088 357.202" stroke="black" stroke-width="4.83" stroke-miterlimit="10"/>
<path d="M324.973 324.527C324.973 324.527 297.099 337.582 318.577 357.204" stroke="black" stroke-width="4.83" stroke-miterlimit="10"/>
<path d="M442.194 357.202C442.194 357.202 476.011 357.202 476.465 324.526C476.919 291.849 410.891 209.797 368.162 198.383C325.433 186.968 323.6 218.249 323.6 219.531C323.6 220.814 321.091 234.289 332.057 248.666C340.526 259.78 377.93 287.524 394.527 299.58C395.136 300.024 395.597 300.642 395.847 301.354C396.096 302.065 396.123 302.835 395.924 303.562C395.725 304.289 395.309 304.938 394.732 305.424C394.155 305.909 393.444 306.206 392.693 306.277L319.292 313.327H319.246C318.554 313.452 292.649 318.231 284.759 326.348C284.759 326.348 280.337 329.623 282.625 334.652C284.912 339.681 291.939 338.023 292.132 337.836" stroke="black" stroke-width="4.83" stroke-miterlimit="10"/>
<path opacity="0.26" d="M258.678 216.659C263.725 216.659 267.816 212.568 267.816 207.521C267.816 202.474 263.725 198.382 258.678 198.382C253.631 198.382 249.539 202.474 249.539 207.521C249.539 212.568 253.631 216.659 258.678 216.659Z" fill="white"/>
<path opacity="0.26" d="M235.486 215.757C240.533 215.757 244.624 211.665 244.624 206.618C244.624 201.571 240.533 197.48 235.486 197.48C230.439 197.48 226.347 201.571 226.347 206.618C226.347 211.665 230.439 215.757 235.486 215.757Z" fill="white"/>
<path d="M314.479 332.524C311.266 331.627 306.016 330.821 300.606 332.558C297.961 333.41 295.521 334.799 293.438 336.639C292.984 337.036 292.547 337.439 292.127 337.842C291.221 338.73 290.366 339.668 289.567 340.652C289.462 340.782 289.312 340.869 289.147 340.896C287.132 341.174 273.867 343.274 273.935 349.978C273.997 356 280.593 356.987 282.863 357.146C282.957 357.155 283.051 357.144 283.14 357.115C283.229 357.084 283.312 357.037 283.382 356.974C283.451 356.911 283.508 356.834 283.546 356.748C283.585 356.663 283.606 356.57 283.607 356.477C283.607 354.331 284.095 347.605 289.402 340.839" stroke="black" stroke-width="4.83" stroke-miterlimit="10"/>
<path d="M194.965 285.214C196.52 297.752 186.774 303.422 176.121 304.262" stroke="black" stroke-width="4.83" stroke-miterlimit="10"/>
<path d="M160.637 301.646C156.574 299.452 153.284 296.062 151.21 291.937C149.138 287.811 148.382 283.148 149.046 278.579C150.749 266.517 160.966 257.265 170.967 251.396C191.968 239.074 239.294 247.991 247.246 249.807C253.342 251.203 258.439 246.436 260.505 244.131C260.593 244.034 260.707 243.963 260.834 243.928C260.96 243.893 261.094 243.895 261.22 243.934C261.345 243.973 261.457 244.047 261.541 244.147C261.626 244.248 261.68 244.37 261.697 244.5C266.062 270.042 316.755 304.711 328.481 312.47" stroke="black" stroke-width="4.83" stroke-miterlimit="10"/>
<path d="M207.753 276.542L190.969 286.957C189.969 287.58 188.849 287.986 187.683 288.15C186.516 288.313 185.328 288.23 184.195 287.906C183.062 287.582 182.01 287.024 181.106 286.268C180.202 285.512 179.467 284.575 178.947 283.518C178.011 281.618 177.826 279.436 178.427 277.405C179.029 275.374 180.374 273.645 182.194 272.563L207.736 257.346" stroke="black" stroke-width="4.83" stroke-miterlimit="10"/>
<path d="M258.678 216.659C263.725 216.659 267.816 212.568 267.816 207.521C267.816 202.474 263.725 198.382 258.678 198.382C253.631 198.382 249.539 202.474 249.539 207.521C249.539 212.568 253.631 216.659 258.678 216.659Z" stroke="black" stroke-width="4.83" stroke-miterlimit="10"/>
<path d="M235.486 214.389C239.777 214.389 243.256 210.91 243.256 206.618C243.256 202.327 239.777 198.848 235.486 198.848C231.194 198.848 227.715 202.327 227.715 206.618C227.715 210.91 231.194 214.389 235.486 214.389Z" stroke="white" stroke-width="4.83" stroke-miterlimit="10"/>
<path d="M235.486 215.757C240.533 215.757 244.624 211.665 244.624 206.618C244.624 201.571 240.533 197.48 235.486 197.48C230.439 197.48 226.347 201.571 226.347 206.618C226.347 211.665 230.439 215.757 235.486 215.757Z" stroke="black" stroke-width="4.83" stroke-miterlimit="10"/>
<path d="M249.585 206.62H244.624" stroke="black" stroke-width="4.83" stroke-miterlimit="10"/>
<path d="M249.585 219.532H246.316C246.11 219.532 245.907 219.488 245.721 219.4C245.535 219.313 245.37 219.185 245.239 219.027C245.107 218.868 245.013 218.683 244.961 218.484C244.91 218.285 244.903 218.077 244.942 217.875L247.105 206.62" stroke="black" stroke-width="4.83" stroke-miterlimit="10"/>
<path d="M183.987 250.721C183.987 250.721 172.335 253.235 168.225 270.831C165.728 281.513 162.3 295.141 159.995 304.2C159.699 305.362 159.673 306.576 159.918 307.75C160.163 308.924 160.673 310.026 161.409 310.973C162.145 311.919 163.087 312.686 164.164 313.212C165.241 313.74 166.424 314.014 167.624 314.014C169.414 314.014 171.151 313.404 172.548 312.284C173.946 311.165 174.919 309.602 175.309 307.855L180.185 285.98" stroke="black" stroke-width="4.83" stroke-miterlimit="10"/>
<path d="M194.641 291.851C194.641 291.851 206.873 284.54 230.968 291.851C255.062 299.161 282.761 304.122 291.899 284.733" stroke="black" stroke-width="4.83" stroke-miterlimit="10"/>
<path d="M300.612 332.557C300.612 332.557 309.126 342.275 303.95 357.202" stroke="black" stroke-width="4.83" stroke-miterlimit="10"/>
<path d="M19.2704 211.721H153.791C158.124 211.715 162.333 213.168 165.74 215.844C169.147 218.522 171.554 222.267 172.573 226.478L193.989 315.171C194.566 317.564 194.594 320.058 194.069 322.463C193.544 324.868 192.479 327.123 190.957 329.058C189.433 330.992 187.491 332.556 185.277 333.631C183.062 334.706 180.632 335.264 178.17 335.264H43.995C39.6705 335.268 35.4697 333.82 32.067 331.151C28.6644 328.482 26.2567 324.747 25.2302 320.546L3.4685 231.87C2.88087 229.475 2.84557 226.977 3.3652 224.565C3.88484 222.154 4.94585 219.892 6.46798 217.952C7.99017 216.011 9.93368 214.441 12.1516 213.362C14.3695 212.282 16.8038 211.721 19.2704 211.721Z" fill="#3FBDF1"/>
<path d="M24.1688 215.537H150.38C154.446 215.542 158.392 216.911 161.587 219.425C164.783 221.939 167.042 225.453 168.004 229.403L188.108 312.608C188.651 314.852 188.678 317.191 188.185 319.448C187.693 321.704 186.695 323.82 185.266 325.635C183.838 327.45 182.016 328.916 179.938 329.925C177.86 330.934 175.581 331.457 173.271 331.457H47.3665C43.3133 331.449 39.3793 330.084 36.1911 327.583C33.0023 325.08 30.7425 321.582 29.771 317.648L9.33744 234.438C8.78568 232.19 8.75242 229.846 9.24022 227.583C9.72795 225.321 10.724 223.198 12.1528 221.377C13.5817 219.557 15.406 218.084 17.4878 217.072C19.5695 216.061 21.8542 215.535 24.1688 215.537Z" fill="#4313E1"/>
<path d="M19.2704 211.721H153.791C158.124 211.715 162.333 213.168 165.74 215.844C169.147 218.522 171.554 222.267 172.573 226.478L193.989 315.171C194.566 317.564 194.594 320.058 194.069 322.463C193.544 324.868 192.479 327.123 190.957 329.058C189.433 330.992 187.491 332.556 185.277 333.631C183.062 334.706 180.632 335.264 178.17 335.264H43.995C39.6705 335.268 35.4697 333.82 32.067 331.151C28.6644 328.482 26.2567 324.747 25.2302 320.546L3.4685 231.87C2.88087 229.475 2.84557 226.977 3.3652 224.565C3.88484 222.154 4.94585 219.892 6.46798 217.952C7.99017 216.011 9.93368 214.441 12.1516 213.362C14.3695 212.282 16.8038 211.721 19.2704 211.721Z" stroke="black" stroke-width="4.83" stroke-miterlimit="10"/>
<path d="M82.2739 270.797L74.2538 233.41C74.0875 232.619 73.6538 231.909 73.0266 231.4C72.3994 230.891 71.6167 230.612 70.8085 230.611H31.122C30.5881 230.613 30.0616 230.736 29.5822 230.971C29.1029 231.206 28.6832 231.546 28.355 231.967C28.0269 232.389 27.7989 232.879 27.6882 233.401C27.5776 233.923 27.5872 234.464 27.7164 234.982L36.9966 272.807C37.1118 273.334 37.3576 273.824 37.7118 274.231C38.0296 274.635 38.4343 274.962 38.8964 275.187C39.3584 275.412 39.8658 275.53 40.3795 275.531H40.4533L78.8627 275.077C79.3815 275.07 79.8917 274.948 80.3577 274.72C80.8237 274.492 81.2341 274.165 81.5588 273.76C81.8897 273.35 82.1252 272.871 82.249 272.359C82.3727 271.847 82.3812 271.313 82.2739 270.797ZM30.3671 234.312C30.3383 234.2 30.3356 234.083 30.3592 233.97C30.3828 233.857 30.4321 233.751 30.5033 233.659C30.5761 233.565 30.6698 233.487 30.777 233.435C30.8843 233.381 31.0023 233.353 31.122 233.353H70.8085C70.9873 233.352 71.1609 233.413 71.2994 233.526C71.4385 233.639 71.5333 233.796 71.569 233.972L77.6764 262.448C57.2826 242.758 54.9725 265.348 54.9725 265.348C43.4616 259.355 40.1354 265.916 39.1705 270.235L30.3671 234.312Z" fill="#D7E8F0"/>
<path d="M41.8268 247.884C44.0404 247.197 45.0905 244.263 44.1823 241.328C43.2741 238.394 40.737 236.577 38.5063 237.264C36.2757 237.951 35.2426 240.886 36.1565 243.814C37.0703 246.743 39.6188 248.571 41.8268 247.884Z" fill="#D7E8F0"/>
<path d="M51.5441 247.213H64.5649C66.1825 247.213 67.8058 247.213 69.4235 247.213H69.6562C70.1114 247.226 70.5644 247.141 70.9844 246.964C71.2744 246.82 71.5213 246.601 71.699 246.331C71.8772 246.061 71.98 245.748 71.9976 245.424C72.0146 245.101 71.9459 244.779 71.7978 244.491C71.6496 244.203 71.4277 243.959 71.1547 243.785C70.8487 243.646 70.5701 243.454 70.3317 243.217C70.1739 242.968 70.0655 242.691 70.0138 242.4C69.713 241.579 69.1323 240.889 68.3734 240.453C67.8212 240.082 67.2002 239.826 66.5463 239.7C65.893 239.574 65.221 239.581 64.5705 239.721C63.9286 239.883 63.3411 240.212 62.8677 240.675C62.4647 241.072 62.3853 241.605 62.0731 242.048C61.8688 242.338 61.7382 242.247 61.4601 242.088C61.182 241.929 61.0287 241.81 60.8017 241.696C60.3538 241.457 59.889 241.25 59.4111 241.078C58.4376 240.717 57.3995 240.564 56.3631 240.629C54.5411 240.771 52.7248 241.855 52.089 243.569C51.5163 243.577 50.9646 243.789 50.5344 244.166C50.1036 244.544 49.8215 245.063 49.7392 245.63C49.7017 245.848 49.7159 246.073 49.7806 246.285C49.8459 246.497 49.96 246.691 50.1138 246.85C50.5276 247.147 51.0384 247.277 51.5441 247.213Z" fill="#D7E8F0"/>
<path d="M144.891 246.406L143.847 242.11C143.147 239.221 141.496 236.652 139.158 234.815C136.821 232.979 133.935 231.981 130.963 231.984H116.619C114.983 231.982 113.368 232.358 111.9 233.082C110.433 233.806 109.153 234.859 108.158 236.159C107.164 237.459 106.484 238.971 106.169 240.577C105.855 242.183 105.916 243.84 106.346 245.419L107.532 249.784C108.29 252.592 109.952 255.072 112.262 256.84C114.572 258.608 117.4 259.565 120.309 259.563H134.567C136.177 259.562 137.766 259.195 139.214 258.49C140.662 257.784 141.931 256.76 142.925 255.493C143.92 254.226 144.613 252.75 144.954 251.176C145.294 249.602 145.273 247.971 144.891 246.406ZM129.118 247.468L124.22 250.482C124.031 250.601 123.817 250.676 123.595 250.7C123.372 250.723 123.147 250.695 122.938 250.616C122.728 250.538 122.54 250.412 122.387 250.25C122.234 250.086 122.121 249.89 122.057 249.676L120.212 243.648C120.135 243.38 120.135 243.096 120.213 242.829C120.291 242.561 120.443 242.321 120.651 242.137C120.86 241.953 121.117 241.831 121.392 241.788C121.667 241.744 121.949 241.779 122.205 241.888L128.999 244.891C129.242 245 129.45 245.174 129.601 245.394C129.751 245.613 129.839 245.87 129.854 246.136C129.868 246.402 129.809 246.667 129.684 246.902C129.558 247.137 129.37 247.333 129.141 247.468H129.118Z" fill="white"/>
<path d="M141.69 285.003H116.597C115.448 285.002 114.324 284.666 113.363 284.037C112.401 283.409 111.644 282.513 111.182 281.462C111.039 281.138 110.961 280.788 110.955 280.434C110.961 279.75 111.236 279.095 111.722 278.613C112.208 278.13 112.864 277.859 113.549 277.857H140.226C138.971 279.98 139.607 282.915 141.69 285.003Z" fill="#D7E8F0"/>
<path d="M157.946 282.427C157.945 283.11 157.673 283.764 157.19 284.247C156.707 284.73 156.052 285.002 155.369 285.003H141.69C139.607 282.915 138.971 279.98 140.226 277.857H152.27C153.417 277.858 154.539 278.192 155.5 278.817C156.461 279.443 157.22 280.334 157.685 281.382C157.842 281.709 157.931 282.064 157.946 282.427Z" fill="#3FBDF1"/>
<path d="M151.64 285.004C151.569 285.14 151.488 285.271 151.396 285.395C149.603 287.842 145.72 288.069 142.706 285.866C142.346 285.605 142.006 285.317 141.69 285.004C139.607 282.915 138.971 279.98 140.226 277.857C140.296 277.722 140.378 277.594 140.47 277.471C142.246 275.008 146.146 274.792 149.143 276.978C149.506 277.246 149.849 277.54 150.17 277.857C152.27 279.946 152.878 282.881 151.64 285.004Z" fill="white"/>
<path d="M164.229 298.207C164.223 298.892 163.948 299.546 163.462 300.028C162.976 300.511 162.32 300.782 161.635 300.784H62.1808C63.4522 298.65 62.8165 295.727 60.7277 293.644H158.587C159.735 293.643 160.858 293.977 161.819 294.606C162.78 295.233 163.536 296.128 163.997 297.18C164.144 297.503 164.223 297.852 164.229 298.207Z" fill="#3FBDF1"/>
<path d="M62.1809 300.755H49.7902C48.6431 300.756 47.5209 300.423 46.5594 299.797C45.5985 299.171 44.8396 298.279 44.3753 297.23C44.2294 296.902 44.1522 296.546 44.1483 296.186C44.1477 295.848 44.2135 295.513 44.3429 295.2C44.4724 294.887 44.6619 294.604 44.9015 294.365C45.141 294.125 45.4254 293.936 45.7387 293.807C46.0514 293.679 46.3869 293.614 46.7252 293.615H60.7278C62.8166 295.698 63.4523 298.621 62.1809 300.755Z" fill="#D7E8F0"/>
<path d="M62.1809 300.755C62.1225 300.895 62.0464 301.026 61.9539 301.147C60.1773 303.61 56.2779 303.82 53.2753 301.635C52.9137 301.367 52.572 301.073 52.2536 300.755C50.1819 298.666 49.5462 295.749 50.7835 293.615C50.8522 293.477 50.934 293.346 51.0276 293.223C52.8212 290.777 56.7036 290.55 59.7175 292.746C60.0774 293.008 60.4151 293.299 60.7279 293.615C62.8166 295.698 63.4523 298.621 62.1809 300.755Z" fill="white"/>
<path d="M70.9561 316.37H55.2109C54.0643 316.369 52.9422 316.036 51.9813 315.41C51.0203 314.785 50.2614 313.894 49.796 312.846C49.6399 312.529 49.5508 312.183 49.5349 311.83C49.5366 311.144 49.8096 310.487 50.2949 310.001C50.7797 309.516 51.4369 309.243 52.1232 309.241H69.4747C68.2657 311.387 68.8844 314.304 70.9561 316.37Z" fill="#3FBDF1"/>
<path d="M169.627 313.834C169.618 314.515 169.34 315.164 168.852 315.64C168.365 316.116 167.709 316.378 167.028 316.371H70.956C68.8842 314.282 68.2485 311.365 69.4859 309.231H163.985C165.133 309.23 166.256 309.564 167.217 310.193C168.178 310.821 168.934 311.715 169.395 312.767C169.545 313.103 169.624 313.466 169.627 313.834Z" fill="#D7E8F0"/>
<path d="M80.9003 316.37C80.8316 316.508 80.7499 316.64 80.6562 316.762C78.8796 319.225 74.9802 319.436 71.9833 317.25C71.62 316.983 71.2767 316.689 70.956 316.37C68.8842 314.282 68.2485 311.364 69.4859 309.23C69.5568 309.094 69.6386 308.963 69.7299 308.838C71.5236 306.392 75.4059 306.176 78.4199 308.362C78.7809 308.622 79.1186 308.913 79.4302 309.23C81.519 311.336 82.1547 314.27 80.9003 316.37Z" fill="white"/>
<g opacity="0.21">
<path opacity="0.21" d="M83.6475 272.164L75.6444 234.776C75.4787 233.986 75.0456 233.276 74.4178 232.767C73.7906 232.259 73.0068 231.982 72.1991 231.984H32.5069C31.9694 231.984 31.4393 232.107 30.957 232.344C30.4748 232.581 30.0535 232.926 29.7257 233.352C29.4006 233.769 29.1753 234.255 29.067 234.772C28.9588 235.289 28.9705 235.825 29.1013 236.337L38.3816 274.168C38.4951 274.694 38.7386 275.185 39.0911 275.592C39.41 275.996 39.8164 276.322 40.279 276.546C40.7422 276.771 41.2502 276.886 41.7644 276.886H41.8553L80.259 276.427C80.7766 276.42 81.2863 276.299 81.7512 276.073C82.2166 275.847 82.6259 275.519 82.9494 275.115C83.2758 274.705 83.5073 274.228 83.6282 273.717C83.7486 273.208 83.7554 272.677 83.6475 272.164ZM31.735 235.684C31.706 235.572 31.7038 235.455 31.7287 235.341C31.7531 235.228 31.8042 235.122 31.8769 235.032C31.9478 234.936 32.0403 234.859 32.147 234.806C32.2532 234.752 32.3707 234.725 32.4899 234.725H72.1764C72.3552 234.724 72.5289 234.784 72.6685 234.895C72.8081 235.007 72.9046 235.163 72.9426 235.338L79.05 263.815C58.6505 244.119 56.3461 266.715 56.3461 266.715C44.8408 260.721 41.509 267.283 40.5498 271.602L31.735 235.684Z" fill="#D7E8F0"/>
<path opacity="0.21" d="M43.2005 249.251C45.4084 248.564 46.4642 245.63 45.5503 242.701C44.6365 239.772 42.1107 237.945 39.8743 238.631C37.638 239.318 36.6106 242.253 37.5188 245.187C38.427 248.122 41.0209 249.961 43.2005 249.251Z" fill="#D7E8F0"/>
<path opacity="0.21" d="M52.9403 248.585H65.9554C67.5787 248.585 69.1964 248.585 70.8197 248.585H71.0467C71.5025 248.598 71.9549 248.513 72.3749 248.336C72.6667 248.193 72.9147 247.975 73.0935 247.705C73.2729 247.434 73.3767 247.12 73.3938 246.797C73.4114 246.473 73.3415 246.15 73.1923 245.861C73.0435 245.573 72.8199 245.33 72.5452 245.157C72.2421 245.013 71.9645 244.821 71.7222 244.589C71.5689 244.336 71.4616 244.057 71.4043 243.766C71.1035 242.948 70.5251 242.261 69.7696 241.825C69.2174 241.453 68.5947 241.196 67.9403 241.07C67.2858 240.944 66.6127 240.952 65.9611 241.093C65.3299 241.256 64.7538 241.586 64.2923 242.047C63.8836 242.444 63.8099 242.972 63.4977 243.42C63.2933 243.71 63.1628 243.619 62.8847 243.454C62.6065 243.29 62.4533 243.182 62.2263 243.062C61.7784 242.825 61.3136 242.62 60.8356 242.45C59.8622 242.088 58.8241 241.933 57.7876 241.995C55.9656 242.137 54.1493 243.227 53.5079 244.936C52.9352 244.945 52.3847 245.158 51.955 245.537C51.5253 245.915 51.2449 246.435 51.1638 247.002C51.1269 247.22 51.1416 247.444 51.2052 247.656C51.2693 247.867 51.3812 248.061 51.5327 248.222C51.9425 248.509 52.4426 248.639 52.9403 248.585Z" fill="#D7E8F0"/>
<path opacity="0.21" d="M146.288 247.774L145.243 243.483C144.542 240.594 142.889 238.024 140.552 236.186C138.214 234.349 135.327 233.35 132.353 233.352H117.987C116.352 233.35 114.74 233.726 113.274 234.45C111.808 235.173 110.528 236.224 109.535 237.522C108.541 238.82 107.86 240.33 107.544 241.933C107.228 243.537 107.286 245.192 107.714 246.77L108.9 251.14C109.659 253.949 111.322 256.43 113.633 258.197C115.944 259.965 118.773 260.922 121.682 260.92H135.94C137.551 260.92 139.141 260.555 140.59 259.852C142.039 259.149 143.31 258.126 144.306 256.86C145.303 255.594 145.999 254.119 146.342 252.545C146.685 250.972 146.667 249.34 146.288 247.774ZM130.508 248.824L125.593 251.855C125.405 251.976 125.191 252.05 124.969 252.073C124.747 252.097 124.523 252.068 124.314 251.99C124.105 251.912 123.916 251.786 123.764 251.623C123.612 251.46 123.5 251.263 123.436 251.049L121.62 245.016C121.544 244.749 121.545 244.466 121.623 244.199C121.702 243.933 121.854 243.694 122.063 243.51C122.271 243.327 122.527 243.206 122.802 243.162C123.076 243.118 123.357 243.153 123.612 243.262L130.355 246.259C130.595 246.369 130.799 246.543 130.948 246.761C131.096 246.978 131.183 247.233 131.199 247.496C131.214 247.759 131.159 248.022 131.037 248.256C130.915 248.489 130.733 248.686 130.508 248.824Z" fill="#D7E8F0"/>
<path opacity="0.21" d="M143.064 286.371H117.97C116.822 286.368 115.7 286.033 114.738 285.405C113.777 284.778 113.019 283.885 112.555 282.835C112.378 282.442 112.303 282.012 112.337 281.584C112.371 281.155 112.513 280.742 112.749 280.382C112.984 280.023 113.307 279.729 113.688 279.527C114.067 279.326 114.492 279.223 114.922 279.23H141.599C140.35 281.347 140.975 284.288 143.064 286.371Z" fill="#D7E8F0"/>
<path opacity="0.21" d="M159.286 283.793C159.286 284.476 159.015 285.13 158.533 285.613C158.051 286.096 157.397 286.369 156.714 286.37H143.064C140.975 284.287 140.339 281.347 141.594 279.229H153.644C154.791 279.229 155.913 279.562 156.875 280.188C157.837 280.813 158.595 281.705 159.059 282.754C159.204 283.082 159.281 283.435 159.286 283.793Z" fill="#3FBDF1"/>
<path opacity="0.21" d="M153.008 286.371C152.941 286.51 152.859 286.641 152.764 286.763C150.97 289.209 147.088 289.436 144.074 287.24C143.715 286.976 143.378 286.686 143.064 286.371C140.975 284.288 140.339 281.348 141.594 279.231C141.664 279.093 141.748 278.962 141.843 278.839C143.62 276.376 147.519 276.166 150.516 278.351C150.88 278.618 151.223 278.912 151.544 279.231C153.615 281.32 154.251 284.237 153.008 286.371Z" fill="white"/>
<path opacity="0.21" d="M165.597 299.549C165.591 300.233 165.315 300.888 164.829 301.369C164.344 301.85 163.687 302.121 163.004 302.121H63.5546C64.826 299.986 64.1903 297.069 62.1015 294.98H159.956C161.105 294.98 162.229 295.315 163.191 295.945C164.153 296.573 164.91 297.469 165.37 298.522C165.516 298.846 165.593 299.195 165.597 299.549Z" fill="#3FBDF1"/>
<path opacity="0.21" d="M63.5545 302.121H51.1582C50.0122 302.12 48.8906 301.787 47.9297 301.163C46.9687 300.538 46.2093 299.649 45.7433 298.602C45.6008 298.272 45.5236 297.917 45.5162 297.557C45.5162 296.874 45.7875 296.219 46.2711 295.735C46.7542 295.252 47.4097 294.98 48.0931 294.98H62.1015C64.1902 297.069 64.8259 299.986 63.5545 302.121Z" fill="#D7E8F0"/>
<path opacity="0.21" d="M63.5546 302.122C63.4962 302.263 63.4178 302.395 63.3219 302.514C61.5453 304.977 57.6459 305.193 54.649 303.008C54.2852 302.738 53.9418 302.442 53.6217 302.122C51.5499 300.039 50.9142 297.116 52.1572 294.982C52.2242 294.843 52.306 294.711 52.4013 294.59C54.1949 292.144 58.0773 291.917 61.0913 294.119C61.4483 294.382 61.786 294.67 62.1016 294.982C64.1903 297.071 64.826 299.988 63.5546 302.122Z" fill="white"/>
<path opacity="0.21" d="M72.3239 317.759H56.556C55.41 317.756 54.2896 317.423 53.3286 316.799C52.3683 316.174 51.6082 315.286 51.1411 314.239C50.9986 313.915 50.9214 313.566 50.9141 313.212C50.9169 312.525 51.1911 311.867 51.6769 311.382C52.1628 310.896 52.8212 310.621 53.508 310.618H70.8595C69.6164 312.752 70.2521 315.675 72.3239 317.759Z" fill="#3FBDF1"/>
<path opacity="0.21" d="M171.001 315.199C171 315.536 170.933 315.87 170.803 316.181C170.673 316.493 170.483 316.775 170.244 317.013C170.004 317.251 169.721 317.44 169.408 317.567C169.096 317.695 168.761 317.76 168.424 317.759H72.324C70.2522 315.675 69.6165 312.752 70.8596 310.618H165.353C166.503 310.618 167.627 310.953 168.589 311.582C169.55 312.211 170.308 313.107 170.768 314.16C170.916 314.487 170.995 314.841 171.001 315.199Z" fill="#D7E8F0"/>
<path opacity="0.21" d="M82.274 317.76C82.203 317.898 82.1196 318.029 82.0242 318.151C80.2477 320.615 76.3483 320.83 73.3513 318.645C72.9875 318.375 72.6441 318.08 72.324 317.76C70.2522 315.677 69.6165 312.753 70.8596 310.619C70.9266 310.48 71.0083 310.349 71.1036 310.228C72.8973 307.781 76.7796 307.571 79.7936 309.757C80.1506 310.019 80.4883 310.308 80.8039 310.619C82.8927 312.708 83.5284 315.643 82.274 317.76Z" fill="white"/>
</g>
</svg>
