<svg width="461" height="540" viewBox="0 0 461 540" fill="none" xmlns="http://www.w3.org/2000/svg">
<path d="M122.991 361.975C129.807 346.458 134.11 328.553 134.515 307.79C136.485 206.237 251.311 127.87 378.688 214.008C506.065 300.145 393.489 537.115 393.489 537.115" stroke="#CCDDE2" stroke-width="4.47" stroke-miterlimit="10"/>
<path d="M33.935 537.115C28.307 532.693 -14.5975 490.743 11.1726 466.734C22.1838 456.486 45.8831 444.52 69.6242 426.276" stroke="#CCDDE2" stroke-width="4.47" stroke-miterlimit="10"/>
<path d="M340.952 282.576C341.415 284.979 342.629 287.174 344.419 288.842" stroke="#CCDDE2" stroke-width="4.47" stroke-miterlimit="10"/>
<path d="M240.95 328.686C240.067 328.919 239.321 329.086 238.73 329.223C238.289 329.301 237.925 329.378 237.674 329.414H237.62L237.274 329.474C237.274 329.474 237.238 329.432 237.214 329.432C231.246 325.051 233.078 316.899 233.078 316.899C250.923 319.71 254.623 305.255 254.623 305.255C254.391 298.326 253.072 295.068 250.028 293.194C246.847 291.2 241.774 290.687 234.021 289.016L232.738 288.73C221.208 286.11 215.831 274.275 213.706 267.71C213.211 266.256 212.813 264.77 212.512 263.264C199.454 268.17 191.278 275.116 186.569 280.327C184.707 243.39 221.781 248.696 221.781 248.696C228.019 248.785 234.22 249.692 240.222 251.393C241.583 251.99 242.884 252.587 244.125 253.184C244.722 253.488 245.355 253.816 245.916 254.156C246.477 254.497 247.109 254.831 247.659 255.171C248.058 255.404 248.464 255.654 248.852 255.917C257.008 261.093 263.526 268.477 267.652 277.211C267.71 277.329 267.762 277.451 267.807 277.575C267.995 277.979 268.16 278.394 268.302 278.817C276.693 315.532 250.804 326.042 240.95 328.686Z" fill="#4313E1"/>
<path d="M240.95 328.684C238.348 324.358 239.554 319.136 239.554 319.136C257.381 321.952 261.093 307.498 261.093 307.498C260.711 296.869 257.84 294.875 250.028 293.174C247.133 292.524 243.576 291.927 239.208 290.954C237.393 290.547 235.647 289.882 234.021 288.979C222.151 282.474 218.952 265.47 218.952 265.47C217.114 266.157 215.371 266.903 213.706 267.673C213.211 266.218 212.813 264.733 212.512 263.226C199.454 268.132 191.278 275.079 186.569 280.289C184.707 243.353 221.781 248.658 221.781 248.658C228.019 248.748 234.22 249.655 240.222 251.356C241.583 251.953 242.884 252.549 244.125 253.146C244.722 253.451 245.355 253.779 245.916 254.119C246.477 254.459 247.109 254.793 247.659 255.134C248.058 255.366 248.464 255.617 248.852 255.88C257.008 261.056 263.526 268.44 267.652 277.174C267.71 277.293 267.762 277.414 267.807 277.538C267.995 277.943 268.16 278.357 268.302 278.779C276.693 315.531 250.804 326.041 240.95 328.684Z" fill="#4313E1"/>
<path d="M303.514 492.158C306.271 510.157 309.643 527.865 313.164 537.115H154.884C135.828 483.009 144.864 423.901 144.864 423.901L116.754 424.784C133.662 395.122 127.646 370.044 124.793 361.677C146.875 357.923 168.957 354.975 191.272 354.724C190.675 367.496 204.616 382.178 224.723 378.316C232.875 376.765 242.812 373.542 243.027 359.26L248.273 360.179C255.53 361.373 262.095 362.65 268.32 364.088C284.434 367.8 298.28 372.444 315.534 378.316C291.661 395.988 303.526 436.804 303.526 436.804L304.123 438.164L296.501 436.804C296.501 436.804 299.324 464.8 303.514 492.158Z" fill="#353642"/>
<path d="M139.296 98.7989C155.077 98.7989 167.871 86.0051 167.871 70.2237C167.871 54.4416 155.077 41.6484 139.296 41.6484C123.514 41.6484 110.72 54.4416 110.72 70.2237C110.72 86.0051 123.514 98.7989 139.296 98.7989Z" fill="#4313E1"/>
<path d="M148.689 60.6884C148.288 59.758 147.746 58.8944 147.084 58.1281C145.955 56.7847 144.374 55.9002 142.638 55.6412C140.903 55.3816 139.133 55.7653 137.66 56.7196C136.698 57.3415 135.894 58.1794 135.311 59.1671C134.729 60.1543 134.385 61.2637 134.306 62.4072C132.804 61.8635 131.165 61.8223 129.637 62.2896C128.108 62.7569 126.773 63.7071 125.832 64.9986C124.89 66.2895 124.392 67.8513 124.414 69.449C124.435 71.0466 124.975 72.5948 125.951 73.86C127.998 76.5277 131.477 78.2824 134.629 79.3029C136.282 79.8287 137.983 80.191 139.707 80.3831C140.579 80.4786 145.562 81.147 146.028 80.3831C149.071 75.5311 151.28 66.6207 148.689 60.6884Z" fill="white"/>
<path d="M91.2167 60.938C89.3427 60.7292 87.4449 60.5979 85.553 60.4964C83.5239 60.5979 81.4947 60.7471 79.4655 60.9977C73.057 61.7127 66.7792 63.3199 60.8153 65.7722C58.1439 66.8709 55.5687 68.1905 53.1164 69.7171C51.3469 70.7806 49.6525 71.9629 48.0435 73.2562C46.8559 71.5535 45.9028 69.6986 45.2087 67.7417C44.0276 64.4395 43.5943 60.9171 43.9387 57.427C44.2836 53.9369 45.3979 50.5673 47.202 47.56C49.0062 44.5526 51.4543 41.9828 54.3715 40.036C57.2881 38.0892 60.6004 36.8132 64.0697 36.3011C67.5389 35.7885 71.0786 36.0517 74.4338 37.0716C77.7885 38.0922 80.8758 39.8438 83.4725 42.2012C86.0687 44.558 88.1103 47.4615 89.4496 50.7028C90.7888 53.944 91.3922 57.4419 91.2167 60.944V60.938Z" fill="#4313E1"/>
<path d="M79.4655 60.9975C73.057 61.7124 66.7792 63.3197 60.8152 65.7719C60.4691 64.8529 60.1826 63.9815 60.0871 63.6831C59.6085 62.3272 59.2629 60.9282 59.0547 59.5054C58.6906 56.784 58.7443 53.5373 60.0096 51.0606C60.6004 49.8711 61.5625 48.9067 62.7501 48.3123C63.9378 47.7179 65.2865 47.5263 66.593 47.7662C67.8994 48.0061 69.0918 48.665 69.9906 49.6426C70.8894 50.6201 71.4462 51.8633 71.5757 53.1852C72.4626 52.8397 73.4169 52.7012 74.3652 52.7812C75.3141 52.8606 76.2314 53.156 77.0485 53.6448C78.2594 54.3836 79.1677 55.5289 79.6106 56.8765C80.0534 58.2235 80.0021 59.6845 79.4655 60.9975Z" fill="white"/>
<path d="M53.1163 69.7115C51.3468 70.7744 49.6525 71.9573 48.0435 73.2506C46.965 74.0855 45.9296 74.9736 44.94 75.9124C43.6724 77.1215 42.5558 78.4804 41.6158 79.9587C40.7361 81.3344 39.9734 82.7822 39.336 84.2856C38.3727 86.5845 37.6041 88.9604 37.0383 91.3876C35.9037 96.6234 35.2192 101.946 34.9912 107.299C30.7945 105.203 27.4261 101.755 25.4274 97.5109C23.4286 93.267 22.9172 88.474 23.9741 83.9036C25.0317 79.3339 27.5962 75.2523 31.2558 72.3172C34.9148 69.3821 39.4554 67.7641 44.1463 67.7241C44.5103 67.7241 44.8505 67.7241 45.2146 67.7241C47.9545 67.8554 50.6408 68.531 53.1163 69.7115Z" fill="#4313E1"/>
<path d="M41.6159 79.9589C40.7362 81.3351 39.9735 82.7824 39.3361 84.2858C38.3729 86.5847 37.6042 88.9606 37.0384 91.3878C35.7971 89.663 34.7407 87.5981 34.5736 85.5331C34.5151 84.7907 34.6106 84.0447 34.8541 83.3404C35.097 82.6368 35.4825 81.9904 35.9868 81.442C36.4905 80.8935 37.1023 80.4554 37.7832 80.1541C38.4642 79.8527 39.2001 79.6951 39.9449 79.6903C40.513 79.6832 41.0782 79.7745 41.6159 79.9589Z" fill="white"/>
<g opacity="0.72">
<path opacity="0.72" d="M172.329 66.6264C181.017 66.6264 188.061 59.5834 188.061 50.8945C188.061 42.2061 181.017 35.1626 172.329 35.1626C163.641 35.1626 156.597 42.2061 156.597 50.8945C156.597 59.5834 163.641 66.6264 172.329 66.6264Z" fill="#4313E1"/>
<path opacity="0.72" d="M179.157 53.6993C179.543 53.2995 179.869 52.8453 180.123 52.3505C180.572 51.4941 180.692 50.5034 180.461 49.5646C180.231 48.6258 179.664 47.804 178.87 47.2538C178.353 46.8975 177.762 46.6647 177.141 46.5746C176.519 46.4851 175.886 46.5394 175.289 46.7346C175.256 45.8525 174.938 45.005 174.381 44.3205C173.824 43.6359 173.06 43.1513 172.203 42.9394C171.346 42.7282 170.443 42.801 169.632 43.1471C168.82 43.4939 168.144 44.0955 167.704 44.8606C166.773 46.466 166.606 48.6026 166.749 50.4228C166.825 51.3748 166.997 52.3165 167.262 53.2338C167.393 53.6993 168.092 56.373 168.569 56.4566C171.673 56.9818 176.674 56.2477 179.157 53.6993Z" fill="#4313E1"/>
</g>
<g opacity="0.72">
<path opacity="0.72" d="M165.317 227.03C171.52 227.03 176.549 222.001 176.549 215.798C176.549 209.594 171.52 204.566 165.317 204.566C159.113 204.566 154.085 209.594 154.085 215.798C154.085 222.001 159.113 227.03 165.317 227.03Z" fill="#4313E1"/>
<path opacity="0.72" d="M170.187 217.821C170.463 217.536 170.694 217.21 170.873 216.855C171.193 216.245 171.279 215.539 171.115 214.87C170.951 214.2 170.549 213.614 169.984 213.22C169.613 212.963 169.187 212.796 168.741 212.732C168.295 212.667 167.839 212.708 167.411 212.85C167.385 212.223 167.155 211.621 166.758 211.135C166.361 210.649 165.817 210.304 165.207 210.153C164.598 210.002 163.956 210.052 163.378 210.296C162.799 210.54 162.315 210.965 161.998 211.507C161.39 212.738 161.152 214.119 161.312 215.482C161.367 216.161 161.491 216.833 161.682 217.487C161.777 217.815 162.279 219.731 162.613 219.785C164.845 220.143 168.414 219.612 170.187 217.821Z" fill="#4313E1"/>
</g>
<path d="M140.332 80.9669L132.857 96.7746C130.144 102.511 132.595 109.36 138.331 112.072L154.138 119.548C159.874 122.26 166.723 119.809 169.436 114.074L176.912 98.2654C179.625 92.5295 177.173 85.6805 171.438 82.968L155.63 75.4924C149.894 72.7799 143.045 75.231 140.332 80.9669Z" fill="#4313E1"/>
<path d="M172.651 101.036L167.238 112.483C166.106 114.874 164.072 116.719 161.582 117.614C159.092 118.508 156.349 118.381 153.953 117.258L140.227 110.764C137.837 109.63 135.993 107.596 135.098 105.107C134.204 102.618 134.331 99.8755 135.452 97.4793L135.816 96.7034C139.546 93.7194 145.998 89.7088 148.349 95.1816C151.739 103.059 156.144 100.511 161.778 97.2167C166.504 94.4296 172.15 93.5045 172.651 101.036Z" fill="white"/>
<path d="M151.375 88.8639C153.709 88.8639 155.6 86.972 155.6 84.6385C155.6 82.305 153.709 80.4131 151.375 80.4131C149.042 80.4131 147.15 82.305 147.15 84.6385C147.15 86.972 149.042 88.8639 151.375 88.8639Z" fill="white"/>
<path d="M192.496 132.638L182.65 153.458C179.079 161.009 182.305 170.025 189.856 173.595L210.676 183.442C218.227 187.012 227.242 183.786 230.813 176.235L240.659 155.415C244.23 147.865 241.003 138.849 233.453 135.278L212.633 125.432C205.082 121.862 196.067 125.088 192.496 132.638Z" fill="#4313E1"/>
<path d="M235.042 159.071L227.88 174.141C226.384 177.284 223.704 179.707 220.426 180.881C217.148 182.053 213.539 181.882 210.388 180.401L192.34 171.867C189.197 170.37 186.774 167.69 185.6 164.412C184.427 161.135 184.6 157.526 186.08 154.375L186.563 153.354C191.475 149.439 199.961 144.145 203.059 151.349C207.529 161.721 213.324 158.367 220.742 154.028C226.943 150.381 234.385 149.153 235.042 159.071Z" fill="white"/>
<path d="M207.028 143.041C210.1 143.041 212.59 140.55 212.59 137.478C212.59 134.406 210.1 131.916 207.028 131.916C203.956 131.916 201.465 134.406 201.465 137.478C201.465 140.55 203.956 143.041 207.028 143.041Z" fill="white"/>
<path d="M232.947 73.3219C233.776 74.8485 234.379 76.4867 234.737 78.1859C235.373 81.3137 235.186 84.552 234.196 87.5856C233.205 90.6192 231.444 93.3442 229.086 95.4933C227.218 97.1465 224.836 98.4416 222.938 100.172C221.559 101.366 220.544 102.924 220.008 104.666C219.908 105.261 219.669 105.824 219.31 106.308C218.2 107.501 217.12 105.627 216.159 105.287C214.617 104.787 212.946 104.87 211.462 105.52C207.562 107.128 203.227 107.342 199.187 106.128C195.147 104.915 191.648 102.346 189.28 98.8552C186.912 95.3638 185.819 91.1635 186.185 86.9607C186.551 82.7586 188.354 78.8101 191.29 75.7807C194.214 72.7967 198.046 70.9048 201.74 68.9472C204.998 67.2165 208.239 65.3664 211.772 64.3458C220.092 61.875 228.93 65.999 232.947 73.3219Z" fill="#4313E1"/>
<path d="M199.574 94.9021C201.772 94.9021 203.554 93.12 203.554 90.9214C203.554 88.7227 201.772 86.9407 199.574 86.9407C197.375 86.9407 195.593 88.7227 195.593 90.9214C195.593 93.12 197.375 94.9021 199.574 94.9021Z" fill="white"/>
<path d="M210.298 89.1675C212.497 89.1675 214.279 87.3854 214.279 85.1868C214.279 82.9881 212.497 81.2061 210.298 81.2061C208.099 81.2061 206.317 82.9881 206.317 85.1868C206.317 87.3854 208.099 89.1675 210.298 89.1675Z" fill="white"/>
<path d="M220.36 83.7839C222.559 83.7839 224.341 82.0019 224.341 79.8032C224.341 77.6052 222.559 75.8225 220.36 75.8225C218.162 75.8225 216.38 77.6052 216.38 79.8032C216.38 82.0019 218.162 83.7839 220.36 83.7839Z" fill="white"/>
<path d="M356.552 341.396V341.491L355.078 375.378L354.255 393.945C354.255 393.258 354.29 392.548 354.332 391.862C344.145 388.454 331.057 383.608 320.959 380.182C301.085 373.403 286.111 368.192 268.308 364.098C267.234 358.912 266.219 347.787 271.215 331.548C278.376 308.38 280.734 284.872 277.093 280.33C277.058 280.278 277.014 280.233 276.962 280.199C274.372 270.859 267.52 276.904 267.52 276.904C267.52 276.904 267.562 277 267.58 277.054C266.154 274.69 264.588 272.414 262.889 270.238C262.946 269.9 263.035 269.568 263.158 269.247C265.36 262.623 277.093 261.029 277.093 261.029C294.269 262.295 303.305 269.952 307.865 280.008C311.881 292.702 309.512 306.464 308.993 319.487C308.784 325.133 307.978 333.81 312.287 338.382C316.268 345.908 326.282 342.655 328.998 341.831C329.881 341.581 332.173 341.426 335.181 341.33C341.31 341.181 350.328 341.294 355.824 341.39C356.093 341.396 356.326 341.396 356.552 341.396Z" fill="#4313E1"/>
<path d="M118.843 36.8157C117.592 37.0944 116.308 37.1905 115.03 37.1022C112.685 36.9172 110.429 36.1258 108.482 34.8069C106.535 33.4873 104.964 31.685 103.923 29.5763C103.129 27.9111 102.729 25.9596 101.864 24.2646C101.299 23.0475 100.403 22.0135 99.2797 21.2806C98.878 21.0894 98.5283 20.805 98.2592 20.451C97.6623 19.4245 99.1902 19.0426 99.6259 18.4338C100.291 17.4435 100.574 16.2449 100.42 15.0618C100.065 11.9654 100.791 8.84153 102.474 6.21867C104.158 3.59587 106.696 1.63499 109.659 0.66774C112.621 -0.299509 115.827 -0.213689 118.734 0.910581C121.641 2.03485 124.07 4.12864 125.611 6.8378C127.127 9.51747 127.682 12.6149 128.314 15.6288C128.875 18.2846 129.508 20.9523 129.508 23.6678C129.562 30.0479 124.841 35.4669 118.843 36.8157Z" fill="#4313E1" fill-opacity="0.54"/>
<path d="M113.185 12.5304C114.804 12.5304 116.116 11.2184 116.116 9.60001C116.116 7.98164 114.804 6.66968 113.185 6.66968C111.567 6.66968 110.255 7.98164 110.255 9.60001C110.255 11.2184 111.567 12.5304 113.185 12.5304Z" fill="white"/>
<path d="M115.059 21.2916C116.678 21.2916 117.99 19.9796 117.99 18.3612C117.99 16.7429 116.678 15.4309 115.059 15.4309C113.441 15.4309 112.129 16.7429 112.129 18.3612C112.129 19.9796 113.441 21.2916 115.059 21.2916Z" fill="white"/>
<path d="M116.82 29.5162C118.438 29.5162 119.75 28.2042 119.75 26.5859C119.75 24.9674 118.438 23.6555 116.82 23.6555C115.201 23.6555 113.89 24.9674 113.89 26.5859C113.89 28.2042 115.201 29.5162 116.82 29.5162Z" fill="white"/>
<g opacity="0.72">
<path opacity="0.72" d="M293.565 143.358C305.866 143.358 315.838 133.386 315.838 121.085C315.838 108.784 305.866 98.8118 293.565 98.8118C281.264 98.8118 271.292 108.784 271.292 121.085C271.292 133.386 281.264 143.358 293.565 143.358Z" fill="#4313E1"/>
<path opacity="0.72" d="M294.401 131.487C295.151 131.727 295.934 131.85 296.722 131.851C298.09 131.869 299.418 131.387 300.456 130.496C301.494 129.605 302.172 128.366 302.362 127.011C302.485 126.127 302.4 125.226 302.115 124.38C301.831 123.534 301.353 122.766 300.721 122.135C301.812 121.529 302.677 120.584 303.184 119.444C303.692 118.303 303.816 117.029 303.536 115.812C303.257 114.595 302.589 113.502 301.635 112.698C300.681 111.893 299.491 111.421 298.244 111.351C295.624 111.202 292.819 112.354 290.605 113.69C289.452 114.395 288.373 115.213 287.382 116.131C286.875 116.597 283.938 119.193 284.141 119.844C285.454 124.123 289.578 129.989 294.401 131.487Z" fill="#4313E1"/>
</g>
<path d="M303.908 211.99C302.515 214.014 300.834 215.824 298.918 217.362C295.372 220.164 291.158 221.998 286.69 222.684C282.223 223.37 277.653 222.885 273.429 221.277C270.14 219.97 266.989 217.78 263.587 216.502C261.199 215.522 258.583 215.233 256.038 215.667C255.223 215.92 254.36 215.978 253.519 215.834C251.311 215.189 252.982 212.635 252.797 211.203C252.444 208.937 251.274 206.878 249.508 205.414C244.955 201.517 241.889 196.167 240.828 190.269C239.769 184.371 240.78 178.287 243.69 173.049C246.601 167.811 251.233 163.74 256.801 161.525C262.37 159.311 268.533 159.089 274.246 160.898C279.892 162.688 284.72 166.323 289.554 169.742C293.816 172.756 298.202 175.71 301.771 179.482C310.18 188.44 310.604 202.251 303.908 211.99Z" fill="#4313E1"/>
<path d="M260.37 186.685C263.482 186.685 266.004 184.163 266.004 181.051C266.004 177.94 263.482 175.417 260.37 175.417C257.259 175.417 254.737 177.94 254.737 181.051C254.737 184.163 257.259 186.685 260.37 186.685Z" fill="white"/>
<path d="M274.461 196.582C277.573 196.582 280.095 194.06 280.095 190.948C280.095 187.837 277.573 185.314 274.461 185.314C271.35 185.314 268.827 187.837 268.827 190.948C268.827 194.06 271.35 196.582 274.461 196.582Z" fill="white"/>
<path d="M287.686 205.86C290.798 205.86 293.32 203.338 293.32 200.226C293.32 197.115 290.798 194.593 287.686 194.593C284.575 194.593 282.052 197.115 282.052 200.226C282.052 203.338 284.575 205.86 287.686 205.86Z" fill="white"/>
<g opacity="0.54">
<path opacity="0.54" d="M132.821 44.807C132.746 45.7798 132.596 46.7455 132.373 47.6956L129.878 58.5157C129.114 61.828 128.255 65.3194 125.886 67.7544C121.469 72.2722 114.075 71.2397 107.91 69.8671L92.7746 66.507C89.3011 65.7312 85.768 64.9434 82.6288 63.2126C79.4896 61.4819 76.8159 58.6709 76.0639 55.1796C75.5327 52.6073 76.1057 49.9515 76.6607 47.3853L79.0181 36.9888C79.7761 33.587 80.6355 29.9883 83.0884 27.5175C87.463 23.1071 94.7082 24.1097 100.778 25.4227L116.253 28.7828C125.599 30.8298 133.567 35.1626 132.821 44.807Z" fill="#4313E1"/>
<path opacity="0.54" d="M111.95 45.0985C112.597 45.7019 113.074 46.4646 113.334 47.3109C113.593 48.1572 113.625 49.0566 113.427 49.919C113.228 50.7813 112.806 51.5763 112.204 52.2238C111.601 52.8714 110.838 53.3494 109.992 53.609L105.379 55.0235L100.772 56.4319C99.9236 56.6927 99.0224 56.725 98.1582 56.5256C97.2935 56.3263 96.4973 55.9026 95.8492 55.2974C95.2005 54.6922 94.7236 53.9265 94.4658 53.0779C94.2074 52.2292 94.1781 51.3274 94.3798 50.4638L95.4601 45.761L96.5403 41.0641C96.7402 40.2017 97.1628 39.4068 97.7667 38.7598C98.3701 38.1123 99.1334 37.6348 99.9797 37.3758C100.827 37.1162 101.726 37.084 102.589 37.2821C103.451 37.4802 104.247 37.9016 104.896 38.5038L108.423 41.7922L111.95 45.0985Z" fill="#4313E1"/>
</g>
<g opacity="0.54">
<path opacity="0.54" d="M302.899 65.6339C302.824 66.6067 302.675 67.573 302.451 68.5225L299.957 79.3606C299.193 82.6729 298.334 86.1642 295.964 88.5932C291.548 93.117 284.153 92.0786 277.988 90.7119L262.853 87.3459C259.38 86.576 255.847 85.7822 252.707 84.0575C249.568 82.3327 246.894 79.5098 246.143 76.0244C245.611 73.4522 246.184 70.7964 246.739 68.2301L249.103 57.8754C249.855 54.4676 250.714 50.8748 253.167 48.3981C257.542 43.9936 264.787 44.9903 270.856 46.3092L286.308 49.6454C295.678 51.6686 303.645 56.0074 302.899 65.6339Z" fill="#4313E1"/>
<path opacity="0.54" d="M282.029 65.9376C282.675 66.5416 283.153 67.3049 283.412 68.1511C283.671 68.9974 283.703 69.8974 283.504 70.7598C283.306 71.6228 282.884 72.4177 282.282 73.0665C281.679 73.7146 280.917 74.1932 280.071 74.4541L275.458 75.8625L270.85 77.277C270.002 77.5372 269.101 77.5694 268.237 77.3701C267.372 77.1713 266.576 76.7476 265.928 76.1424C265.279 75.5367 264.802 74.7716 264.544 73.9229C264.286 73.0742 264.257 72.1725 264.458 71.3089L265.539 66.612L266.619 61.9151C266.819 61.0527 267.241 60.2577 267.845 59.6102C268.449 58.9627 269.212 58.4858 270.058 58.2262C270.905 57.9672 271.805 57.9344 272.668 58.1325C273.53 58.3306 274.326 58.752 274.974 59.3548L278.501 62.6432L282.029 65.9376Z" fill="white"/>
</g>
<g opacity="0.54">
<path opacity="0.54" d="M231.479 210.826C231.441 211.278 231.37 211.728 231.264 212.169L230.106 217.224C229.748 218.764 229.348 220.387 228.244 221.521C226.191 223.628 222.748 223.144 219.889 222.506L212.84 220.942C211.204 220.658 209.617 220.141 208.126 219.408C207.382 219.036 206.727 218.509 206.202 217.864C205.677 217.219 205.296 216.47 205.082 215.666C204.92 214.45 205.015 213.214 205.362 212.038L206.437 207.203C206.789 205.622 207.189 203.945 208.335 202.793C210.37 200.74 213.742 201.205 216.565 201.82L223.774 203.384C228.113 204.315 231.825 206.332 231.479 210.826Z" fill="#4313E1"/>
<path opacity="0.54" d="M221.757 210.963C222.059 211.243 222.282 211.598 222.403 211.993C222.524 212.387 222.539 212.806 222.447 213.208C222.354 213.61 222.157 213.98 221.876 214.282C221.595 214.584 221.238 214.806 220.844 214.926L218.701 215.582L216.553 216.239C216.158 216.362 215.739 216.378 215.335 216.288C214.932 216.196 214.561 216 214.258 215.719C213.955 215.438 213.732 215.082 213.611 214.687C213.49 214.292 213.475 213.872 213.569 213.469L214.094 211.255L214.595 209.065C214.687 208.662 214.882 208.29 215.163 207.988C215.445 207.685 215.8 207.461 216.195 207.34C216.59 207.219 217.01 207.205 217.412 207.298C217.814 207.391 218.185 207.589 218.486 207.871L220.128 209.399L221.757 210.963Z" fill="#4313E1"/>
</g>
<g opacity="0.54">
<path opacity="0.54" d="M157.182 1.25711C157.672 1.51177 158.143 1.80098 158.591 2.12248L163.604 5.78689C165.144 6.90293 166.749 8.11445 167.477 9.86907C168.832 13.1336 166.672 16.7085 164.613 19.5732L159.558 26.6156C158.476 28.2922 157.157 29.8038 155.642 31.1036C154.067 32.2972 152.026 33.097 150.074 32.6971C148.636 32.4106 147.395 31.5035 146.201 30.6739L141.367 27.2064C139.785 26.0725 138.126 24.8192 137.392 23.0287C136.085 19.806 138.192 16.3027 140.203 13.4798L145.33 6.25837C148.403 1.90166 152.384 -1.24352 157.182 1.25711Z" fill="#4313E1"/>
<path opacity="0.54" d="M152.742 12.0547C153.192 11.8551 153.687 11.777 154.177 11.8283C154.667 11.8796 155.135 12.0586 155.534 12.3473C155.933 12.636 156.25 13.0243 156.452 13.4735C156.654 13.9228 156.735 14.4172 156.687 14.9074L156.4 17.5931L156.114 20.2787C156.061 20.7709 155.88 21.2405 155.589 21.6404C155.297 22.0403 154.905 22.3563 154.453 22.5565C154 22.7568 153.503 22.8343 153.01 22.7812C152.519 22.7282 152.049 22.5464 151.65 22.2542L149.471 20.6666L147.293 19.0851C146.892 18.794 146.574 18.4023 146.373 17.9494C146.172 17.4966 146.094 16.9986 146.146 16.5058C146.199 16.013 146.381 15.5429 146.673 15.1428C146.966 14.7427 147.359 14.4268 147.812 14.2271L150.277 13.1349L152.742 12.0547Z" fill="#4313E1"/>
</g>
<path d="M393.465 451.772C393.462 451.876 393.45 451.98 393.429 452.083C393.42 452.108 393.42 452.135 393.429 452.16C392.589 457.734 390.276 462.982 386.727 467.361C386.685 467.397 386.667 467.456 386.631 467.492C381.177 474.29 373.269 479.196 365.266 482.275C357.089 485.456 348.8 486.739 342.897 486.298H342.766C335.545 485.761 327.619 486.698 320.684 487.999C319.956 488.136 319.228 488.267 318.5 488.422C313.922 489.341 309.404 490.487 304.928 491.752L304.087 491.985L303.526 492.134C299.348 464.777 296.519 436.762 296.519 436.762L381.863 451.927C385.704 452.624 389.644 452.572 393.465 451.772Z" fill="#4313E1"/>
<path d="M218.2 321.726C213.712 326.178 207.702 327.037 201.8 328.35C188.389 331.334 177.145 327.945 176.555 312.529C176.173 302.61 177.223 292.685 183.227 284.449C190.418 274.584 201.465 268.013 212.471 263.215C212.471 263.215 217.52 289.045 240.521 290.167C263.522 291.289 257.924 321.612 230.972 316.557" stroke="black" stroke-width="4.47" stroke-miterlimit="10"/>
<path d="M235.49 329.474C236.086 329.474 236.635 329.474 237.19 329.432C237.325 329.423 237.461 329.423 237.596 329.432H237.65L238.706 329.337" stroke="black" stroke-width="4.47" stroke-miterlimit="10"/>
<path d="M260.973 266.384C257.202 261.901 252.695 258.093 247.646 255.122C247.085 254.752 246.503 254.414 245.904 254.108C245.307 253.768 244.71 253.439 244.113 253.135C242.854 252.484 241.547 251.87 240.21 251.344C232.318 248.04 223.844 246.35 215.287 246.373C169.262 246.373 182.051 286.198 182.051 286.198" stroke="black" stroke-width="4.47" stroke-miterlimit="10"/>
<path d="M268.612 363.706C267.025 355.243 269.012 342.072 271.215 331.538C273.19 322.156 275.35 314.882 275.35 314.882C278.609 295.736 278.472 285.47 276.962 280.189C274.372 270.861 267.52 276.906 267.52 276.906" stroke="black" stroke-width="4.47" stroke-miterlimit="10"/>
<path d="M276.962 280.189C274.372 270.861 267.521 276.906 267.521 276.906C266.336 274.209 264.874 271.643 263.158 269.249C262.466 268.287 261.737 267.347 260.973 266.432C263.021 260.995 268.481 257.755 274.103 257.319C288.862 256.185 303.413 265.955 307.859 279.998C311.875 292.692 309.506 306.454 308.987 319.477C308.778 325.123 307.972 333.8 312.281 338.372C312.508 338.605 312.723 338.813 312.968 339.022C316.548 342.108 322.254 342.281 329.016 341.821C330.985 341.684 333.056 341.517 335.199 341.32C341.764 340.723 348.925 340.21 355.842 341.38L356.529 341.493C356.32 352.773 355.628 364.088 355.055 375.368C354.75 380.859 354.458 386.355 354.309 391.852C344.121 388.444 331.033 383.598 320.935 380.172L315.552 378.316C298.298 372.438 284.476 367.801 268.338 364.088C262.113 362.65 255.548 361.367 248.291 360.179L240.575 358.824C240.057 358.734 239.589 358.463 239.252 358.06C238.915 357.657 238.733 357.147 238.736 356.622V329.318C243.89 328.881 248.872 327.256 253.293 324.573C257.714 321.889 261.454 318.219 264.22 313.849C271.686 301.841 272.396 289.553 268.314 278.768C268.169 278.338 268 277.915 267.807 277.503C267.762 277.379 267.71 277.257 267.652 277.139C267.652 277.103 267.616 277.044 267.598 277.002" stroke="black" stroke-width="4.47" stroke-miterlimit="10"/>
<path d="M77.7588 378.316C80.146 359.815 81.2442 340.998 83.5598 322.389" stroke="black" stroke-width="4.47" stroke-miterlimit="10"/>
<path d="M83.9415 319.477C84.5921 314.44 85.3619 309.403 86.3288 304.426C86.3646 304.181 86.4064 303.948 86.4601 303.721C86.9972 300.773 87.594 297.843 88.2505 294.913C90.2438 286.145 97.2026 279.73 102.15 272.586L102.455 271.822C113.129 256.293 119.038 237.986 119.458 219.148C119.577 212.332 119.308 198.856 111.496 196.075C107.11 194.505 102.455 197.573 100.026 201.076C99.0277 202.522 98.2256 204.094 97.6383 205.749" stroke="black" stroke-width="4.47" stroke-miterlimit="10"/>
<path d="M154.884 537.113C135.828 483.007 144.864 423.899 144.864 423.899L116.76 424.782L42.6246 427.133C38.2702 427.277 33.9362 426.485 29.9149 424.809C25.893 423.133 22.2781 420.614 19.3144 417.422C16.35 414.229 14.106 410.438 12.7334 406.303C11.3607 402.168 10.8916 397.787 11.3577 393.455L33.38 313.059" stroke="black" stroke-width="4.47" stroke-miterlimit="10"/>
<path d="M34.4481 309.134L36.3818 302.091L38.6258 294.106" stroke="black" stroke-width="4.47" stroke-miterlimit="10"/>
<path d="M40.5357 287.231L41.8189 282.618C43.5186 276.493 43.0978 269.973 40.6252 264.117L38.0769 258.029C36.4118 252.956 35.8925 250.503 37.9814 245.544C38.9697 243.204 40.3573 241.054 42.0815 239.188C47.1126 233.638 54.1967 230.88 61.4957 229.937C68.7947 228.994 76.8516 229.728 82.7242 234.461C86.7109 237.672 90.4827 245.317 87.8747 250.312C85.9828 253.947 81.9782 255.003 78.5704 253.702C77.378 253.256 76.3037 252.542 75.4312 251.614C71.4087 247.4 62.8982 246.481 59.9141 250.581" stroke="black" stroke-width="4.47" stroke-miterlimit="10"/>
<path d="M354.141 398.554C354.141 397.056 354.195 395.57 354.255 394.055V393.935C354.255 393.249 354.291 392.539 354.332 391.852" stroke="black" stroke-width="4.47" stroke-miterlimit="10"/>
<path d="M346.484 255.199C339.495 258.935 330.913 268.329 345.392 290.411C350.166 297.686 355.209 305.552 355.919 314.534C356.581 323.509 356.793 332.513 356.552 341.51" stroke="black" stroke-width="4.47" stroke-miterlimit="10"/>
<path d="M278.704 433.629L295.32 436.577L296.513 436.786L304.135 438.147L381.845 451.951C385.692 452.65 389.638 452.598 393.465 451.796C400.11 450.396 406.098 446.818 410.478 441.628C414.858 436.439 417.379 429.935 417.642 423.149L406.159 329.145L403.617 309.081C402.81 302.77 404.165 296.373 407.46 290.932L410.868 285.262C410.868 285.262 416.8 276.608 406.422 275.976C400.83 275.647 395.011 277.169 389.956 279.461C387.067 280.744 383.009 283.042 381.38 286.199C380.717 287.394 380.493 288.783 380.747 290.126C381.941 296.291 389.699 298.893 394.82 296.291" stroke="black" stroke-width="4.47" stroke-miterlimit="10"/>
<path d="M409.847 276.423C409.847 276.423 415.714 272.932 411.745 264.344C410.337 261.288 406.07 259.169 396.885 259.754C372.415 261.312 362.831 286.473 381.409 286.199" stroke="black" stroke-width="4.47" stroke-miterlimit="10"/>
<path d="M404.273 259.712C409.704 252.228 400.095 245.067 393.095 245.311C386.494 245.544 379.816 247.985 374.033 251.041C365.988 255.29 355.603 263.52 358.575 273.934C359.453 277.002 366.394 280.792 370.929 278.601" stroke="black" stroke-width="4.47" stroke-miterlimit="10"/>
<path d="M358.062 270.233C358.062 270.233 358.062 270.233 358.062 270.269C354.272 277.508 336.332 270.269 346.46 255.199C348.826 251.865 351.663 248.892 354.881 246.372C380.138 225.735 385.784 246.719 385.748 245.471" stroke="black" stroke-width="4.47" stroke-miterlimit="10"/>
<path d="M369.056 278.769C369.056 278.769 378.294 285.333 375.459 296.273" stroke="black" stroke-width="4.47" stroke-miterlimit="10"/>
<path d="M43.7943 226.255C43.1975 223.904 43.2751 220.937 44.6716 217.142C46.6829 211.687 52.5435 208.106 58.249 205.749C60.3319 204.889 62.4267 204.179 64.2171 203.624C70.4419 201.714 77.2753 200.7 83.9119 201.368C86.1487 201.585 88.3599 202.008 90.5185 202.633C93.0084 203.351 95.3909 204.399 97.6027 205.749C103.058 209.103 106.752 214.194 108.972 220.878C110.906 226.643 111.652 233.494 106.865 237.093" stroke="black" stroke-width="4.47" stroke-miterlimit="10"/>
<path d="M107.301 313.807L105.54 322.329C105.482 322.616 105.367 322.888 105.201 323.129C105.035 323.37 104.822 323.575 104.576 323.732C104.329 323.889 104.053 323.995 103.765 324.043C103.476 324.091 103.181 324.081 102.897 324.012C96.1227 322.407 90.1845 320.915 83.9419 319.477C80.8444 318.748 77.6455 318.062 74.2556 317.352C61.0065 314.613 47.7752 311.521 34.4544 309.134C28.8862 308.137 23.312 307.272 17.7019 306.621C14.5627 306.257 11.3817 306.108 8.22462 305.875C7.53471 305.86 6.86568 305.633 6.30886 305.225C3.32481 303.04 6.30886 295.938 6.95938 292.99C6.95938 292.954 6.95938 292.913 6.95938 292.877C7.41892 290.615 20.4174 291.265 38.5903 294.1C44.9284 295.097 51.8932 296.338 59.1922 297.836C69.4513 299.943 78.7019 302.217 86.2634 304.401C87.5645 304.783 88.8118 305.147 89.9995 305.511C89.9995 305.511 89.9995 305.511 90.0353 305.511C91.5452 305.989 92.9656 306.448 94.3025 306.908C102.747 309.79 107.611 312.297 107.301 313.807Z" fill="#4313E1"/>
<path d="M107.301 313.807L105.54 322.329C105.482 322.616 105.367 322.888 105.201 323.129C105.035 323.37 104.822 323.575 104.576 323.732C104.329 323.889 104.053 323.995 103.765 324.043C103.476 324.091 103.181 324.081 102.897 324.012C96.1227 322.407 90.1845 320.915 83.9419 319.477C80.8444 318.748 77.6455 318.062 74.2556 317.352C61.0065 314.613 47.7752 311.521 34.4544 309.134C28.8862 308.137 23.312 307.272 17.7019 306.621C14.5627 306.257 11.3817 306.108 8.22462 305.875C7.53471 305.86 6.86568 305.633 6.30886 305.225C3.32481 303.04 6.30886 295.938 6.95938 292.99C6.95938 292.954 6.95938 292.913 6.95938 292.877C7.41892 290.615 20.4174 291.265 38.5903 294.1C44.9284 295.097 51.8932 296.338 59.1922 297.836C69.4513 299.943 78.7019 302.217 86.2634 304.401C87.5645 304.783 88.8118 305.147 89.9995 305.511C89.9995 305.511 89.9995 305.511 90.0353 305.511C91.5452 305.989 92.9656 306.448 94.3025 306.908C102.747 309.79 107.611 312.297 107.301 313.807Z" stroke="black" stroke-width="4.47" stroke-miterlimit="10"/>
<path d="M88.7159 245.722L90.4109 249.118C92.5415 251.452 95.4897 252.926 99.5301 251.911C107.456 249.942 108.238 243.371 106.859 237.092C106.622 235.952 106.315 234.828 105.94 233.726C104.084 228.188 101.213 223.73 97.1906 220.477C94.3325 218.163 91.0298 216.461 87.4865 215.476C84.5997 214.642 81.6211 214.167 78.6179 214.062C72.7173 213.858 66.8255 214.665 61.197 216.449C55.5691 218.174 47.8703 221.14 43.7762 226.23C42.8589 227.349 42.1331 228.611 41.6276 229.966C40.3684 233.392 40.1535 236.167 40.5952 238.411L41.0189 240.5" stroke="black" stroke-width="4.47" stroke-miterlimit="10"/>
<path d="M90.9123 202.765L92.8817 194.607L95.2212 184.998C95.5513 183.612 95.593 182.174 95.343 180.772C95.0929 179.37 94.5564 178.034 93.7674 176.848C92.9784 175.662 91.9537 174.651 90.7571 173.879C89.5605 173.106 88.2177 172.589 86.8122 172.358C86.2619 172.267 85.7051 172.223 85.1471 172.227C82.7855 172.221 80.4932 173.025 78.6532 174.506C76.8138 175.986 75.5373 178.053 75.0371 180.361C74.4403 183.142 73.6943 186.526 72.8707 190.34C72.0889 193.956 71.2235 197.919 70.3044 202.097" stroke="black" stroke-width="4.47" stroke-miterlimit="10"/>
<path d="M67.5354 214.92V214.903" stroke="black" stroke-width="2.98" stroke-miterlimit="10"/>
<path d="M59.932 250.574C59.3352 253.504 58.995 255.348 59.0129 255.665C59.0129 255.665 59.0129 255.665 59.0129 255.706C56.4288 273.073 48.8254 282.36 40.5536 287.2C35.4945 290.078 29.8439 291.763 24.0339 292.124" stroke="black" stroke-width="4.47" stroke-miterlimit="10"/>
<path d="M78.618 253.695C78.618 253.695 64.7601 290.632 86.4303 303.726C87.5761 304.414 88.7733 305.012 90.0111 305.516C91.4942 306.132 93.025 306.625 94.5887 306.99" stroke="black" stroke-width="4.47" stroke-miterlimit="10"/>
<path d="M104.394 323.839C104.394 323.839 104.49 325.546 83.5596 322.389C76.3979 321.315 66.7714 319.668 53.8266 317.179C45.71 315.627 38.966 314.249 33.3799 313.061C4.02879 306.782 6.30264 305.231 6.30264 305.231" stroke="black" stroke-width="4.47" stroke-miterlimit="10"/>
<path d="M163.365 116.215C158.901 139.878 144.195 164.789 126.363 180.778C119.07 187.343 110.589 191.92 101.434 193.722C98.6249 194.294 95.7661 194.588 92.8997 194.6L95.2213 184.997C95.7912 182.632 95.5131 180.142 94.4359 177.961C93.358 175.779 91.5497 174.046 89.3248 173.061C88.5209 172.716 87.68 172.465 86.8182 172.315C86.2661 172.224 85.7069 172.179 85.1471 172.184C82.7808 172.18 80.4848 172.989 78.6437 174.477C76.8031 175.964 75.5301 178.039 75.0372 180.354C74.6731 182.097 74.2315 184.072 73.754 186.232C51.0753 171.241 41.2398 139.174 42.332 113.135C42.6781 104.481 43.1556 93.0884 46.9453 84.2795C48.2243 81.1403 50.1335 78.2965 52.5553 75.9241C63.2979 65.8142 78.0033 61.2008 93.1682 60.5085C104.808 61.0576 116.263 63.6305 127.019 68.1119C147.072 76.5806 167.996 91.5964 163.365 116.215Z" fill="#4313E1"/>
<path d="M163.365 116.215C158.901 139.878 144.195 164.789 126.363 180.778C119.07 187.343 110.589 191.92 101.434 193.722L103.553 184.997C103.883 183.612 103.925 182.173 103.674 180.77C103.424 179.369 102.888 178.033 102.099 176.847C101.31 175.661 100.285 174.65 99.0886 173.878C97.892 173.106 96.5492 172.588 95.1437 172.357C94.5934 172.265 94.0366 172.222 93.4786 172.225C92.0397 172.219 90.6157 172.518 89.3009 173.103C88.497 172.758 87.6561 172.507 86.7943 172.357C86.2423 172.265 85.683 172.221 85.1232 172.225C82.7664 172.225 80.4807 173.031 78.6461 174.51C76.8109 175.989 75.5373 178.051 75.0372 180.354C74.6731 182.097 74.2315 184.072 73.754 186.232C51.0753 171.241 41.2398 139.174 42.332 113.135C42.6781 104.481 43.1556 93.0884 46.9453 84.2795C48.2243 81.1403 50.1335 78.2965 52.5553 75.9241C63.2979 65.8142 78.0033 61.2008 93.1682 60.5085C104.808 61.0576 116.263 63.6305 127.019 68.1119C147.072 76.5806 167.996 91.5964 163.365 116.215Z" fill="#4313E1"/>
<path d="M163.365 116.221C158.907 139.884 144.201 164.795 126.363 180.784C116.814 189.342 105.289 194.546 92.8818 194.606L95.2213 184.997C95.5513 183.612 95.5931 182.173 95.343 180.771C95.0923 179.369 94.5564 178.033 93.7674 176.847C92.9784 175.661 91.9537 174.65 90.7571 173.878C89.5605 173.105 88.2177 172.588 86.8122 172.357C86.262 172.265 85.7051 172.222 85.1471 172.225C82.7855 172.219 80.4932 173.025 78.6532 174.505C76.8133 175.985 75.5373 178.052 75.0372 180.36C74.4403 183.141 73.6943 186.525 72.8707 190.339C44.8804 177.931 32.795 141.878 34.0065 113.141C34.3467 104.488 34.8241 93.0944 38.6198 84.2855C39.8964 81.1451 41.8062 78.3007 44.2298 75.9302C65.3629 56.0564 101.726 57.4291 127.019 68.1179C147.066 76.5867 167.996 91.5964 163.365 116.221Z" stroke="black" stroke-width="4.47" stroke-miterlimit="10"/>
<path d="M163.246 117.075C168.074 122.852 172.604 132.532 168.617 146.915C168.004 149.185 167.127 151.374 166.003 153.438C159.665 164.778 147.43 166.765 139.182 166.646" stroke="black" stroke-width="4.47" stroke-miterlimit="10"/>
<path d="M159.569 129.172C163.747 134.173 167.608 142.093 165.997 153.45C165.741 155.274 165.364 157.078 164.869 158.851C158.901 180.289 136.992 179.233 129.472 178.188" stroke="black" stroke-width="4.47" stroke-miterlimit="10"/>
<path d="M42.5647 158.736C37.8976 159.697 11.4888 154.278 11.1665 132.262C11.0716 129.278 11.6344 126.309 12.8137 123.566C16.9496 114.244 27.8593 111.296 34.1437 110.335" stroke="black" stroke-width="4.47" stroke-miterlimit="10"/>
<path d="M37.8139 147.702C33.0395 147.994 7.66909 138.94 10.4204 117.091C10.7486 114.132 11.7202 111.28 13.2672 108.736C18.6385 100.076 29.8823 98.6856 36.2324 98.5901" stroke="black" stroke-width="4.47" stroke-miterlimit="10"/>
<path d="M144.864 423.906C144.864 423.906 145.407 419.758 148.391 410.388" stroke="black" stroke-width="4.47" stroke-miterlimit="10"/>
<path d="M243.015 359.222V359.264C242.8 373.534 232.869 376.769 224.711 378.32C204.604 382.164 190.645 367.5 191.26 354.729" stroke="black" stroke-width="4.47" stroke-miterlimit="10"/>
<path d="M195.074 280.708C195.074 280.708 195.67 287.273 189.959 295.742C188.431 298.021 193.719 298.958 194.978 299.382" stroke="black" stroke-width="4.47" stroke-miterlimit="10"/>
<path d="M218.101 294.915C221.493 289.04 220.371 282.043 215.595 279.286C210.819 276.529 204.199 279.056 200.807 284.931C197.416 290.805 198.537 297.803 203.313 300.56C208.088 303.317 214.709 300.79 218.101 294.915Z" stroke="black" stroke-width="4.47" stroke-miterlimit="10"/>
<path d="M194.409 287.316C197.8 281.414 196.661 274.395 191.863 271.638C187.066 268.88 180.427 271.429 177.036 277.331C173.644 283.232 174.784 290.252 179.581 293.009C184.379 295.766 191.017 293.217 194.409 287.316Z" stroke="black" stroke-width="4.48539" stroke-miterlimit="10"/>
<path d="M186.145 274.781C187.142 274.772 188.123 275.03 188.986 275.527C189.789 276.02 190.47 276.689 190.978 277.483C191.485 278.277 191.806 279.176 191.916 280.111C192.241 282.445 191.754 284.819 190.538 286.837C188.747 289.911 185.763 291.892 182.809 291.892C181.813 291.904 180.832 291.648 179.968 291.152C179.166 290.658 178.486 289.989 177.979 289.196C177.471 288.402 177.15 287.504 177.038 286.568C176.714 284.233 177.2 281.857 178.417 279.836C180.207 276.769 183.191 274.781 186.145 274.781ZM186.145 272.991C182.696 272.991 179.037 275.187 176.877 278.959C173.893 284.127 174.878 290.298 179.079 292.686C180.213 293.339 181.5 293.679 182.809 293.67C186.259 293.67 189.917 291.468 192.084 287.702C195.068 282.54 194.077 276.363 189.875 273.976C188.74 273.326 187.453 272.989 186.145 272.997V272.991Z" fill="white"/>
<path d="M192.081 287.711C195.064 282.544 194.078 276.391 189.878 273.966C185.68 271.542 179.857 273.765 176.875 278.932C173.892 284.098 174.878 290.252 179.076 292.676C183.275 295.101 189.097 292.878 192.081 287.711Z" fill="#4313E1"/>
<path d="M218.362 293.217C221.346 288.026 220.344 281.853 216.126 279.429C211.908 277.005 206.07 279.247 203.087 284.438C200.104 289.628 201.106 295.801 205.324 298.225C209.542 300.649 215.379 298.407 218.362 293.217Z" fill="#4313E1"/>
<path d="M194.996 282.874C194.996 282.874 196.786 280.206 200.827 284.927" stroke="black" stroke-width="4.47" stroke-miterlimit="10"/>
<path d="M212.564 289.395C213.536 288.122 213.449 286.421 212.37 285.597C211.29 284.773 209.627 285.137 208.655 286.41C207.683 287.684 207.77 289.384 208.85 290.208C209.929 291.032 211.592 290.668 212.564 289.395Z" fill="#353642"/>
<path d="M192.43 283.599C193.402 282.326 193.315 280.626 192.236 279.802C191.156 278.978 189.493 279.342 188.521 280.615C187.549 281.889 187.636 283.588 188.716 284.413C189.795 285.237 191.458 284.873 192.43 283.599Z" fill="#353642"/>
<path d="M207.248 310.021C195.026 320.406 188.61 311.155 188.61 311.155" stroke="black" stroke-width="4.47" stroke-miterlimit="10"/>
<path d="M77.7588 369.716C88.3283 367.824 98.9933 366.344 109.467 364.41C114.576 363.472 119.68 362.56 124.781 361.677C147.508 357.81 170.199 354.802 193.176 354.706C194.285 354.707 195.358 354.306 196.194 353.578C197.032 352.849 197.577 351.843 197.729 350.743L198.153 347.562L200.833 327.73" stroke="black" stroke-width="4.47" stroke-miterlimit="10"/>
<path d="M238.706 329.317V329.221V328.744" stroke="black" stroke-width="4.47" stroke-miterlimit="10"/>
<path d="M6.26086 537.114H137.171H151.978H278.818H302.583H461" stroke="black" stroke-width="4.47" stroke-miterlimit="10"/>
<path d="M296.508 436.785C296.508 436.785 299.325 464.8 303.514 492.157C306.271 510.157 309.643 527.865 313.165 537.115" stroke="black" stroke-width="4.47" stroke-miterlimit="10"/>
<path d="M303.514 492.156L304.069 492.007L304.916 491.774C309.392 490.509 313.91 489.387 318.488 488.444C319.216 488.288 319.944 488.157 320.672 488.02C325.777 487.079 330.952 486.574 336.141 486.51C338.439 486.51 340.641 486.432 342.748 486.319H342.879C351.706 485.818 359.083 484.403 365.248 482.296C375.316 478.871 382.114 473.607 386.614 467.513C386.649 467.478 386.667 467.418 386.709 467.382C389.983 462.84 392.266 457.662 393.411 452.181C393.402 452.156 393.402 452.129 393.411 452.104L393.471 451.817" stroke="black" stroke-width="4.47" stroke-miterlimit="10"/>
</svg>
