<svg width="505" height="500" viewBox="0 0 505 500" fill="none" xmlns="http://www.w3.org/2000/svg">
<path d="M24.0694 281.001C23.6813 276.067 23.3819 271.126 23.1435 266.197" stroke="black" stroke-width="4.05" stroke-miterlimit="10"/>
<path d="M304.701 458.5H163.859" stroke="#CCDDE2" stroke-width="4.05" stroke-miterlimit="10"/>
<path d="M345.82 105.671C345.82 105.671 387.326 86.0713 422.539 124.312C434.044 136.809 441.896 153.393 442.45 170.504C442.702 178.853 441.356 187.172 438.486 195.016C435.564 203.022 430.318 208.323 426.288 215.453C420.105 226.448 433.03 228.394 439.966 233.723C444.576 237.294 448.949 241.161 453.057 245.3C462.315 254.546 470.462 264.841 477.331 275.978C490.933 298.16 499.124 323.232 501.239 349.166C503.329 374.737 501.727 402.504 488.614 425.22C482.304 436.16 472.801 446.888 461.113 451.989C445.588 458.759 428.151 458.504 411.561 458.504H376.259" stroke="#CCDDE2" stroke-width="4.05" stroke-miterlimit="10"/>
<path d="M172.802 361.192C171.41 371.094 169.337 382.455 167.047 393.827L164.346 394.598C155.705 397.025 146.528 396.756 138.043 393.827L141.581 381.806L120.046 319.153C120.046 319.153 136.507 313.83 150.025 309.877L151.577 309.811C158.963 311.369 174.182 317.218 174.659 339.125C174.693 340.178 174.659 341.287 174.659 342.496C176.805 349.565 175.951 355.797 172.802 361.192Z" fill="#4313E1"/>
<path d="M122.114 122.7C121.901 122.159 121.486 121.724 120.956 121.487C120.426 121.249 119.825 121.229 119.28 121.43C118.975 121.522 118.693 121.679 118.454 121.89C117.6 122.583 117.406 123.798 117.379 124.951C117.301 127.585 117.151 130.224 116.957 132.846C116.957 133.024 116.929 133.223 116.929 133.401C116.807 135.513 116.896 138.075 115.998 139.916C115.94 140.056 115.842 140.176 115.715 140.259C115.416 140.398 115.1 140.099 114.906 139.827C114.351 139.017 113.797 138.225 113.242 137.398C112.804 136.739 112.311 136.023 111.546 135.813C110.409 135.497 109.328 136.5 108.701 137.52C106.678 140.847 106.484 146.297 109.616 149.086C112.749 151.875 105.735 157.359 100.712 159.665C99.8705 160.138 98.9895 160.535 98.078 160.852C98.0336 160.852 99.8911 161.268 99.8467 161.284C95.9378 162.645 91.8659 163.482 87.7374 163.774C82.836 164.101 78.0566 163.486 74.5802 161.356C74.7299 160.802 75.9164 156.921 75.9885 156.366C76.2436 154.431 76.4265 152.513 76.543 150.567C76.7537 146.913 76.737 143.254 76.5984 139.611C76.0939 126.503 78.4281 115.492 83.8396 113.812C84.2671 113.684 84.6768 113.503 85.0594 113.274C87.499 111.927 88.802 109.082 87.682 106.399C87.6043 106.216 87.5156 106.039 87.438 105.844C87.3504 105.653 87.2506 105.468 87.1386 105.29C97.7065 102.008 104.881 104.286 112.133 108.256C113.513 109.359 114.811 110.562 116.015 111.855C118.853 114.936 120.941 118.633 122.114 122.656V122.7Z" fill="#4313E1"/>
<path d="M376.148 248.721H340.109V162.581C340.109 162.581 333.455 237.427 315.225 279.831H203.607C216.765 271.47 227.316 258.84 234.341 245.245C237.113 239.866 241.549 231.882 248.923 233.978C250.675 234.471 253.253 234.788 254.556 233.185C255.006 232.57 255.261 231.835 255.288 231.073C255.92 223.222 247.781 216.612 241.072 214.528C234.363 212.443 226.523 213.419 221.184 218.292C217.336 221.813 214.924 226.487 212.107 230.818C210.417 233.384 208.413 235.729 206.141 237.798C209.036 220.222 211.614 203.422 211.985 197.24C219.043 191.668 224.228 182.58 226.068 174.54C228.092 165.758 229.877 157.169 233.021 148.947L258.753 149.036C259.723 149.036 260.652 148.651 261.337 147.965C262.023 147.28 262.407 146.351 262.407 145.382V102.644C262.409 101.684 262.03 100.763 261.353 100.081C260.677 99.3991 259.758 99.0132 258.798 99.0071L241.277 98.8574C247.644 97.5267 254.101 96.6651 260.594 96.2792C260.727 96.2792 260.849 96.2792 260.966 96.2792C265.241 95.9964 272.731 95.8744 277.045 95.8301C271.905 98.6024 268.728 104.491 269.283 109.691C269.38 110.799 269.663 111.883 270.12 112.896C274.511 122.544 286.077 125.394 295.625 122.588C306.248 119.489 314.055 109.719 313.589 98.4804C320.242 99.4562 326.829 100.694 333.35 102.195C343.258 104.474 352.922 107.546 360.756 114.244C367.587 120.06 373.376 127.55 376.054 136.017C387.553 172.217 384.016 212.615 376.148 248.721Z" fill="#2E2E2E"/>
<path d="M212.274 197.241C211.464 210.47 209.379 223.688 207.117 236.873" stroke="black" stroke-width="4.05" stroke-miterlimit="10"/>
<path d="M233.309 148.947C230.16 157.17 228.38 165.758 226.357 174.541C224.499 182.553 219.326 191.668 212.273 197.24C206.352 201.914 199.1 204.115 191.337 201.166C180.925 197.196 177.271 185.719 175.995 175.6C174.338 163 174.237 150.244 175.696 137.62C177.165 140.885 183.17 150.821 201.794 148.21C202.294 148.583 202.895 148.798 203.519 148.825L233.309 148.947Z" fill="#2E2E2E"/>
<path d="M222.853 120.522C227.188 119.413 229.828 123.582 229.184 126.754C228.137 131.927 220.696 133.962 216.266 134.056C212.717 134.128 204.068 133.191 200.541 132.781" stroke="black" stroke-width="4.05" stroke-miterlimit="10"/>
<path d="M199.083 123.083C204.447 124.633 210.127 124.727 215.539 123.354C220.091 122.184 225.47 120.028 227.854 115.697C229.245 113.18 228.137 109.166 225.231 108.279C221.877 107.264 218.772 110.602 215.733 111.445C213.773 111.979 211.772 112.35 209.751 112.554C209.196 112.615 208.675 112.659 208.137 112.703C205.308 112.93 202.464 112.91 199.638 112.642C199.337 112.642 199.044 112.547 198.8 112.372C198.556 112.195 198.374 111.947 198.28 111.661C198.185 111.376 198.183 111.068 198.274 110.782C198.364 110.495 198.543 110.244 198.784 110.064L199.294 109.693" stroke="black" stroke-width="4.05" stroke-miterlimit="10"/>
<path d="M233.31 148.947C230.16 157.169 228.38 165.758 226.357 174.54C222.941 189.283 208.376 207.652 191.337 201.154C180.925 197.184 177.271 185.707 175.996 175.588C174 159.919 174.166 143.823 177.105 128.288C179.544 115.491 183.874 102.051 196.327 95.7577L202.171 92.8357C203.565 92.1316 205.179 92.0007 206.668 92.4709C208.157 92.9416 209.403 93.9762 210.139 95.353C210.587 96.209 210.825 97.1594 210.832 98.1252C210.838 98.2666 210.826 98.408 210.799 98.5466" stroke="black" stroke-width="4.05" stroke-miterlimit="10"/>
<path d="M352.007 269.22C355.018 269.127 358.031 269.203 361.034 269.447C363.484 269.647 366.024 269.763 368.358 270.678C370.282 271.443 372.289 273.268 372.189 275.497C372.006 279.866 366.284 279.832 363.146 279.832" stroke="black" stroke-width="4.05" stroke-miterlimit="10"/>
<path opacity="0.54" d="M298.159 265.056L324.251 198.205C324.574 196.91 324.597 195.557 324.319 194.251C324.04 192.945 323.468 191.72 322.644 190.669C321.821 189.618 320.769 188.768 319.568 188.185C318.366 187.602 317.048 187.301 315.713 187.305H212.096C209.773 187.31 207.521 188.096 205.699 189.536C203.877 190.976 202.592 192.986 202.049 195.245L173.451 262.078C173.141 263.369 173.127 264.712 173.411 266.008C173.695 267.305 174.269 268.52 175.091 269.562C175.912 270.604 176.959 271.447 178.153 272.027C179.347 272.605 180.657 272.906 181.984 272.907H288.106C290.417 272.905 292.661 272.132 294.482 270.71C296.304 269.288 297.597 267.298 298.159 265.056Z" fill="white"/>
<path d="M298.159 265.056L324.251 198.205C324.574 196.91 324.597 195.557 324.319 194.251C324.04 192.945 323.468 191.72 322.644 190.669C321.821 189.618 320.769 188.768 319.568 188.185C318.366 187.602 317.048 187.301 315.713 187.305H212.096C209.773 187.31 207.521 188.096 205.699 189.536C203.877 190.976 202.592 192.986 202.049 195.245L173.451 262.078C173.141 263.369 173.127 264.712 173.411 266.008C173.695 267.305 174.269 268.52 175.091 269.562C175.912 270.604 176.959 271.447 178.153 272.027C179.347 272.605 180.657 272.906 181.984 272.907H288.106C290.417 272.905 292.661 272.132 294.482 270.71C296.304 269.288 297.597 267.298 298.159 265.056Z" fill="#3FBDF1"/>
<path d="M298.159 265.056L324.251 198.205C324.574 196.91 324.597 195.557 324.319 194.251C324.04 192.945 323.468 191.72 322.644 190.669C321.821 189.618 320.769 188.768 319.568 188.185C318.366 187.602 317.048 187.301 315.713 187.305H212.096C209.773 187.31 207.521 188.096 205.699 189.536C203.877 190.976 202.592 192.986 202.049 195.245L173.451 262.078C173.141 263.369 173.127 264.712 173.411 266.008C173.695 267.305 174.269 268.52 175.091 269.562C175.912 270.604 176.959 271.447 178.153 272.027C179.347 272.605 180.657 272.906 181.984 272.907H288.106C290.417 272.905 292.661 272.132 294.482 270.71C296.304 269.288 297.597 267.298 298.159 265.056Z" stroke="black" stroke-width="4.05" stroke-linecap="square" stroke-linejoin="round"/>
<path d="M294.338 262.35L318.413 200.678C318.711 199.484 318.733 198.238 318.478 197.035C318.223 195.831 317.697 194.701 316.939 193.732C316.181 192.763 315.213 191.978 314.107 191.439C313.001 190.9 311.787 190.62 310.556 190.62H214.941C212.794 190.62 210.709 191.341 209.024 192.67C207.338 194 206.149 195.857 205.648 197.944L179.317 259.605C179.033 260.795 179.022 262.034 179.286 263.228C179.549 264.422 180.079 265.542 180.837 266.502C181.594 267.463 182.559 268.239 183.66 268.773C184.76 269.307 185.967 269.584 187.19 269.586H285.068C287.199 269.587 289.27 268.876 290.95 267.565C292.63 266.253 293.822 264.417 294.338 262.35Z" fill="#4313E1"/>
<path d="M221.838 201.987C223.108 200.085 225.165 199.214 226.473 200.096C227.782 200.977 227.782 203.195 226.517 205.086C226.318 205.377 226.096 205.652 225.852 205.907L235.245 225.739C236.742 224.741 238.388 224.492 239.575 225.279C239.955 225.557 240.27 225.914 240.498 226.325C240.726 226.737 240.861 227.194 240.894 227.663L247.315 225.501L252.926 223.61L254.756 223.011C254.988 222.322 255.308 221.666 255.71 221.06C257.489 218.382 260.4 217.179 262.213 218.398C264.026 219.618 264.049 222.695 262.319 225.351L273.02 239.961C275.354 238.048 278.098 237.455 280 238.719C282.589 240.444 282.628 244.94 280.089 248.755C279.984 248.91 279.867 249.032 279.762 249.176L286.881 258.912L286.947 259.007C287.311 259.556 287.442 260.228 287.311 260.873C287.18 261.519 286.798 262.086 286.249 262.45C285.699 262.814 285.029 262.945 284.383 262.814C283.737 262.683 283.169 262.301 282.806 261.751L276.485 252.209C274.483 253.368 272.354 253.59 270.796 252.553C268.323 250.889 268.201 246.742 270.408 243.044L260.167 227.586C258.654 228.611 256.985 228.872 255.787 228.079C255.122 227.607 254.668 226.892 254.523 226.089L253.758 226.299L248.052 227.857L240.745 229.831C240.517 230.707 240.142 231.537 239.636 232.288C237.856 234.96 234.945 236.169 233.132 234.949C231.319 233.729 231.291 230.596 233.071 227.918C233.332 227.525 233.625 227.154 233.947 226.81L225.004 206.605C223.928 207.343 222.736 207.531 221.882 206.96C220.596 206.106 220.574 203.866 221.838 201.987Z" fill="#D7E8F0"/>
<path d="M289.875 203.05H303.736C304.37 203.049 304.989 202.864 305.52 202.517C306.051 202.171 306.469 201.678 306.725 201.098C306.801 200.923 306.842 200.735 306.847 200.544C306.845 200.165 306.694 199.803 306.426 199.536C306.158 199.269 305.795 199.119 305.416 199.119H290.685C291.378 200.277 291.028 201.902 289.875 203.05Z" fill="#D7E8F0"/>
<path d="M280.915 201.631C280.917 202.007 281.067 202.369 281.334 202.634C281.601 202.901 281.963 203.05 282.34 203.05H289.875C291.028 201.903 291.377 200.278 290.684 199.108H284.031C283.398 199.108 282.778 199.292 282.248 199.637C281.717 199.983 281.298 200.475 281.042 201.054C280.961 201.236 280.917 201.432 280.915 201.631Z" fill="#3FBDF1"/>
<path d="M284.38 203.052C284.421 203.128 284.467 203.2 284.519 203.268C285.506 204.621 287.652 204.748 289.315 203.534C289.512 203.388 289.697 203.227 289.869 203.052C291.023 201.904 291.372 200.279 290.679 199.109C290.643 199.033 290.598 198.96 290.546 198.893C289.564 197.535 287.419 197.418 285.755 198.622C285.558 198.77 285.373 198.933 285.201 199.109C284.048 200.263 283.698 201.876 284.38 203.052Z" fill="white"/>
<path d="M277.455 210.331C277.458 210.708 277.61 211.069 277.878 211.335C278.146 211.601 278.508 211.75 278.886 211.75H293.429C292.725 210.575 293.074 208.978 294.227 207.808H280.549C279.915 207.809 279.294 207.993 278.763 208.34C278.231 208.686 277.812 209.179 277.555 209.76C277.485 209.942 277.451 210.136 277.455 210.331Z" fill="#3FBDF1"/>
<path d="M293.407 211.75H300.249C300.881 211.75 301.5 211.567 302.03 211.222C302.561 210.877 302.98 210.387 303.237 209.809C303.316 209.634 303.359 209.446 303.365 209.255C303.365 209.067 303.329 208.881 303.258 208.708C303.186 208.535 303.082 208.378 302.949 208.245C302.816 208.113 302.659 208.008 302.486 207.937C302.313 207.865 302.127 207.829 301.94 207.83H294.205C293.052 208.961 292.703 210.574 293.407 211.75Z" fill="#D7E8F0"/>
<path d="M293.407 211.75C293.439 211.827 293.48 211.9 293.529 211.967C294.51 213.325 296.656 213.447 298.319 212.238C298.516 212.09 298.701 211.926 298.874 211.75C300.016 210.597 300.365 208.978 299.683 207.808C299.643 207.733 299.598 207.661 299.55 207.592C298.558 206.239 296.412 206.117 294.749 207.331C294.552 207.476 294.366 207.635 294.194 207.808C293.052 208.961 292.703 210.575 293.407 211.75Z" fill="white"/>
<path d="M288.544 220.389H297.249C297.883 220.388 298.503 220.204 299.034 219.858C299.565 219.513 299.985 219.021 300.243 218.443C300.319 218.267 300.361 218.079 300.365 217.888C300.365 217.508 300.214 217.144 299.947 216.875C299.678 216.606 299.315 216.453 298.935 216.452H289.37C290.058 217.622 289.703 219.236 288.544 220.389Z" fill="#3FBDF1"/>
<path d="M274.45 218.975C274.451 219.162 274.488 219.346 274.56 219.518C274.632 219.689 274.737 219.846 274.87 219.977C275.002 220.108 275.159 220.212 275.332 220.283C275.504 220.354 275.689 220.39 275.875 220.389H288.544C289.686 219.235 290.041 217.616 289.354 216.441H277.566C276.931 216.44 276.31 216.626 275.779 216.973C275.248 217.321 274.83 217.816 274.578 218.398C274.496 218.579 274.452 218.776 274.45 218.975Z" fill="#D7E8F0"/>
<path d="M283.066 220.389C283.107 220.465 283.153 220.537 283.205 220.605C284.186 221.963 286.326 222.08 287.995 220.871C288.192 220.725 288.378 220.564 288.55 220.389C289.692 219.235 290.047 217.616 289.359 216.441C289.323 216.364 289.278 216.292 289.226 216.225C288.234 214.877 286.094 214.761 284.425 215.964C284.229 216.11 284.044 216.269 283.87 216.441C282.728 217.594 282.373 219.219 283.066 220.389Z" fill="white"/>
<path d="M232.273 261.129H240.983C241.616 261.128 242.235 260.943 242.765 260.598C243.296 260.253 243.714 259.761 243.972 259.183C244.048 259.008 244.089 258.819 244.094 258.628C244.094 258.249 243.943 257.885 243.675 257.617C243.406 257.349 243.042 257.198 242.663 257.198H233.099C233.77 258.362 233.415 259.976 232.273 261.129Z" fill="#3FBDF1"/>
<path d="M197.708 259.716C197.709 259.902 197.746 260.086 197.818 260.258C197.89 260.43 197.995 260.586 198.128 260.717C198.26 260.849 198.417 260.953 198.589 261.024C198.762 261.094 198.947 261.13 199.133 261.129H232.273C233.415 259.976 233.77 258.357 233.082 257.187H200.824C200.19 257.187 199.57 257.371 199.039 257.717C198.508 258.064 198.09 258.558 197.836 259.139C197.756 259.321 197.713 259.517 197.708 259.716Z" fill="#D7E8F0"/>
<path d="M226.778 261.13C226.819 261.206 226.865 261.278 226.917 261.347C227.898 262.705 230.038 262.821 231.707 261.618C231.903 261.469 232.088 261.306 232.262 261.13C233.404 259.977 233.759 258.358 233.071 257.188C233.035 257.111 232.99 257.038 232.938 256.972C231.946 255.619 229.805 255.503 228.136 256.706C227.939 256.852 227.754 257.013 227.582 257.188C226.445 258.336 226.085 259.96 226.778 261.13Z" fill="white"/>
<path d="M13.0802 282.483C13.0802 282.483 -5.21684 365.135 41.8508 382.401C88.9184 399.667 216.06 383.449 163.221 323.812C110.381 264.175 13.0802 282.483 13.0802 282.483Z" fill="#2E2E2E"/>
<path d="M241.46 98.8582C247.857 97.5237 254.343 96.6587 260.866 96.2689C261.005 96.2689 261.121 96.2689 261.243 96.2689C265.529 95.9862 273.036 95.8642 277.322 95.8198" stroke="black" stroke-width="4.05" stroke-miterlimit="10"/>
<path d="M209.75 112.537C209.706 112.565 209.679 112.598 209.634 112.626" stroke="black" stroke-width="4.05" stroke-miterlimit="10"/>
<path d="M282.695 77.7881C279.423 79.5069 275.664 78.3426 274.223 75.415" stroke="black" stroke-width="4.05" stroke-miterlimit="10"/>
<path d="M263.705 36.0099C263.557 38.5538 264.21 41.0799 265.571 43.2334C266.933 45.3874 268.934 47.0608 271.295 48.0194C271.795 47.1029 272.51 46.3228 273.38 45.7462C277.056 43.3676 276.402 49.7216 286.382 48.0471C300.216 45.7129 303.742 50.5311 303.742 50.5311C304.047 50.9525 303.188 53.7026 303.066 54.2071C302.511 57.1624 301.957 60.101 301.452 63.0784C301.127 64.8821 300.798 66.6746 300.465 68.4566C300.717 68.2127 300.984 67.9848 301.264 67.7746C303.537 64.2261 306.869 60.2451 310.501 63.4943C311.23 64.1707 311.789 65.0107 312.131 65.945C313.794 70.4638 310.612 73.3691 306.891 75.1101C305.91 75.7039 304.867 76.1891 303.781 76.5572C303.964 77.6994 304.723 82.2515 304.723 82.2625C304.801 82.7283 314.038 77.034 314.809 76.341C316.202 74.4996 317.275 72.4382 317.986 70.242C320.858 61.1822 320.37 49.4721 314.587 42.0202C313.151 40.1739 314.11 39.1093 314.526 37.3129C314.546 37.2159 314.537 37.1155 314.499 37.0246C314.461 36.9331 314.397 36.8555 314.314 36.8011C314.232 36.7468 314.135 36.7185 314.037 36.7196C313.938 36.7213 313.842 36.7518 313.761 36.8084C310.645 38.7656 305.006 36.764 305.006 36.764C286.709 25.7745 277.333 32.5723 272.848 32.9161C271.029 33.0408 269.223 32.5269 267.741 31.4634C267.481 31.9779 267.085 32.4115 266.597 32.7181C266.108 33.0248 265.546 33.1928 264.969 33.2044L264.791 34.1581C264.656 34.8827 264.271 35.5375 263.705 36.0099Z" fill="#4313E1"/>
<path d="M271.306 48.0416C268.946 47.0835 266.944 45.4101 265.582 43.2561C264.221 41.102 263.568 38.5759 263.716 36.0321C263.77 35.0551 263.911 34.0848 264.137 33.1323L264.298 33.1656C264.517 33.2149 264.741 33.2315 264.963 33.2155C265.54 33.2044 266.103 33.0364 266.591 32.7298C267.08 32.4231 267.475 31.989 267.736 31.4745C267.889 31.1884 267.995 30.8795 268.052 30.5596L268.906 25.9189C268.906 25.9189 271.678 29.6725 276.114 29.3232C280.549 28.9739 289.925 22.1764 308.272 33.1711C308.272 33.1711 312.674 34.7957 315.79 32.8384C315.871 32.7824 315.967 32.7514 316.066 32.7503C316.165 32.7492 316.262 32.7774 316.344 32.8318C316.426 32.8861 316.491 32.9637 316.528 33.0547C316.566 33.1461 316.575 33.2465 316.555 33.343C316.14 35.1339 316.417 36.581 317.853 38.4273C323.636 45.8792 324.124 57.5893 321.252 66.6491C319.994 70.4038 317.761 73.7561 314.781 76.3631C314.01 77.0562 304.773 82.7504 304.696 82.2847C304.696 82.2847 303.936 77.7215 303.753 76.5794L303.709 76.3188L303.969 76.2411C304.957 75.9356 305.924 75.5653 306.864 75.1322C310.584 73.3912 313.783 70.4859 312.103 65.9671C311.761 65.0334 311.202 64.1934 310.473 63.5164C306.841 60.2673 303.509 64.2483 301.236 67.7968C300.796 68.4705 300.436 69.1923 300.16 69.9481C300.249 69.4602 300.338 68.9833 300.432 68.4954C300.765 66.7101 301.093 64.9175 301.419 63.1172C301.973 60.1564 302.489 57.2178 303.032 54.2459C303.132 53.7414 304.014 50.9913 303.709 50.5699C303.709 50.5699 300.182 45.7517 286.349 48.0859C276.369 49.7493 277.023 43.4063 273.347 45.7849C272.477 46.3616 271.762 47.1422 271.262 48.0582C271.107 48.3571 270.97 48.6642 270.852 48.9786C270.832 49.018 270.815 49.059 270.802 49.1006C270.552 49.7881 270.325 50.4812 270.103 51.1576C268.03 57.7501 266.66 64.8693 267.392 71.7944C268.285 80.1888 274.4 90.0581 284.131 89.2209C287.193 88.8622 290.179 88.0239 292.98 86.737" stroke="black" stroke-width="4.05" stroke-miterlimit="10"/>
<path d="M272.368 65.9326C273.32 65.9054 274.065 64.9506 274.033 63.7996C274 62.6486 273.203 61.7376 272.251 61.7648C271.299 61.7914 270.553 62.7461 270.586 63.8972C270.618 65.0482 271.416 65.9592 272.368 65.9326Z" fill="black"/>
<path d="M285.397 69.4345C286.349 69.4074 287.094 68.4526 287.062 67.3021C287.03 66.1511 286.232 65.2395 285.28 65.2667C284.328 65.2939 283.582 66.2486 283.615 67.3991C283.647 68.5502 284.445 69.4617 285.397 69.4345Z" fill="black"/>
<path d="M279.773 70.2023C279.773 70.2023 274.733 71.3112 275.243 68.7275C275.398 67.918 276.662 59.9671 276.662 59.9671C276.662 59.9671 274.312 55.232 268.163 56.3354" stroke="black" stroke-width="4.05" stroke-miterlimit="10"/>
<path d="M282.035 59.26C282.035 59.26 290.025 57.9016 293.085 64.2834" stroke="black" stroke-width="4.05" stroke-miterlimit="10"/>
<path d="M277.411 95.752C271.118 99.0787 267.758 107.085 270.391 112.879C274.783 122.532 286.343 125.371 295.896 122.582C306.52 119.477 314.326 109.685 313.861 98.4577" stroke="black" stroke-width="4.05" stroke-miterlimit="10"/>
<path d="M315.513 279.827C333.76 237.422 340.386 162.576 340.386 162.576V267.002C340.385 268.686 340.716 270.354 341.36 271.911C342.005 273.467 342.95 274.881 344.14 276.072C345.331 277.263 346.745 278.208 348.302 278.852C349.858 279.496 351.526 279.827 353.21 279.827H393.685C395.203 279.85 396.676 279.313 397.821 278.317C398.966 277.322 399.703 275.938 399.89 274.432C399.971 273.602 399.878 272.764 399.616 271.973C399.354 271.182 398.928 270.455 398.368 269.838C397.807 269.22 397.124 268.728 396.361 268.391C395.599 268.055 394.774 267.882 393.941 267.884H377.362C376.701 267.881 376.049 267.728 375.456 267.436C374.863 267.144 374.345 266.72 373.94 266.198C373.536 265.674 373.257 265.066 373.123 264.418C372.99 263.771 373.006 263.101 373.171 262.461C383.151 223.095 389.322 176.886 376.331 135.995C373.647 127.557 367.865 120.038 361.034 114.228C353.194 107.53 343.529 104.458 333.627 102.185C327.095 100.688 320.507 99.4491 313.861 98.47C313.841 98.4766 313.82 98.4766 313.8 98.47C313.755 98.47 313.711 98.47 313.683 98.47H313.639H313.578H313.489" stroke="black" stroke-width="4.05" stroke-miterlimit="10"/>
<path d="M309.68 79.6294L308.948 92.8753C308.878 94.17 309.285 95.4452 310.09 96.4604C310.897 97.4756 312.047 98.1609 313.323 98.3866H313.489C313.518 98.3788 313.549 98.3788 313.578 98.3866H313.606H313.683" stroke="black" stroke-width="4.05" stroke-miterlimit="10"/>
<path d="M313.8 98.4476H313.683H313.639H313.606H313.578H313.489H313.323C312.047 98.222 310.897 97.5367 310.09 96.5215C309.285 95.5057 308.878 94.2305 308.948 92.9364L309.68 79.6904" stroke="black" stroke-width="4.05" stroke-miterlimit="10"/>
<path d="M278.459 88.3961C278.098 88.2519 278.459 103.189 269.549 109.676" stroke="black" stroke-width="4.05" stroke-miterlimit="10"/>
<path d="M159.168 279.831H130.625" stroke="black" stroke-width="4.05" stroke-miterlimit="10"/>
<path d="M438.02 279.831H203.607" stroke="black" stroke-width="4.05" stroke-miterlimit="10"/>
<path d="M76.604 139.593C76.879 145.185 76.6788 150.79 76.0052 156.348C75.1402 162.88 69.1022 171.18 67.7937 177.639C65.9252 186.932 68.7529 196.535 72.6341 205.162C77.3248 215.592 84.7157 226.082 83.9949 238.025C83.6256 243.226 82.0781 248.276 79.4689 252.791C76.8601 257.305 73.2579 261.167 68.9359 264.084C63.016 268.045 56.2533 270.57 49.1862 271.459C48.1993 271.575 47.1957 271.669 46.1921 271.697C45.6377 271.697 45.0832 271.636 44.5288 271.592C25.7328 270 6.45438 255.662 6.49873 235.702C6.49873 222.949 16.1905 212.969 17.8262 200.594C18.8297 193.025 16.612 185.163 18.6635 177.817C21.9902 166.085 34.848 159.686 40.4813 148.885C44.6286 140.912 45.305 131.609 48.5874 123.247C53.1561 111.604 60.4527 98.2969 70.4329 97.188C73.3288 97.5162 76.1283 98.4294 78.661 99.8715C84.8487 103.198 86.4234 103.409 87.682 106.375C88.9683 109.475 87.0499 112.785 83.8452 113.777C78.4337 115.491 76.0994 126.485 76.604 139.593Z" fill="#4313E1"/>
<path d="M82.0432 101.676C98.2887 96.9684 108.613 103.894 115.998 111.878C123.383 119.862 123.04 128.927 123.04 128.927" stroke="black" stroke-width="4.05" stroke-miterlimit="10"/>
<path d="M132.432 257.83C132.187 270.522 130.579 283.151 127.636 295.5" stroke="black" stroke-width="4.05" stroke-miterlimit="10"/>
<path d="M172.802 361.191C166.853 371.427 152.742 378.696 135.476 383.22C104.837 391.248 64.2729 390.622 41.8619 382.394C-5.23356 365.134 13.0745 282.481 13.0745 282.481C13.0745 282.481 94.5295 267.15 148.844 310.204C154.032 314.305 158.849 318.857 163.238 323.805C169.242 330.597 172.929 336.812 174.67 342.49C176.805 349.564 175.951 355.797 172.802 361.191Z" stroke="black" stroke-width="4.05" stroke-miterlimit="10"/>
<path d="M141.581 381.825C141.581 381.825 113.043 461.04 160.986 481.272C208.93 501.504 -15.0752 504.199 34.3712 481.272C83.8174 458.345 55.3961 386.666 55.3961 386.666" stroke="black" stroke-width="4.05" stroke-miterlimit="10"/>
<path d="M199.632 112.625C199.039 110.812 199.283 104.508 199.477 100.949C199.514 100.277 199.812 99.6452 200.306 99.1888C200.801 98.7325 201.454 98.4863 202.127 98.5035L259.086 99.0025C260.046 99.0114 260.965 99.399 261.641 100.081C262.316 100.763 262.696 101.685 262.696 102.645V145.388C262.696 145.868 262.601 146.343 262.417 146.786C262.233 147.229 261.963 147.632 261.623 147.97C261.283 148.309 260.879 148.576 260.435 148.758C259.992 148.941 259.516 149.033 259.036 149.031L203.53 148.826C202.726 148.793 201.966 148.45 201.408 147.869C200.851 147.288 200.541 146.514 200.541 145.71V142.45C204.489 144.29 211.952 144.856 211.952 144.856C214.608 144.784 218.805 144.462 221.106 143.143C223.213 141.934 225.874 140.199 226.235 137.57C226.374 136.554 226.105 135.524 225.487 134.705C224.869 133.886 223.951 133.345 222.936 133.201C222.325 133.079 221.694 133.124 221.106 133.329" stroke="black" stroke-width="4.05" stroke-miterlimit="10"/>
<path d="M255.222 231.074C255.195 231.836 254.938 232.573 254.484 233.186C253.181 234.788 250.603 234.472 248.851 233.979C241.482 231.883 237.058 239.867 234.274 245.245C227.244 258.841 216.698 271.471 203.541 279.832C202.687 280.387 201.817 280.908 200.935 281.418C188.077 288.837 171.416 287.456 158.979 279.755L174.881 240.693L176.456 241.952C186.059 249.531 197.88 245.279 206.064 237.799C208.335 235.73 210.34 233.385 212.03 230.818C214.846 226.488 217.258 221.814 221.112 218.293C226.445 213.42 234.252 212.466 240.994 214.529C247.736 216.591 255.831 223.222 255.222 231.074Z" fill="white"/>
<path d="M255.155 228.307C255.155 228.307 253.347 218.737 237.052 226.205" stroke="black" stroke-width="4.05" stroke-miterlimit="10"/>
<path d="M246.09 216.819C246.09 216.819 235.932 213.57 230.277 221.332" stroke="black" stroke-width="4.05" stroke-miterlimit="10"/>
<path d="M41.0468 271.61C43.7586 271.852 46.4888 271.807 49.1917 271.477C56.2572 270.577 63.016 268.047 68.9359 264.086C73.2578 261.169 76.8596 257.307 79.4689 252.792C82.0776 248.277 83.6256 243.228 83.9949 238.027C84.7157 226.078 77.3414 215.588 72.6341 205.159C68.7529 196.526 65.9252 186.923 67.7992 177.641C69.1022 171.176 75.1291 162.881 75.9996 156.344C76.6766 150.786 76.8807 145.181 76.6095 139.589C76.105 126.476 78.4337 115.47 83.8452 113.796C87.0499 112.803 88.9739 109.488 87.682 106.394C86.4456 103.422 84.8543 103.245 78.661 99.8791C62.5153 91.0965 51.2876 107.47 45.0888 123.255C41.8009 131.622 41.1355 140.914 36.9827 148.887C31.3494 159.694 18.4638 166.075 15.1704 177.83C13.1133 185.171 15.3311 193.039 14.3331 200.596C12.703 212.966 3.0278 222.94 3.00008 235.704C2.95572 255.659 22.2563 270.008 41.0468 271.61Z" stroke="black" stroke-width="4.05" stroke-miterlimit="10"/>
<path d="M172.802 361.193C171.41 371.096 169.336 382.456 167.052 393.828C160.576 426.059 152.337 458.483 152.337 458.483" stroke="black" stroke-width="4.05" stroke-miterlimit="10"/>
<path d="M174.648 342.49C174.676 341.281 174.693 340.172 174.648 339.119C174.155 316.386 157.809 310.953 150.779 309.65C149.73 309.444 148.669 309.309 147.602 309.245" stroke="black" stroke-width="4.05" stroke-miterlimit="10"/>
<path d="M154.777 448.653C155.681 448.099 156.718 447.795 157.778 447.776C158.839 447.755 159.886 448.018 160.812 448.537C161.737 449.056 162.507 449.813 163.043 450.729C163.578 451.645 163.86 452.687 163.859 453.748C163.859 453.826 163.859 453.92 163.859 454.031C163.77 456.769 163.048 459.449 161.751 461.862C160.453 464.274 158.614 466.354 156.379 467.937L148.672 473.42" stroke="black" stroke-width="4.05" stroke-miterlimit="10"/>
<path d="M67.2281 184.97C68.3038 184.532 69.4016 184.144 70.5105 183.783C72.8448 179.469 72.4844 170.027 72.2626 166.595L74.5969 161.333C81.0396 165.292 89.5671 163.806 97.4792 161.05C98.5903 160.662 99.671 160.192 100.712 159.642C105.735 157.336 112.777 151.88 109.616 149.063C106.456 146.247 106.678 140.824 108.701 137.497C109.317 136.477 110.409 135.474 111.546 135.79C112.311 136 112.804 136.715 113.242 137.375C113.797 138.201 114.351 138.994 114.906 139.804C115.1 140.075 115.416 140.358 115.715 140.236C115.842 140.153 115.94 140.033 115.998 139.893C116.974 137.885 116.791 135.008 116.957 132.807C117.151 130.184 117.301 127.545 117.379 124.911C117.423 123.458 117.722 121.9 119.28 121.39C119.595 121.269 119.933 121.221 120.269 121.25C120.604 121.279 120.929 121.384 121.219 121.557C121.508 121.73 121.754 121.967 121.937 122.249C122.121 122.532 122.238 122.852 122.28 123.187C123.414 129.559 123.58 136.066 122.773 142.487C122.008 149.213 120.628 156.349 116.314 161.771C113.857 164.9 110.564 167.268 106.816 168.602C103.19 169.861 103.307 174.235 103.307 178.072V184.443C114.457 186.705 124.93 189.433 133.591 197.195C139.318 202.432 144.708 208.026 149.725 213.945C165.522 232.481 168.937 235.957 176.544 241.951C186.148 249.53 197.974 245.278 206.152 237.798C208.42 235.728 210.421 233.383 212.107 230.818C214.924 226.487 217.336 221.813 221.184 218.292C226.523 213.419 234.33 212.465 241.072 214.528C247.814 216.59 255.92 223.222 255.277 231.073C255.25 231.834 254.995 232.57 254.545 233.185C253.242 234.787 250.664 234.471 248.912 233.978C241.538 231.882 237.119 239.866 234.33 245.244C227.305 258.84 216.754 271.47 203.596 279.831C202.742 280.386 201.877 280.907 200.99 281.417C186.292 289.9 166.586 286.873 153.945 276.067L123.45 250.179" stroke="black" stroke-width="4.05" stroke-miterlimit="10"/>
<path d="M70.5106 183.784C70.5106 183.784 85.0761 179.282 103.307 184.461" stroke="black" stroke-width="4.05" stroke-miterlimit="10"/>
<path d="M200.541 142.449C200.541 142.449 200.652 161.301 205.149 168.559" stroke="black" stroke-width="4.05" stroke-miterlimit="10"/>
<path d="M215.317 56.1646C211.858 62.0695 212.018 66.2612 212.917 73.0644C212.991 73.6438 212.9 74.232 212.654 74.7621C212.408 75.2922 212.018 75.7418 211.527 76.0595C211.037 76.3772 210.467 76.5497 209.883 76.5574C209.299 76.5646 208.724 76.4072 208.226 76.1028C188.266 64.6145 169.586 73.702 145.756 68.0743C137.006 66.0172 126.1 61.7646 118.621 54.9171C116.139 51.2316 114.815 46.8897 114.817 42.4474C114.817 23.8231 140.261 8.71973 171.632 8.71973C191.742 8.71973 209.407 14.9241 219.509 24.2722C219.509 24.2722 219.509 24.2722 219.537 24.3054C222.071 27.9494 223.455 32.2704 223.507 36.7088C223.507 43.4121 218.539 50.62 215.317 56.1646Z" fill="#D7E8F0"/>
<path d="M223.418 36.7207V37.1919C223.302 43.7179 220.036 49.7836 216.16 55.0343C213.565 58.5495 210.488 62.4474 211.22 66.7555C211.542 68.6517 212.601 70.3761 212.883 72.3C213.166 74.224 212.135 76.5804 210.211 76.6802C208.991 76.7412 207.949 75.8707 206.984 75.1222C201.256 70.6866 193.816 69.0232 186.58 68.7349C179.344 68.4466 172.12 69.3947 164.879 69.5998C154.444 69.8992 143.843 68.5963 134.201 64.6097C125.535 60.9947 117.634 55.1175 112.433 47.2941C107.326 39.5817 110.348 28.3926 115.793 21.6893C120.905 15.4018 128.301 11.3764 135.892 8.54317C156.301 0.919414 179.599 1.10238 199.732 9.44693C205.709 11.8976 211.475 15.1356 215.966 19.8041C220.346 24.3562 223.379 30.4221 223.418 36.7207Z" stroke="black" stroke-width="4.05" stroke-miterlimit="10"/>
<path d="M139.662 44.1392C143.992 44.1392 147.502 40.6295 147.502 36.2992C147.502 31.9695 143.992 28.4592 139.662 28.4592C135.332 28.4592 131.822 31.9695 131.822 36.2992C131.822 40.6295 135.332 44.1392 139.662 44.1392Z" fill="white"/>
<path d="M165.012 44.1392C169.342 44.1392 172.852 40.6295 172.852 36.2992C172.852 31.9695 169.342 28.4592 165.012 28.4592C160.682 28.4592 157.172 31.9695 157.172 36.2992C157.172 40.6295 160.682 44.1392 165.012 44.1392Z" fill="white"/>
<path d="M190.855 44.1392C195.185 44.1392 198.695 40.6295 198.695 36.2992C198.695 31.9695 195.185 28.4592 190.855 28.4592C186.525 28.4592 183.015 31.9695 183.015 36.2992C183.015 40.6295 186.525 44.1392 190.855 44.1392Z" fill="white"/>
<g opacity="0.54">
<path opacity="0.54" d="M341.506 364.997L338.318 411.017C336.86 413.795 335.038 416.366 332.901 418.663C332.668 418.58 332.435 418.491 332.208 418.386C331.781 418.242 331.359 418.07 330.96 417.903C324.501 415.07 319.594 409.792 318.163 403.809C316.871 398.569 318.036 392.908 315.541 387.985C312.497 381.919 304.219 378.116 303.204 371.274C302.25 364.87 308.017 358.998 307.085 352.722C305.976 345.625 297.299 341.416 295.675 334.486C294.66 330.177 295.569 325.232 295.187 320.796C294.765 315.834 293.932 310.916 292.697 306.092C305.544 305.161 318.618 312.241 322.782 322.382C326.181 330.699 324.135 340.385 329.435 347.948C332.33 352.045 337.148 355.111 339.643 359.397C340.412 360.735 340.974 362.182 341.306 363.689C341.306 363.794 341.306 363.899 341.345 363.983C341.345 364.154 341.389 364.276 341.412 364.404C341.467 364.787 341.506 364.997 341.506 364.997Z" fill="#4313E1"/>
<path opacity="0.54" d="M341.528 364.957C341.528 364.957 341.489 364.769 341.445 364.403C341.482 364.549 341.51 364.697 341.528 364.846C341.536 364.864 341.54 364.882 341.54 364.902C341.54 364.921 341.536 364.94 341.528 364.957Z" fill="#4313E1"/>
</g>
<path d="M383.972 346.999C382.308 352.976 373.199 356.608 372.101 362.735C371.13 368.168 377.13 373.236 376.137 378.753C375.078 384.669 366.456 387.94 363.29 393.169C360.712 397.416 361.915 402.301 360.585 406.819C359.043 411.954 353.931 416.539 347.189 418.967C346.768 419.117 346.369 419.261 345.942 419.389C345.709 419.455 345.454 419.539 345.221 419.6C343.003 417.764 340.425 414.532 338.334 411.044L341.506 364.997C343.979 362.901 346.807 360.983 348.775 358.654C350.91 356.142 351.902 353.398 352.534 350.52H352.601V350.204C353.527 345.663 353.61 340.906 355.744 336.598C360.075 327.832 373.664 321.722 387.038 322.526C385.776 326.666 384.913 330.918 384.46 335.223C384.077 339.032 385.02 343.301 383.972 346.999Z" fill="#4313E1"/>
<path d="M352.622 350.165V350.48H352.556L352.622 350.165Z" fill="#3FBDF1"/>
<path d="M352.623 350.164L352.556 350.48C351.924 353.358 350.932 356.102 348.797 358.614C346.829 360.943 344.001 362.861 341.528 364.957C341.538 364.928 341.538 364.897 341.528 364.868C341.511 364.719 341.483 364.57 341.445 364.425C341.445 364.297 341.4 364.175 341.378 364.003C341.378 363.92 341.378 363.815 341.339 363.709C341.007 362.202 340.446 360.755 339.676 359.418C337.181 355.132 332.363 352.066 329.469 347.968C329.469 347.968 330.777 326.372 341.827 319.802C352.307 313.592 352.623 346.571 352.623 350.164Z" fill="#4313E1"/>
<path d="M352.622 350.165V350.48H352.556L352.622 350.165Z" fill="#3FBDF1"/>
<path d="M341.506 364.869V364.997C341.506 364.997 341.467 364.808 341.423 364.442C341.46 364.582 341.488 364.725 341.506 364.869Z" fill="#3FBDF1"/>
<path d="M340.519 364.996C342.981 362.9 345.842 360.954 347.815 358.631C353.36 352.094 351.22 343.738 354.774 336.569C359.099 327.814 372.699 321.709 386.067 322.508C384.798 326.647 383.933 330.899 383.484 335.205C383.084 339.042 384.038 343.305 382.99 347.02C381.288 352.997 372.211 356.623 371.108 362.75C370.127 368.178 376.143 373.246 375.15 378.757C374.091 384.679 365.475 387.95 362.303 393.173C359.714 397.426 360.928 402.299 359.587 406.829C357.962 412.291 352.307 417.114 344.938 419.393C344.705 419.471 344.45 419.554 344.212 419.615C341.994 417.78 339.415 414.547 337.32 411.054" stroke="black" stroke-width="4.05" stroke-miterlimit="10"/>
<path d="M377.906 329.366C357.973 350.818 348.597 396.044 344.949 419.398C344.65 421.366 344.395 423.168 344.151 424.793" stroke="black" stroke-width="4.05" stroke-miterlimit="10"/>
<path d="M379.747 437.945L370.604 492.054C370.386 493.536 369.651 494.893 368.529 495.885C367.406 496.877 365.969 497.439 364.471 497.471H316.522C315.01 497.437 313.56 496.863 312.433 495.854C311.306 494.844 310.578 493.465 310.379 491.966L301.923 437.94L379.747 437.945Z" stroke="black" stroke-width="4.05" stroke-miterlimit="10"/>
<path d="M388.457 431.903C388.375 433.508 387.69 435.023 386.538 436.143C385.387 437.264 383.854 437.908 382.247 437.947H299.573C297.984 437.909 296.467 437.278 295.32 436.178C294.173 435.078 293.479 433.589 293.374 432.003C293.024 428.122 295.896 424.795 299.573 424.795H382.247C385.89 424.801 388.751 428.078 388.457 431.903Z" stroke="black" stroke-width="4.05" stroke-miterlimit="10"/>
<path d="M331.919 418.651C335.468 415.13 339.815 407.279 341.739 400.869C343.324 395.585 340.535 390.146 339.892 384.724C338.894 376.235 343.108 367.109 338.667 359.413C336.188 355.121 331.37 352.072 328.476 347.963C323.148 340.395 325.194 330.714 321.789 322.414C317.625 312.262 304.557 305.182 291.716 306.124C292.943 310.95 293.775 315.868 294.205 320.828C294.588 325.264 293.651 330.21 294.682 334.512C296.307 341.443 305.023 345.64 306.093 352.743C307.035 359.019 301.263 364.896 302.211 371.289C303.232 378.142 311.499 381.929 314.554 388.006C317.038 392.935 315.873 398.591 317.16 403.825C318.773 410.367 324.489 416.117 331.919 418.651Z" stroke="black" stroke-width="4.05" stroke-miterlimit="10"/>
<path d="M299.556 314.075C318.69 338.936 327.694 391.327 331.237 418.373C331.537 420.719 331.792 422.87 332.019 424.794" stroke="black" stroke-width="4.05" stroke-miterlimit="10"/>
<path d="M328.465 347.963C328.465 347.963 329.779 326.367 340.824 319.802C351.869 313.237 351.636 350.025 351.636 350.025" stroke="black" stroke-width="4.05" stroke-miterlimit="10"/>
<path d="M340.519 364.995C340.519 364.995 338.262 352.642 342.221 340.494" stroke="black" stroke-width="4.05" stroke-miterlimit="10"/>
</svg>
