<svg width="80" height="59" viewBox="0 0 80 59" fill="none" xmlns="http://www.w3.org/2000/svg">
<path d="M63.3615 1.30253C62.511 0.853603 61.5888 0.556235 60.6363 0.423753C59.3521 0.261204 58.0477 0.394007 56.8226 0.812037C55.5975 1.23007 54.484 1.92229 53.567 2.83594C51.4323 4.99907 50.3898 8.58533 50.0092 11.5241C49.5018 15.451 49.2037 19.4022 49.1161 23.3608C49.1457 23.7575 49.2221 24.1492 49.3438 24.5278C49.3438 24.5278 54.1753 29.0853 64.6744 27.7938C67.9618 27.3883 71.2847 27.2424 74.5864 26.851C74.1808 24.1009 74.3836 21.2902 74.0136 18.5649C73.7005 16.2773 73.3269 13.9967 73.1135 11.6664C72.9 9.33602 72.7292 6.24786 70.5163 4.90657C69.9658 4.57918 69.3473 4.3829 68.7087 4.33293C68.0702 4.28295 67.4287 4.38063 66.834 4.61839C66.02 3.20173 64.8142 2.0503 63.3615 1.30253Z" fill="#725858"/>
<path d="M60.9671 28.3848C52.9977 28.3848 49.2584 24.9586 49.0841 24.7914C49.0395 24.7495 49.0064 24.6968 48.988 24.6384C48.8495 24.2231 48.767 23.7912 48.7426 23.3541C48.8301 19.3835 49.1294 15.4204 49.6391 11.4817C49.9415 9.24387 50.8167 5.10972 53.3108 2.58724C54.2679 1.63558 55.429 0.914216 56.7062 0.477798C57.9834 0.0413795 59.3432 -0.0986473 60.6825 0.0683254C61.6771 0.203478 62.6404 0.511729 63.5287 0.979119C64.9432 1.71951 66.1336 2.82514 66.9762 4.18113C67.5893 3.98487 68.237 3.92081 68.8766 3.99318C69.5163 4.06554 70.1333 4.27269 70.687 4.60095C72.9462 5.9707 73.2237 9.05175 73.423 11.2967L73.455 11.6525C73.6115 13.3567 73.857 15.0644 74.0918 16.7152C74.1808 17.3236 74.2661 17.9284 74.3515 18.5333C74.533 19.8745 74.5792 21.255 74.6255 22.5891C74.6454 24.0025 74.7451 25.4137 74.9243 26.8158C74.9313 26.8629 74.9288 26.9108 74.917 26.9569C74.9051 27.003 74.8841 27.0462 74.8553 27.084C74.8264 27.1218 74.7902 27.1534 74.7489 27.177C74.7076 27.2006 74.662 27.2157 74.6148 27.2214C73.0103 27.4135 71.3772 27.5452 69.8011 27.6768C68.1254 27.812 66.3928 27.9543 64.7064 28.1642C63.4656 28.3137 62.2169 28.3874 60.9671 28.3848ZM49.6391 24.3325C50.2511 24.8519 55.0754 28.6018 64.6139 27.442C66.318 27.2321 68.0578 27.0862 69.7371 26.951C71.1922 26.8336 72.69 26.7091 74.1665 26.5419C73.9993 25.2255 73.9531 23.8913 73.9104 22.5963C73.889 21.2655 73.8 19.9368 73.6435 18.6151C73.5581 18.0103 73.4728 17.4054 73.3838 16.8042C73.1454 15.1427 72.9 13.4278 72.7434 11.7023L72.7114 11.3465C72.5122 9.13358 72.2667 6.36562 70.3134 5.1951C69.8105 4.89692 69.2459 4.71813 68.663 4.67248C68.0801 4.62684 67.4945 4.71556 66.9513 4.93183C66.8713 4.9648 66.782 4.96746 66.7001 4.9393C66.6182 4.91113 66.5494 4.85408 66.5066 4.77884C65.7287 3.4242 64.5794 2.32051 63.1943 1.59818C62.3793 1.17553 61.4968 0.898594 60.5864 0.779884C59.3584 0.628667 58.1121 0.757889 56.9413 1.15783C55.7704 1.55777 54.7055 2.21801 53.8266 3.08889C51.4821 5.46549 50.646 9.42531 50.3542 11.5742C49.8487 15.4894 49.5518 19.4287 49.4648 23.3754C49.484 23.7003 49.5425 24.0217 49.6391 24.3325Z" fill="#093F68"/>
<path d="M56.4203 26.5703H64.1941C64.9198 26.5689 65.6387 26.7106 66.3096 26.9872C66.9805 27.2639 67.5903 27.6701 68.1041 28.1826C68.618 28.695 69.0257 29.3038 69.3041 29.974C69.5825 30.6442 69.726 31.3627 69.7264 32.0885V41.4881H50.9022V32.0885C50.9031 30.6252 51.4848 29.2222 52.5194 28.1876C53.5541 27.1529 54.9571 26.5713 56.4203 26.5703Z" fill="#FFBC0E"/>
<path d="M69.7264 41.8474H50.9022C50.8078 41.8474 50.7173 41.8099 50.6506 41.7432C50.5839 41.6765 50.5464 41.586 50.5464 41.4917V32.0884C50.5483 30.5308 51.1676 29.0375 52.2687 27.9357C53.3697 26.834 54.8627 26.2138 56.4203 26.2109H64.1941C65.7541 26.21 67.2508 26.8286 68.3549 27.9307C69.459 29.0329 70.0803 30.5283 70.0822 32.0884V41.4881C70.0827 41.5351 70.0738 41.5818 70.0562 41.6253C70.0385 41.6689 70.0124 41.7086 69.9793 41.742C69.9462 41.7754 69.9068 41.8019 69.8634 41.82C69.82 41.8381 69.7735 41.8474 69.7264 41.8474ZM51.2579 41.1359H69.3707V32.0884C69.3678 30.7177 68.8211 29.4041 67.8505 28.4362C66.8799 27.4682 65.5648 26.9251 64.1941 26.9261H56.4203C55.052 26.9289 53.7406 27.4737 52.7731 28.4412C51.8056 29.4087 51.2608 30.7201 51.2579 32.0884V41.1359Z" fill="#093F68"/>
<path d="M61.7107 27.0859L59.2665 37.3608L58.5798 27.303L61.7107 27.0859Z" fill="white"/>
<path d="M59.2665 37.7168H59.2345C59.1499 37.7093 59.0708 37.6719 59.0114 37.6112C58.9521 37.5505 58.9163 37.4706 58.9107 37.3859L58.2241 27.328C58.2182 27.2342 58.2497 27.1419 58.3117 27.0712C58.3737 27.0006 58.4612 26.9573 58.555 26.9509L61.6858 26.7303C61.7413 26.7265 61.797 26.7358 61.8483 26.7574C61.8996 26.7791 61.9451 26.8124 61.9811 26.8548C62.0173 26.8975 62.0429 26.9481 62.0559 27.0025C62.0689 27.0568 62.0688 27.1135 62.0558 27.1679L59.6116 37.4428C59.5932 37.5206 59.5492 37.59 59.4866 37.6397C59.424 37.6894 59.3464 37.7165 59.2665 37.7168ZM58.957 27.634L59.4622 35.0022L61.2411 27.4739L58.957 27.634Z" fill="#093F68"/>
<path d="M60.2179 28.6377L59.7844 28.6154C59.4508 28.5982 59.1377 28.4492 58.914 28.2011C58.6903 27.9531 58.5742 27.6264 58.5914 27.2928L58.6791 25.5908L61.6389 25.7434L61.5511 27.4453C61.5426 27.6114 61.5012 27.7741 61.4295 27.9241C61.3577 28.0741 61.2569 28.2084 61.133 28.3193C61.009 28.4302 60.8643 28.5154 60.7073 28.57C60.5502 28.6247 60.3839 28.6477 60.2179 28.6377Z" fill="#FFC9B0"/>
<path d="M60.2805 29.0075H60.1951L59.7504 28.9861C59.3227 28.9631 58.9217 28.7717 58.6349 28.4536C58.3482 28.1355 58.1992 27.7168 58.2205 27.2891L58.3095 25.5885C58.3117 25.5417 58.3232 25.4959 58.3432 25.4536C58.3633 25.4113 58.3914 25.3734 58.4261 25.342C58.4608 25.3106 58.5014 25.2863 58.5455 25.2706C58.5895 25.2549 58.6363 25.2481 58.683 25.2505L61.6396 25.4035C61.6863 25.4057 61.7321 25.4172 61.7744 25.4372C61.8167 25.4572 61.8547 25.4854 61.8861 25.5201C61.9174 25.5548 61.9417 25.5954 61.9574 25.6395C61.9731 25.6835 61.9799 25.7303 61.9775 25.777L61.8886 27.4776C61.8677 27.8905 61.6893 28.2795 61.3901 28.5648C61.091 28.8501 60.6938 29.0098 60.2805 29.0111V29.0075ZM59.7859 28.271L60.2307 28.2924C60.3493 28.3007 60.4683 28.2844 60.5803 28.2446C60.6923 28.2048 60.795 28.1424 60.8817 28.0611C60.9706 27.9825 61.0427 27.8869 61.0941 27.78C61.1454 27.6731 61.1748 27.557 61.1806 27.4385L61.2482 26.0901L58.9997 25.9763L58.9321 27.3247C58.9258 27.4429 58.943 27.5612 58.9826 27.6728C59.0221 27.7844 59.0833 27.8871 59.1626 27.975C59.242 28.0629 59.3378 28.1343 59.4448 28.1851C59.5518 28.2359 59.6677 28.2651 59.7859 28.271Z" fill="#093F68"/>
<path d="M55.082 18.022C55.1525 16.6543 54.217 15.4944 52.9925 15.4313C51.768 15.3682 50.7182 16.4258 50.6478 17.7935C50.5773 19.1613 51.5128 20.3212 52.7373 20.3843C53.9617 20.4474 55.0115 19.3898 55.082 18.022Z" fill="#FFC9B0"/>
<path d="M52.8412 20.7391H52.7166C52.3705 20.7175 52.0329 20.6226 51.7262 20.4607C51.4196 20.2988 51.1508 20.0735 50.9377 19.7999C50.4888 19.2226 50.2627 18.503 50.3005 17.7727C50.3384 17.0423 50.6379 16.35 51.1441 15.8223C51.3839 15.569 51.6757 15.3707 51.9996 15.2411C52.3234 15.1115 52.6715 15.0536 53.0198 15.0715C53.3682 15.0895 53.7085 15.1827 54.0173 15.3449C54.3261 15.507 54.5961 15.7342 54.8086 16.0108C55.2573 16.5898 55.4821 17.3112 55.4416 18.0426C55.401 18.774 55.098 19.4662 54.588 19.992C54.361 20.2262 54.0896 20.4129 53.7897 20.5411C53.4898 20.6694 53.1673 20.7367 52.8412 20.7391ZM52.8874 15.7796C52.6535 15.7824 52.4225 15.8321 52.208 15.9256C51.9935 16.019 51.8 16.1545 51.6386 16.3239C51.2506 16.7229 51.0237 17.2513 51.0018 17.8075C50.9672 18.3637 51.1382 18.9132 51.4821 19.3516C51.6342 19.5483 51.8265 19.7103 52.0461 19.8268C52.2657 19.9434 52.5076 20.0118 52.7558 20.0276C53.0039 20.0386 53.2516 19.996 53.4818 19.9026C53.712 19.8093 53.9195 19.6675 54.0899 19.4868C54.4785 19.0867 54.7054 18.557 54.7268 17.9996C54.7603 17.4436 54.5895 16.8945 54.2465 16.4556C54.0942 16.2594 53.9018 16.0979 53.6822 15.982C53.4625 15.866 53.2207 15.7982 52.9728 15.7831L52.8874 15.7796Z" fill="#093F68"/>
<path d="M60.2022 26.3961C65.0693 26.6487 69.7335 20.8672 69.979 16.0785L68.7978 16.4342L69.0149 13.0472C69.0149 13.0472 62.9986 11.1225 63.9486 8.32959C63.9486 8.32959 62.0523 10.3611 59.4835 10.2223C54.7588 9.96617 52.9728 8.62133 52.9728 8.62133L52.5281 17.281C52.2826 22.0769 55.3352 26.1292 60.2022 26.3961Z" fill="#FFC9B0"/>
<path d="M60.5011 26.7516C60.3944 26.7516 60.2876 26.7516 60.1845 26.7516C59.029 26.7088 57.8957 26.4216 56.8593 25.9089C55.8229 25.3962 54.907 24.6697 54.1718 23.7773C52.7218 21.9379 52.009 19.6244 52.1723 17.2879L52.617 8.60689C52.6202 8.54233 52.6409 8.47986 52.6769 8.42618C52.7129 8.3725 52.7629 8.32965 52.8214 8.30221C52.8799 8.27478 52.9448 8.26381 53.0091 8.27047C53.0734 8.27714 53.1346 8.3012 53.1863 8.34005C53.2041 8.34005 54.9652 9.62798 59.5014 9.86991C61.8708 9.99443 63.6711 8.09101 63.6889 8.09101C63.7443 8.03145 63.8184 7.99268 63.8989 7.98114C63.9794 7.9696 64.0615 7.986 64.1314 8.0276C64.2013 8.0692 64.2548 8.1335 64.283 8.20977C64.3113 8.28605 64.3125 8.3697 64.2866 8.44679C64.2183 8.64504 64.1922 8.85537 64.21 9.06429C64.2278 9.27321 64.289 9.47612 64.3898 9.66C65.3006 11.4674 69.086 12.6983 69.1216 12.709C69.1966 12.7325 69.2617 12.7801 69.3067 12.8445C69.3518 12.9089 69.3743 12.9863 69.3707 13.0648L69.1892 15.911L69.8865 15.7225C69.9411 15.7052 69.999 15.7014 70.0554 15.7113C70.1118 15.7212 70.1649 15.7446 70.2103 15.7794C70.2558 15.8143 70.2922 15.8598 70.3164 15.9118C70.3405 15.9638 70.3517 16.0209 70.3491 16.0783C70.2245 18.5011 69.0113 21.2193 67.1008 23.3468C65.1903 25.4744 62.771 26.7516 60.5011 26.7516ZM53.3001 9.2295L52.8839 17.3092C52.7299 19.469 53.3857 21.6086 54.7232 23.3112C55.394 24.1293 56.2309 24.7956 57.1785 25.2661C58.1261 25.7365 59.1628 26.0003 60.22 26.0401C62.3547 26.1539 64.6637 25.0012 66.56 22.8879C68.2251 21.0307 69.3315 18.711 69.5806 16.5799L68.9082 16.7969C68.8535 16.8142 68.7955 16.818 68.7391 16.808C68.6827 16.798 68.6295 16.7746 68.5841 16.7397C68.5387 16.7047 68.5024 16.6593 68.4783 16.6074C68.4542 16.5554 68.443 16.4984 68.4456 16.4411L68.6413 13.3281C67.7127 12.9972 64.6566 11.7982 63.7529 10.0087C63.6258 9.76291 63.5427 9.4968 63.5074 9.22239C62.3651 10.148 60.9322 10.6395 59.4622 10.6099C56.0681 10.3858 54.1504 9.67423 53.3001 9.2295Z" fill="#093F68"/>
<path d="M63.6994 16.7784C63.7221 16.3369 63.3811 15.9605 62.9376 15.9376C62.4941 15.9148 62.1161 16.2542 62.0934 16.6957C62.0706 17.1372 62.4117 17.5136 62.8552 17.5365C63.2987 17.5594 63.6766 17.22 63.6994 16.7784Z" fill="#093F68"/>
<path d="M55.168 17.1423C55.612 17.1423 55.972 16.7823 55.972 16.3382C55.972 15.8942 55.612 15.5342 55.168 15.5342C54.7239 15.5342 54.3639 15.8942 54.3639 16.3382C54.3639 16.7823 54.7239 17.1423 55.168 17.1423Z" fill="#093F68"/>
<path d="M58.7436 18.8319C58.4363 18.8388 58.1296 18.8016 57.8328 18.7216C57.7521 18.6995 57.6779 18.6587 57.6161 18.6024C57.5542 18.5461 57.5066 18.476 57.477 18.3979C57.2635 17.85 57.8897 16.6474 58.2846 15.9786C58.3364 15.9073 58.4128 15.8578 58.499 15.8397C58.5852 15.8215 58.675 15.836 58.7512 15.8802C58.8273 15.9245 58.8843 15.9954 58.9112 16.0793C58.938 16.1632 58.9328 16.2541 58.8966 16.3343C58.5597 16.8687 58.3043 17.4503 58.1388 18.0599C58.4915 18.1186 58.8507 18.1281 59.2061 18.0883C59.3004 18.077 59.3954 18.1036 59.4702 18.1623C59.5449 18.2211 59.5932 18.3071 59.6046 18.4014C59.6159 18.4958 59.5893 18.5908 59.5305 18.6655C59.4718 18.7402 59.3858 18.7886 59.2915 18.7999C59.2915 18.8034 59.0531 18.8319 58.7436 18.8319Z" fill="#093F68"/>
<path d="M66.0299 15.1712H65.973L62.1519 14.8439C61.9642 14.8276 61.7907 14.7376 61.6693 14.5935C61.5479 14.4495 61.4886 14.2631 61.5044 14.0754C61.512 13.9822 61.538 13.8914 61.5807 13.8082C61.6235 13.725 61.6822 13.651 61.7536 13.5905C61.825 13.5301 61.9076 13.4842 61.9967 13.4557C62.0858 13.4272 62.1797 13.4166 62.2729 13.4243L66.0939 13.7517C66.1874 13.7556 66.2791 13.778 66.3639 13.8174C66.4488 13.8568 66.525 13.9126 66.5882 13.9815C66.6515 14.0503 66.7006 14.131 66.7327 14.2189C66.7648 14.3067 66.7792 14.4 66.7753 14.4935C66.7713 14.5869 66.7489 14.6787 66.7095 14.7635C66.6701 14.8483 66.6143 14.9245 66.5455 14.9878C66.4766 15.051 66.3959 15.1001 66.3081 15.1322C66.2202 15.1643 66.1269 15.1788 66.0335 15.1748L66.0299 15.1712Z" fill="#093F68"/>
<path d="M58.3166 14.3775H58.2383L54.4279 13.972C54.2392 13.9521 54.0661 13.8582 53.9467 13.7107C53.8272 13.5633 53.7713 13.3744 53.7911 13.1857C53.8109 12.997 53.9049 12.8238 54.0523 12.7044C54.1998 12.585 54.3886 12.529 54.5774 12.5488L58.3913 12.958C58.58 12.9679 58.7571 13.0524 58.8835 13.1928C59.01 13.3333 59.0754 13.5182 59.0655 13.7069C59.0556 13.8956 58.9711 14.0727 58.8307 14.1991C58.6902 14.3255 58.5053 14.391 58.3166 14.3811V14.3775Z" fill="#093F68"/>
<path d="M68.2037 16.5836C68.2037 16.5836 70.3989 15.2246 71.4413 17.1707C72.4837 19.1168 71.2207 22.2797 67.7661 21.1625" fill="#FFC9B0"/>
<path d="M69.1109 21.7457C68.6161 21.7397 68.1252 21.6569 67.6558 21.5002C67.6111 21.486 67.5698 21.4631 67.534 21.4328C67.4982 21.4026 67.4688 21.3656 67.4473 21.324C67.4258 21.2824 67.4127 21.2369 67.4088 21.1902C67.4049 21.1436 67.4102 21.0966 67.4245 21.0519C67.4387 21.0073 67.4616 20.966 67.4919 20.9302C67.5221 20.8944 67.5591 20.8649 67.6007 20.8435C67.6424 20.822 67.6878 20.8089 67.7345 20.805C67.7812 20.8011 67.8282 20.8064 67.8728 20.8207C69.1643 21.2405 70.2316 21.0448 70.8756 20.2728C71.1941 19.859 71.3872 19.3625 71.432 18.8422C71.4768 18.3219 71.3713 17.7997 71.1282 17.3376C71.0386 17.1442 70.9089 16.9721 70.7475 16.8328C70.5861 16.6935 70.3969 16.5903 70.1925 16.53C69.3564 16.3023 68.4136 16.8858 68.3922 16.8858C68.3523 16.9105 68.3079 16.927 68.2616 16.9345C68.2153 16.9419 68.1679 16.9401 68.1223 16.9292C68.0767 16.9183 68.0336 16.8985 67.9957 16.8709C67.9578 16.8433 67.9257 16.8084 67.9012 16.7684C67.8525 16.6881 67.8375 16.5918 67.8595 16.5005C67.8815 16.4092 67.9387 16.3302 68.0187 16.2809C68.0649 16.2489 69.2354 15.5374 70.3739 15.8433C70.673 15.9279 70.9507 16.075 71.1887 16.275C71.4267 16.4749 71.6195 16.7231 71.7543 17.0032C72.0673 17.5892 72.2024 18.2539 72.143 18.9156C72.0836 19.5773 71.8323 20.2073 71.4199 20.7282C71.1366 21.0608 70.7817 21.3251 70.3819 21.5013C69.982 21.6775 69.5476 21.761 69.1109 21.7457Z" fill="#093F68"/>
<path d="M59.4871 22.614C58.442 22.5772 57.4315 22.2305 56.584 21.6178C56.5136 21.5592 56.4685 21.4756 56.4582 21.3846C56.4479 21.2935 56.4731 21.202 56.5286 21.1291C56.5841 21.0561 56.6656 21.0074 56.7561 20.9931C56.8466 20.9788 56.9392 20.9999 57.0145 21.0522C57.0145 21.0522 58.4696 22.1195 60.035 21.8527C60.96 21.6854 61.7606 21.0735 62.4152 20.0346C62.4657 19.9549 62.5458 19.8985 62.6378 19.8778C62.7299 19.8571 62.8264 19.8738 62.9062 19.9243C62.9859 19.9748 63.0423 20.0549 63.063 20.147C63.0837 20.2391 63.0669 20.3356 63.0165 20.4153C62.248 21.6321 61.2874 22.3507 60.1702 22.55C59.9451 22.5929 59.7163 22.6143 59.4871 22.614Z" fill="#093F68"/>
<path d="M54.9936 41.8477C54.9062 41.8483 54.8217 41.8168 54.756 41.759C54.6904 41.7013 54.6483 41.6214 54.6379 41.5346L54.186 37.742C53.8067 36.9535 53.5419 36.1149 53.3997 35.2516C53.3225 34.636 53.402 34.011 53.6309 33.4344C53.8598 32.8578 54.2306 32.3484 54.709 31.9535C54.7845 31.8969 54.8794 31.8726 54.9728 31.8859C55.0662 31.8992 55.1505 31.9492 55.2071 32.0246C55.2637 32.1001 55.288 32.195 55.2747 32.2884C55.2613 32.3818 55.2114 32.4661 55.1359 32.5227C54.7567 32.8434 54.4638 33.254 54.2842 33.717C54.1046 34.1801 54.0439 34.6807 54.1077 35.1733C54.244 35.9791 54.4944 36.7613 54.8513 37.4965C54.8685 37.5326 54.8805 37.5709 54.8869 37.6104L55.3459 41.4635C55.3513 41.51 55.3475 41.5571 55.3347 41.6021C55.3219 41.6472 55.3004 41.6892 55.2713 41.7259C55.2422 41.7626 55.2062 41.7932 55.1652 41.8159C55.1243 41.8386 55.0793 41.8531 55.0328 41.8584L54.9936 41.8477Z" fill="#093F68"/>
<path d="M65.45 41.8473C65.3557 41.8473 65.2652 41.8098 65.1984 41.7431C65.1317 41.6763 65.0942 41.5859 65.0942 41.4915V32.2235C65.0942 32.1291 65.1317 32.0386 65.1984 31.9719C65.2652 31.9052 65.3557 31.8677 65.45 31.8677C65.5444 31.8677 65.6349 31.9052 65.7016 31.9719C65.7683 32.0386 65.8058 32.1291 65.8058 32.2235V41.4915C65.8058 41.5859 65.7683 41.6763 65.7016 41.7431C65.6349 41.8098 65.5444 41.8473 65.45 41.8473Z" fill="#093F68"/>
<path d="M67.3249 53.2288H14.6376V40.5737H79.6491L67.3249 53.2288Z" fill="#68E1FD"/>
<path d="M67.3249 53.5849H14.6376C14.5432 53.5849 14.4527 53.5474 14.386 53.4807C14.3193 53.414 14.2818 53.3235 14.2818 53.2291V40.574C14.2818 40.4797 14.3193 40.3892 14.386 40.3225C14.4527 40.2557 14.5432 40.2183 14.6376 40.2183H79.6491C79.7183 40.2192 79.7858 40.2403 79.8432 40.279C79.9006 40.3178 79.9454 40.3724 79.9722 40.4362C79.9991 40.5 80.0067 40.5703 79.9941 40.6384C79.9816 40.7065 79.9495 40.7694 79.9017 40.8195L67.5811 53.4781C67.5477 53.5122 67.5078 53.5392 67.4638 53.5575C67.4198 53.5759 67.3726 53.5852 67.3249 53.5849ZM14.9934 52.8733H67.1755L78.8059 40.9298H14.9934V52.8733Z" fill="#093F68"/>
<path d="M24.578 27.584C24.578 27.584 26.5811 30.2025 25.8375 31.245C25.0939 32.2874 23.3008 31.4584 23.3008 31.4584" fill="#FFC9B0"/>
<path d="M24.6777 32.131C24.1506 32.1135 23.632 31.9926 23.1514 31.7752C23.0724 31.7318 23.0128 31.66 22.9846 31.5743C22.9565 31.4886 22.962 31.3954 23 31.3136C23.0379 31.2318 23.1056 31.1674 23.1892 31.1336C23.2728 31.0997 23.3661 31.0989 23.4503 31.1312C23.4681 31.1312 24.9873 31.825 25.5494 31.0316C25.955 30.4624 25.062 28.7938 24.2971 27.7905C24.2448 27.7152 24.2237 27.6226 24.238 27.5321C24.2523 27.4416 24.301 27.3601 24.374 27.3046C24.4469 27.2491 24.5384 27.2239 24.6295 27.2342C24.7205 27.2445 24.8041 27.2896 24.8627 27.36C25.2185 27.8332 26.9974 30.2453 26.1293 31.4443C25.9635 31.6704 25.744 31.8516 25.4905 31.9715C25.237 32.0914 24.9577 32.1462 24.6777 32.131Z" fill="#093F68"/>
<path d="M29.1107 47.4508C29.1016 47.4389 29.0944 47.4257 29.0893 47.4117C28.4383 46.017 29.8898 43.8539 30.4698 42.6015C30.5978 42.3276 30.7935 42.0145 31.0959 42.0252C31.3983 42.0358 31.5549 42.3418 31.6438 42.6158C31.7381 42.9388 31.8094 43.2682 31.8573 43.6013C32.9602 43.2241 34.0916 42.9715 35.2052 42.5339C35.5344 42.3817 35.892 42.3004 36.2547 42.2956C36.4364 42.2971 36.6131 42.3546 36.7609 42.4603C36.9086 42.566 37.0201 42.7147 37.0801 42.8862C37.1003 43.0415 37.0869 43.1994 37.0409 43.3492C36.9949 43.4989 36.9172 43.637 36.8133 43.7543C35.9025 44.9853 34.0631 45.494 33.6113 47.0666C33.3195 48.0948 33.316 49.0447 32.8713 50.0978C32.8855 50.1085 29.4985 48.0343 29.1107 47.4508Z" fill="#FFC9B0"/>
<path d="M32.8855 50.4681C32.8389 50.4685 32.7928 50.4588 32.7503 50.4396C32.7261 50.4313 32.7032 50.4193 32.6827 50.404L32.5582 50.3258C29.5483 48.4401 29.0004 47.8958 28.8189 47.6467C28.8005 47.6206 28.7839 47.5933 28.7691 47.5649C28.1679 46.2699 29.0893 44.5088 29.7618 43.2244C29.9076 42.9433 30.0464 42.6801 30.1531 42.4524C30.3986 41.9151 30.7188 41.6483 31.1137 41.6696C31.5086 41.691 31.8253 41.9827 31.9854 42.5057C32.0509 42.7121 32.1032 42.9224 32.1419 43.1355C32.4977 43.0216 32.8535 42.922 33.1844 42.8224C33.8105 42.6409 34.458 42.4666 35.0807 42.2175C35.4567 42.0444 35.8657 41.9546 36.2796 41.9543C36.5372 41.9595 36.7866 42.0454 36.9928 42.1998C37.1989 42.3543 37.3514 42.5695 37.4288 42.8153C37.4658 43.0219 37.4556 43.2342 37.3989 43.4363C37.3422 43.6383 37.2405 43.825 37.1015 43.9822C36.6799 44.4949 36.1833 44.9411 35.6286 45.3057C34.8921 45.8465 34.2054 46.3553 33.9671 47.1771C33.8658 47.5558 33.7839 47.9393 33.7216 48.3263C33.6279 48.9856 33.4572 49.6316 33.2128 50.251C33.1856 50.3153 33.14 50.3702 33.0818 50.4088C33.0236 50.4474 32.9553 50.468 32.8855 50.4681ZM29.4095 47.2661C29.4807 47.3692 29.9219 47.8353 32.7076 49.5893C32.8451 49.1385 32.9498 48.6783 33.0207 48.2124C33.0919 47.8211 33.163 47.4155 33.2804 46.9957C33.5793 45.9283 34.4082 45.3306 35.2087 44.7436C35.7046 44.4186 36.1504 44.0231 36.5322 43.5695C36.6022 43.4921 36.6561 43.4017 36.6909 43.3034C36.7257 43.2051 36.7407 43.1008 36.735 42.9967C36.6925 42.9004 36.6226 42.8187 36.5341 42.7618C36.4455 42.7049 36.3422 42.6752 36.2369 42.6765C35.9241 42.687 35.6167 42.7609 35.3333 42.8935C34.6822 43.139 34.0204 43.3311 33.3836 43.5161C32.9175 43.6513 32.4372 43.7901 31.9605 43.9466C31.9113 43.9634 31.8591 43.9693 31.8075 43.9637C31.7559 43.9582 31.7061 43.9414 31.6616 43.9146C31.6177 43.8882 31.58 43.8525 31.5512 43.8102C31.5223 43.7678 31.5029 43.7197 31.4944 43.6691V43.6264C31.4525 43.3256 31.3882 43.0283 31.3023 42.737C31.224 42.5022 31.1244 42.3812 31.0746 42.3812C31.0248 42.3812 30.9643 42.3812 30.79 42.737C30.6797 42.9754 30.5374 43.2457 30.3844 43.541C29.7867 44.7044 28.9719 46.2805 29.406 47.2554L29.4095 47.2661Z" fill="#093F68"/>
<path d="M6.30342 33.5418C8.07736 33.3926 9.41111 32.0319 9.28244 30.5027C9.15376 28.9735 7.61138 27.8549 5.83743 28.0041C4.06349 28.1534 2.72974 29.5141 2.85842 31.0433C2.9871 32.5725 4.52948 33.6911 6.30342 33.5418Z" fill="#FFC9B0"/>
<path d="M5.98505 33.91C5.18514 33.9133 4.40456 33.6643 3.75431 33.1984C3.40254 32.9554 3.10817 32.6385 2.89183 32.2697C2.6755 31.901 2.54243 31.4893 2.50197 31.0637C2.471 30.637 2.5336 30.2086 2.68539 29.8086C2.83717 29.4085 3.07449 29.0464 3.38074 28.7476C4.03749 28.1089 4.89555 27.7179 5.80847 27.6413C6.7214 27.5647 7.6326 27.8074 8.38656 28.3278C8.74031 28.5691 9.03552 28.8867 9.25051 29.257C9.46549 29.6274 9.5948 30.0412 9.62892 30.4681C9.66304 30.895 9.60112 31.3241 9.4477 31.7239C9.29428 32.1237 9.05326 32.4841 8.74234 32.7786C8.09228 33.4268 7.23144 33.8206 6.31592 33.8886C6.20207 33.9064 6.0989 33.91 5.98505 33.91ZM6.15582 28.3456H5.86764C5.12131 28.3986 4.4185 28.7166 3.88595 29.2421C3.6493 29.4705 3.46625 29.7485 3.34997 30.0561C3.2337 30.3637 3.1871 30.6933 3.21353 31.021C3.24484 31.345 3.34675 31.6581 3.5121 31.9384C3.67745 32.2187 3.90221 32.4593 4.17058 32.6434C4.78364 33.0713 5.52908 33.2668 6.27323 33.1949C7.0201 33.144 7.72364 32.8257 8.25492 32.2983C8.49277 32.0754 8.67706 31.8015 8.79398 31.4972C8.9109 31.1929 8.95742 30.866 8.93003 30.5412C8.90265 30.2164 8.80208 29.9019 8.63587 29.6215C8.46966 29.3411 8.24211 29.1019 7.9703 28.9219C7.44159 28.5429 6.80636 28.3411 6.15582 28.3456Z" fill="#093F68"/>
<path d="M18.8393 17.7397C21.9951 22.2368 23.6495 19.4012 24.1369 18.4228L24.9872 28.5092C25.1909 30.9328 24.479 33.3447 22.9918 35.2691C21.5047 37.1936 19.3503 38.4909 16.9537 38.905L17.1245 40.9721C17.1618 41.4104 17.0234 41.8456 16.7398 42.1818C16.4563 42.5181 16.0507 42.728 15.6124 42.7652C15.1741 42.8025 14.739 42.6642 14.4027 42.3806C14.0664 42.097 13.8566 41.6915 13.8193 41.2532L13.6734 39.3106C7.77817 39.5846 4.48365 34.7673 4.10297 30.2667L4.86789 21.1659C4.86789 21.1659 8.9558 23.8378 18.8393 17.7397Z" fill="#FFC9B0"/>
<path d="M15.4701 43.1175C14.9653 43.1166 14.4791 42.9265 14.1076 42.5846C13.7361 42.2428 13.5063 41.774 13.4635 41.271L13.3283 39.6664C12.0585 39.7098 10.7943 39.4779 9.62252 38.9866C8.45076 38.4953 7.3992 37.7563 6.54005 36.8202C4.918 35.015 3.93201 32.7281 3.73296 30.3094C3.7294 30.2906 3.7294 30.2713 3.73296 30.2525L4.49432 21.1517C4.49923 21.0903 4.51998 21.0312 4.55454 20.9803C4.58911 20.9293 4.63631 20.8882 4.69152 20.8609C4.74674 20.8337 4.80808 20.8212 4.86956 20.8248C4.93103 20.8284 4.99052 20.8478 5.04222 20.8813C5.08136 20.9062 9.13369 23.3255 18.6508 17.4516C18.7283 17.4034 18.8214 17.3868 18.9108 17.4054C19.0002 17.4239 19.0791 17.4761 19.1311 17.5512C20.234 19.1273 21.2658 19.9207 22.1054 19.8637C22.7422 19.8139 23.3186 19.2803 23.8202 18.277C23.8552 18.2076 23.9118 18.1516 23.9815 18.1175C24.0512 18.0833 24.1302 18.0729 24.2064 18.0878C24.2826 18.1027 24.3518 18.1421 24.4035 18.2001C24.4552 18.258 24.4865 18.3312 24.4927 18.4086L25.343 28.4914C25.5346 30.9446 24.8279 33.3838 23.3545 35.3547C21.8811 37.3255 19.7416 38.6935 17.3344 39.2039L17.4803 40.9543C17.5246 41.4869 17.3558 42.0153 17.011 42.4235C16.6661 42.8317 16.1734 43.0864 15.6409 43.1317L15.4701 43.1175ZM13.6734 38.9549C13.7625 38.9545 13.8485 38.9875 13.9143 39.0475C13.9802 39.1074 14.0212 39.1899 14.0292 39.2786L14.1929 41.2212C14.2216 41.5656 14.3861 41.8844 14.6499 42.1076C14.7806 42.2181 14.9318 42.3018 15.0948 42.3539C15.2578 42.406 15.4294 42.4255 15.6 42.4112C15.7705 42.397 15.9366 42.3493 16.0887 42.2709C16.2408 42.1924 16.3759 42.0848 16.4864 41.9542C16.5969 41.8235 16.6806 41.6724 16.7327 41.5094C16.7848 41.3463 16.8043 41.1747 16.79 41.0041L16.6157 38.9335C16.6082 38.8446 16.6344 38.7561 16.6891 38.6856C16.7438 38.6151 16.823 38.5677 16.911 38.5528C19.2121 38.1382 21.2768 36.8827 22.7037 35.0303C24.1306 33.178 24.8177 30.8613 24.6314 28.5305L23.8736 19.5151C23.6791 19.8009 23.4252 20.0414 23.1293 20.2201C22.8333 20.3988 22.5023 20.5114 22.1588 20.5504C21.0914 20.6287 19.9458 19.8388 18.7433 18.2094C10.7703 23.048 6.54005 22.2226 5.15963 21.6996L4.44807 30.2596C4.83943 34.778 8.12683 39.2075 13.6414 38.9477L13.6734 38.9549Z" fill="#093F68"/>
<path d="M19.2769 21.7711C19.8889 21.7711 24.4606 22.5111 24.8769 22.0166C25.2535 21.5285 25.4797 20.9412 25.528 20.3266C25.6073 19.5128 25.5143 18.6914 25.255 17.916C24.9957 17.1405 24.5759 16.4284 24.023 15.826C23.1375 14.8368 21.9684 14.1448 20.6752 13.8443C20.2838 13.7696 17.1174 14.0151 17.2099 14.1574C16.4983 12.809 15.093 11.9694 13.6521 11.5211C8.03432 9.7849 2.8435 12.5884 1.08951 18.135C0.260546 20.7393 0.239201 23.5358 0.538056 26.2504C0.847584 29.0646 1.53779 31.9179 3.18505 34.2198C6.34081 38.6315 12.8907 39.2648 17.0284 36.1197C20.9206 33.156 19.067 23.9307 19.2769 21.7711Z" fill="#725858"/>
<path d="M11.03 38.4319C10.4869 38.4322 9.94464 38.3918 9.40764 38.311C8.11427 38.1357 6.86974 37.7005 5.74899 37.0316C4.62823 36.3627 3.65443 35.4739 2.88621 34.4187C1.42751 32.3801 0.566528 29.7936 0.17517 26.2821C-0.180609 23.048 0.00439797 20.3441 0.740861 18.0209C2.55889 12.2822 8.03078 9.4039 13.7517 11.1757C15.4061 11.688 16.6833 12.5988 17.3807 13.7302C18.4932 13.5605 19.6174 13.4796 20.7428 13.4882C22.1185 13.7958 23.3629 14.5276 24.3006 15.5802C24.8827 16.2202 25.3241 16.9751 25.5962 17.7963C25.8683 18.6176 25.9651 19.4867 25.8802 20.3477C25.8279 21.031 25.574 21.6835 25.1509 22.2226C24.7951 22.6282 23.7278 22.6247 20.298 22.2226L19.6149 22.1408C19.6149 22.6389 19.6612 23.3576 19.7181 24.1616C19.9743 27.8368 20.3977 33.9847 17.2277 36.3897C15.4392 37.727 13.2631 38.444 11.03 38.4319ZM10.3362 11.3536C6.24476 11.3536 2.79371 13.9009 1.4204 18.2343C0.708839 20.4651 0.538067 23.0694 0.883173 26.2038C1.23895 29.5873 2.07859 32.067 3.46613 34.006C4.17953 34.9829 5.08308 35.8054 6.12246 36.4241C7.16184 37.0428 8.31559 37.445 9.51437 37.6065C10.7867 37.8101 12.0869 37.7576 13.3387 37.4521C14.5905 37.1467 15.7687 36.5944 16.8043 35.8276C19.6505 33.6538 19.2521 27.7443 19.0101 24.215C18.9241 23.3878 18.8955 22.5557 18.9247 21.7245C18.9336 21.6365 18.9749 21.5549 19.0407 21.4957C19.1065 21.4365 19.192 21.4039 19.2805 21.4043C19.4513 21.4043 19.8391 21.4541 20.3763 21.5182C21.4187 21.6427 24.1618 21.9736 24.6208 21.753C24.9411 21.3232 25.1324 20.8111 25.1722 20.2765C25.2447 19.5127 25.1555 18.7421 24.9103 18.0151C24.6651 17.2881 24.2694 16.6209 23.7491 16.057C22.9143 15.1249 21.8144 14.4707 20.5969 14.182C19.5248 14.181 18.4543 14.263 17.3949 14.4275C17.3806 14.4414 17.3636 14.4523 17.3451 14.4595C17.2616 14.5034 17.1641 14.5123 17.074 14.4842C16.9839 14.4562 16.9087 14.3936 16.8648 14.3101C16.2955 13.2179 15.0859 12.3426 13.5098 11.8517C12.4826 11.5287 11.413 11.3609 10.3362 11.3536Z" fill="#093F68"/>
<path d="M28.6161 46.4193L27.5275 49.7494C26.3818 44.9571 23.5 39.8872 20.5435 39.8872H8.48615C7.99948 39.8867 7.51749 39.9822 7.06773 40.1681C6.61797 40.354 6.20926 40.6268 5.86496 40.9707C5.52067 41.3147 5.24755 41.7231 5.0612 42.1727C4.87485 42.6223 4.77893 43.1042 4.77893 43.5909V58.128H31.4054L34.1236 48.0559L28.6161 46.4193Z" fill="#F56132"/>
<path d="M31.4091 58.4836H4.779C4.68464 58.4836 4.59414 58.4461 4.52742 58.3794C4.4607 58.3127 4.42322 58.2222 4.42322 58.1278V43.5907C4.42416 42.5144 4.85215 41.4824 5.61324 40.7213C6.37433 39.9602 7.40632 39.5322 8.48266 39.5312H20.54C23.4716 39.5312 26.2325 43.9607 27.5595 48.5004L28.2711 46.3088C28.2997 46.221 28.3614 46.1478 28.4431 46.1046C28.5248 46.0615 28.62 46.0518 28.7087 46.0776L34.2233 47.7142C34.3123 47.7406 34.3874 47.8009 34.4326 47.882C34.4778 47.9631 34.4895 48.0586 34.4652 48.1482L31.7506 58.2203C31.7304 58.2956 31.686 58.3621 31.6243 58.4096C31.5626 58.4572 31.487 58.4832 31.4091 58.4836ZM5.13833 57.772H31.1351L33.6932 48.2976L28.8439 46.8745L27.8655 49.8773C27.8414 49.9516 27.7935 50.0159 27.7292 50.0603C27.6649 50.1046 27.5878 50.1266 27.5097 50.1228C27.4321 50.1204 27.3574 50.0927 27.297 50.0439C27.2366 49.995 27.1939 49.9278 27.1753 49.8524C26.0475 45.1383 23.2617 40.2464 20.5365 40.2464H8.48622C7.59859 40.2473 6.74759 40.6003 6.11995 41.228C5.4923 41.8556 5.13928 42.7066 5.13833 43.5942V57.772Z" fill="#093F68"/>
<path d="M21.8244 58.1276L20.3657 49.6245L21.8244 58.1276Z" fill="#68E1FD"/>
<path d="M21.8243 58.4836C21.7396 58.4849 21.6571 58.4558 21.5919 58.4016C21.5267 58.3475 21.4829 58.2719 21.4685 58.1883L20.0098 49.6852C20.0016 49.6392 20.0026 49.592 20.0127 49.5463C20.0227 49.5007 20.0416 49.4575 20.0684 49.4191C20.0952 49.3808 20.1292 49.3481 20.1686 49.323C20.208 49.2978 20.252 49.2807 20.298 49.2725C20.3443 49.2643 20.3917 49.2654 20.4376 49.2757C20.4834 49.286 20.5268 49.3052 20.5652 49.3323C20.6036 49.3595 20.6362 49.3939 20.6612 49.4337C20.6861 49.4735 20.703 49.5179 20.7107 49.5642L22.1694 58.0674C22.1849 58.1603 22.1628 58.2555 22.1081 58.3322C22.0535 58.4089 21.9706 58.4608 21.8777 58.4765L21.8243 58.4836Z" fill="#093F68"/>
<path d="M20.5151 26.2146C19.1453 25.841 17.0284 26.2573 17.2739 29.0857C17.4056 30.612 18.4444 31.8501 19.8498 31.8359" fill="#FFC9B0"/>
<path d="M19.8249 32.1913C18.295 32.1913 17.0747 30.9034 16.9181 29.1138C16.7829 27.5662 17.3344 26.755 17.8218 26.3494C18.6437 25.6627 19.8 25.6378 20.6076 25.8691C20.6527 25.8815 20.6949 25.9026 20.7318 25.9313C20.7687 25.96 20.7996 25.9957 20.8227 26.0363C20.8459 26.077 20.8608 26.1217 20.8666 26.1681C20.8724 26.2145 20.869 26.2616 20.8566 26.3067C20.8442 26.3518 20.8231 26.394 20.7944 26.4309C20.7657 26.4678 20.73 26.4987 20.6894 26.5219C20.6488 26.545 20.604 26.5599 20.5576 26.5657C20.5112 26.5715 20.4641 26.5681 20.419 26.5557C20.0598 26.4466 19.6803 26.422 19.31 26.4837C18.9397 26.5454 18.5887 26.6918 18.2843 26.9115C17.7685 27.3456 17.5479 28.0714 17.6368 29.0711C17.7578 30.4942 18.6828 31.4975 19.8355 31.4975H19.8569C19.9512 31.4975 20.0417 31.535 20.1085 31.6017C20.1752 31.6684 20.2127 31.7589 20.2127 31.8533C20.2127 31.9477 20.1752 32.0381 20.1085 32.1049C20.0417 32.1716 19.9512 32.2091 19.8569 32.2091L19.8249 32.1913Z" fill="#093F68"/>
<path d="M23.3151 27.054C23.6255 27.054 23.8772 26.8023 23.8772 26.4918C23.8772 26.1814 23.6255 25.9297 23.3151 25.9297C23.0046 25.9297 22.7529 26.1814 22.7529 26.4918C22.7529 26.8023 23.0046 27.054 23.3151 27.054Z" fill="#093F68"/>
<path d="M24.3468 25.396C24.2213 25.3961 24.0982 25.3617 23.991 25.2964C23.9661 25.2964 23.0233 24.7592 22.3687 25.2146C22.2139 25.3226 22.0226 25.3648 21.8368 25.3317C21.651 25.2987 21.4859 25.1932 21.3778 25.0385C21.2698 24.8837 21.2277 24.6924 21.2607 24.5066C21.2937 24.3208 21.3992 24.1557 21.5539 24.0476C22.9771 23.0621 24.6421 24.0298 24.7097 24.069C24.845 24.1475 24.9507 24.2683 25.0104 24.4129C25.0701 24.5574 25.0805 24.7177 25.04 24.8687C24.9995 25.0198 24.9103 25.1533 24.7863 25.2486C24.6623 25.3439 24.5103 25.3957 24.3539 25.396H24.3468Z" fill="#093F68"/>
<path d="M29.3526 56.1783C29.2737 56.1816 29.1959 56.1586 29.1314 56.1129C29.067 56.0672 29.0197 56.0013 28.9968 55.9257L27.193 49.8525C27.1746 49.7651 27.1897 49.674 27.2354 49.5973C27.281 49.5205 27.3538 49.4637 27.4394 49.4382C27.525 49.4127 27.617 49.4202 27.6973 49.4594C27.7775 49.4986 27.8401 49.5665 27.8726 49.6497L29.6835 55.7229C29.71 55.813 29.6999 55.9099 29.6552 55.9926C29.6106 56.0752 29.535 56.1369 29.4451 56.164C29.415 56.1728 29.3839 56.1776 29.3526 56.1783Z" fill="#093F68"/>
<path d="M8.33672 58.484C8.24821 58.4844 8.16272 58.4518 8.09693 58.3926C8.03114 58.3334 7.98979 58.2518 7.98094 58.1637L7.09505 49.0416C7.08608 48.9472 7.11497 48.8532 7.17535 48.7801C7.23574 48.707 7.32267 48.661 7.41703 48.652C7.51139 48.643 7.60544 48.6719 7.6785 48.7323C7.75156 48.7927 7.79764 48.8796 7.80661 48.974L8.6925 58.0926C8.70146 58.1859 8.67322 58.279 8.61393 58.3516C8.55464 58.4242 8.46908 58.4705 8.37585 58.4804L8.33672 58.484Z" fill="#093F68"/>
<path d="M23.3186 33.9314H23.2973C22.5344 33.8885 21.775 33.797 21.0238 33.6574C20.9295 33.6381 20.8467 33.5821 20.7936 33.5017C20.7406 33.4213 20.7216 33.3231 20.741 33.2287C20.7603 33.1344 20.8164 33.0516 20.8968 32.9985C20.9772 32.9455 21.0753 32.9265 21.1697 32.9459C21.8856 33.0786 22.6094 33.1654 23.3364 33.2056C23.4307 33.2056 23.5212 33.2431 23.588 33.3098C23.6547 33.3765 23.6922 33.467 23.6922 33.5614C23.6922 33.6557 23.6547 33.7462 23.588 33.8129C23.5212 33.8797 23.4307 33.9172 23.3364 33.9172L23.3186 33.9314Z" fill="#093F68"/>
<path d="M54.1753 42.5873L45.9248 49.4147H55.3992L63.4256 42.3916L54.1753 42.5873Z" fill="white"/>
<path d="M55.3992 49.7708H45.9248C45.8519 49.7703 45.7809 49.7473 45.7214 49.705C45.662 49.6627 45.617 49.6031 45.5925 49.5344C45.568 49.4656 45.5653 49.391 45.5846 49.3207C45.604 49.2503 45.6445 49.1877 45.7007 49.1411L53.9476 42.3137C54.011 42.2645 54.0881 42.2359 54.1682 42.2319L63.4185 42.0362C63.4937 42.0348 63.5675 42.0557 63.6309 42.0962C63.6942 42.1367 63.7441 42.1951 63.7743 42.2639C63.8001 42.332 63.8044 42.4064 63.7866 42.477C63.7687 42.5476 63.7297 42.6111 63.6747 42.6588L55.6483 49.6819C55.5798 49.7424 55.4906 49.7743 55.3992 49.7708ZM46.9139 49.0593H55.264L62.4579 42.762L54.307 42.9328L46.9139 49.0593Z" fill="#093F68"/>
<path d="M54.6307 48.1906H49.3723C49.2779 48.1906 49.1874 48.1531 49.1207 48.0864C49.054 48.0196 49.0165 47.9291 49.0165 47.8348C49.0165 47.7404 49.054 47.6499 49.1207 47.5832C49.1874 47.5165 49.2779 47.479 49.3723 47.479H54.6307C54.725 47.479 54.8155 47.5165 54.8822 47.5832C54.949 47.6499 54.9865 47.7404 54.9865 47.8348C54.9865 47.9291 54.949 48.0196 54.8822 48.0864C54.8155 48.1531 54.725 48.1906 54.6307 48.1906Z" fill="#DFEAEF"/>
<path d="M56.5341 47.0563H51.2757C51.1813 47.0563 51.0908 47.0188 51.0241 46.9521C50.9574 46.8854 50.9199 46.7949 50.9199 46.7005C50.9199 46.6061 50.9574 46.5157 51.0241 46.4489C51.0908 46.3822 51.1813 46.3447 51.2757 46.3447H56.5341C56.6285 46.3447 56.719 46.3822 56.7857 46.4489C56.8524 46.5157 56.8899 46.6061 56.8899 46.7005C56.8899 46.7949 56.8524 46.8854 56.7857 46.9521C56.719 47.0188 56.6285 47.0563 56.5341 47.0563Z" fill="#DFEAEF"/>
<path d="M57.7652 45.6862H52.5032C52.4088 45.6862 52.3183 45.6487 52.2516 45.582C52.1849 45.5152 52.1474 45.4247 52.1474 45.3304C52.1474 45.236 52.1849 45.1455 52.2516 45.0788C52.3183 45.0121 52.4088 44.9746 52.5032 44.9746H57.7652C57.8595 44.9746 57.95 45.0121 58.0167 45.0788C58.0834 45.1455 58.1209 45.236 58.1209 45.3304C58.1209 45.4247 58.0834 45.5152 58.0167 45.582C57.95 45.6487 57.8595 45.6862 57.7652 45.6862Z" fill="#DFEAEF"/>
<path d="M59.3661 44.3844H54.1077C54.0134 44.3844 53.9229 44.3469 53.8562 44.2802C53.7894 44.2135 53.752 44.123 53.752 44.0286C53.752 43.9343 53.7894 43.8438 53.8562 43.7771C53.9229 43.7103 54.0134 43.6729 54.1077 43.6729H59.3661C59.4605 43.6729 59.551 43.7103 59.6177 43.7771C59.6844 43.8438 59.7219 43.9343 59.7219 44.0286C59.7219 44.123 59.6844 44.2135 59.6177 44.2802C59.551 44.3469 59.4605 44.3844 59.3661 44.3844Z" fill="#DFEAEF"/>
<path d="M42.9363 1.80469H29.7974C28.7915 1.80469 27.8268 2.20427 27.1156 2.91552C26.4043 3.62677 26.0048 4.59143 26.0048 5.5973V13.3462C26.0038 13.8448 26.1012 14.3388 26.2914 14.7997C26.4816 15.2607 26.7608 15.6796 27.1131 16.0325C27.4653 16.3855 27.8838 16.6655 28.3444 16.8565C28.805 17.0476 29.2987 17.1459 29.7974 17.1459L28.915 20.629L32.1171 17.1459H42.9434C43.9493 17.1459 44.9139 16.7463 45.6252 16.0351C46.3364 15.3238 46.736 14.3591 46.736 13.3533V5.5973C46.7355 5.09878 46.6369 4.60523 46.4457 4.14484C46.2545 3.68444 45.9745 3.26622 45.6216 2.91405C45.2688 2.56187 44.85 2.28264 44.3893 2.09229C43.9285 1.90195 43.4348 1.80422 42.9363 1.80469Z" fill="white"/>
<path d="M28.9221 20.9774C28.8669 20.9792 28.812 20.9681 28.7618 20.9449C28.7116 20.9218 28.6675 20.8873 28.633 20.8441C28.5985 20.8009 28.5745 20.7503 28.5629 20.6963C28.5513 20.6422 28.5525 20.5862 28.5664 20.5327L29.342 17.473C28.3251 17.361 27.3852 16.8782 26.702 16.1168C26.0187 15.3554 25.64 14.369 25.6383 13.346V5.59712C25.6392 4.49719 26.0766 3.44257 26.8544 2.66481C27.6321 1.88704 28.6868 1.44967 29.7867 1.44873H42.9256C44.0255 1.44967 45.0802 1.88704 45.8579 2.66481C46.6357 3.44257 47.0731 4.49719 47.074 5.59712V13.346C47.074 14.445 46.6386 15.4993 45.8632 16.2781C45.0877 17.0569 44.0353 17.4968 42.9363 17.5015H32.2629L29.1783 20.8636C29.1455 20.8989 29.1059 20.9272 29.0619 20.9468C29.0179 20.9664 28.9703 20.9768 28.9221 20.9774ZM29.7974 2.16029C28.8862 2.16123 28.0125 2.52363 27.3682 3.16795C26.7239 3.81228 26.3615 4.6859 26.3605 5.59712V13.346C26.3615 14.2575 26.7238 15.1315 27.368 15.7764C28.0122 16.4213 28.8858 16.7845 29.7974 16.7864C29.852 16.7855 29.9061 16.7973 29.9555 16.8207C30.0048 16.8442 30.0481 16.8787 30.082 16.9216C30.1152 16.9643 30.1383 17.0141 30.1494 17.0671C30.1605 17.1202 30.1594 17.175 30.146 17.2275L29.6124 19.3409L31.8502 16.9002C31.8834 16.8645 31.9236 16.8359 31.9682 16.8163C32.0129 16.7967 32.0611 16.7865 32.1099 16.7864H42.9363C43.8478 16.7845 44.7214 16.4213 45.3657 15.7764C46.0099 15.1315 46.3722 14.2575 46.3731 13.346V5.59712C46.3712 4.68619 46.0085 3.81311 45.3644 3.16899C44.7203 2.52487 43.8472 2.16217 42.9363 2.16029H29.7974Z" fill="#093F68"/>
<path d="M49.0984 26.5702C49.0984 26.5702 47.259 27.175 45.9248 27.6055V26.0045C45.9248 24.9993 45.5258 24.0352 44.8153 23.324C44.1048 22.6129 43.141 22.2129 42.1358 22.2119H33.8461C33.347 22.2105 32.8525 22.3076 32.391 22.4975C31.9294 22.6874 31.5098 22.9665 31.1562 23.3188C30.8026 23.671 30.522 24.0896 30.3303 24.5504C30.1387 25.0113 30.0398 25.5054 30.0393 26.0045V30.1636C30.0393 31.1704 30.4393 32.136 31.1512 32.8479C31.8631 33.5598 32.8287 33.9598 33.8355 33.9598H42.1358C43.142 33.9588 44.1066 33.5584 44.8178 32.8466C45.5289 32.1348 45.9284 31.1698 45.9284 30.1636V29.5588L49.0984 26.5702Z" fill="white"/>
<path d="M42.1357 34.3123H33.8461C33.3004 34.3132 32.7598 34.2066 32.2553 33.9987C31.7508 33.7907 31.2922 33.4854 30.9056 33.1002C30.5191 32.715 30.2122 32.2574 30.0025 31.7536C29.7928 31.2498 29.6844 30.7096 29.6835 30.1639V26.0048C29.6854 24.9046 30.1235 23.85 30.9018 23.0723C31.6802 22.2946 32.7352 21.8574 33.8354 21.8564H42.1357C43.2357 21.8574 44.2903 22.2948 45.0681 23.0725C45.8458 23.8503 46.2832 24.9049 46.2841 26.0048V27.1077L48.988 26.2219C49.0654 26.1959 49.1493 26.1972 49.2257 26.2257C49.3021 26.2542 49.3664 26.3081 49.4079 26.3784C49.4491 26.4482 49.4652 26.53 49.4535 26.6103C49.4419 26.6905 49.4032 26.7643 49.3438 26.8196L46.2841 29.7049V30.1532C46.2851 30.6988 46.1785 31.2391 45.9705 31.7435C45.7625 32.2478 45.4571 32.7062 45.0718 33.0924C44.6866 33.4787 44.229 33.7852 43.7252 33.9945C43.2214 34.2038 42.6813 34.3118 42.1357 34.3123ZM33.8496 22.5716C33.3974 22.5702 32.9493 22.6578 32.5309 22.8296C32.1125 23.0014 31.7321 23.2539 31.4113 23.5727C31.0905 23.8915 30.8356 24.2704 30.6613 24.6877C30.4869 25.105 30.3964 25.5526 30.395 26.0048V30.1639C30.3969 31.0754 30.7601 31.949 31.405 32.5933C32.0499 33.2375 32.9239 33.5998 33.8354 33.6007H42.1357C43.047 33.5998 43.9206 33.2374 44.5649 32.593C45.2092 31.9487 45.5716 31.0751 45.5726 30.1639V29.5591C45.5732 29.5109 45.5836 29.4633 45.6032 29.4193C45.6228 29.3753 45.6511 29.3357 45.6864 29.3029L47.6966 27.4066L46.0493 27.9438C45.9958 27.9615 45.9389 27.9662 45.8832 27.9575C45.8275 27.9488 45.7747 27.9271 45.7291 27.894C45.6838 27.8609 45.6469 27.8175 45.6216 27.7674C45.5962 27.7173 45.5831 27.662 45.5832 27.6058V26.0048C45.5823 25.0936 45.2199 24.22 44.5756 23.5757C43.9313 22.9313 43.0576 22.5689 42.1464 22.568L33.8496 22.5716Z" fill="#093F68"/>
<path d="M42.182 6.08461H38.1546C38.0602 6.08461 37.9698 6.04712 37.903 5.9804C37.8363 5.91368 37.7988 5.82318 37.7988 5.72883C37.7988 5.63447 37.8363 5.54397 37.903 5.47725C37.9698 5.41053 38.0602 5.37305 38.1546 5.37305H42.182C42.2764 5.37305 42.3669 5.41053 42.4336 5.47725C42.5003 5.54397 42.5378 5.63447 42.5378 5.72883C42.5378 5.82318 42.5003 5.91368 42.4336 5.9804C42.3669 6.04712 42.2764 6.08461 42.182 6.08461Z" fill="#DFEAEF"/>
<path d="M34.9704 6.08461H30.8967C30.8024 6.08461 30.7119 6.04712 30.6452 5.9804C30.5784 5.91368 30.541 5.82318 30.541 5.72883C30.541 5.63447 30.5784 5.54397 30.6452 5.47725C30.7119 5.41053 30.8024 5.37305 30.8967 5.37305H34.9704C35.0648 5.37305 35.1553 5.41053 35.222 5.47725C35.2887 5.54397 35.3262 5.63447 35.3262 5.72883C35.3262 5.82318 35.2887 5.91368 35.222 5.9804C35.1553 6.04712 35.0648 6.08461 34.9704 6.08461Z" fill="#DFEAEF"/>
<path d="M42.182 9.67445H30.8967C30.8024 9.67445 30.7119 9.63697 30.6452 9.57024C30.5784 9.50352 30.541 9.41303 30.541 9.31867C30.541 9.22431 30.5784 9.13382 30.6452 9.0671C30.7119 9.00037 30.8024 8.96289 30.8967 8.96289H42.182C42.2764 8.96289 42.3669 9.00037 42.4336 9.0671C42.5003 9.13382 42.5378 9.22431 42.5378 9.31867C42.5378 9.41303 42.5003 9.50352 42.4336 9.57024C42.3669 9.63697 42.2764 9.67445 42.182 9.67445Z" fill="#DFEAEF"/>
<path d="M38.2436 13.296H30.8967C30.8024 13.296 30.7119 13.2585 30.6452 13.1918C30.5784 13.1251 30.541 13.0346 30.541 12.9403C30.541 12.8459 30.5784 12.7554 30.6452 12.6887C30.7119 12.622 30.8024 12.5845 30.8967 12.5845H38.2436C38.3379 12.5845 38.4284 12.622 38.4951 12.6887C38.5619 12.7554 38.5993 12.8459 38.5993 12.9403C38.5993 13.0346 38.5619 13.1251 38.4951 13.1918C38.4284 13.2585 38.3379 13.296 38.2436 13.296Z" fill="#DFEAEF"/>
<path d="M42.182 26.7516H34.1272C34.0328 26.7516 33.9423 26.7141 33.8756 26.6474C33.8089 26.5807 33.7714 26.4902 33.7714 26.3958C33.7714 26.3015 33.8089 26.211 33.8756 26.1442C33.9423 26.0775 34.0328 26.04 34.1272 26.04H42.182C42.2764 26.04 42.3669 26.0775 42.4336 26.1442C42.5003 26.211 42.5378 26.3015 42.5378 26.3958C42.5378 26.4902 42.5003 26.5807 42.4336 26.6474C42.3669 26.7141 42.2764 26.7516 42.182 26.7516Z" fill="#DFEAEF"/>
<path d="M38.8769 30.6124H34.1272C34.0328 30.6124 33.9423 30.575 33.8756 30.5082C33.8089 30.4415 33.7714 30.351 33.7714 30.2567C33.7714 30.1623 33.8089 30.0718 33.8756 30.0051C33.9423 29.9384 34.0328 29.9009 34.1272 29.9009H38.8769C38.9712 29.9009 39.0617 29.9384 39.1284 30.0051C39.1951 30.0718 39.2326 30.1623 39.2326 30.2567C39.2326 30.351 39.1951 30.4415 39.1284 30.5082C39.0617 30.575 38.9712 30.6124 38.8769 30.6124Z" fill="#DFEAEF"/>
</svg>
