<svg width="71" height="51" viewBox="0 0 71 51" fill="none" xmlns="http://www.w3.org/2000/svg">
<path d="M14.4711 50.1881L16.0362 38.5347L15.3601 19.0498C15.3601 19.0498 3.04312 25.5354 2.17921 30.0646C1.21514 35.1135 0.557816 45.5492 0.301147 50.1881H14.4711Z" fill="#FFC9B0"/>
<path d="M14.4711 50.5012H0.313659C0.270968 50.5014 0.228676 50.493 0.189381 50.4763C0.150086 50.4596 0.114619 50.435 0.0851627 50.4041C0.0557325 50.3729 0.0330431 50.3359 0.0185043 50.2955C0.00396546 50.2552 -0.00211332 50.2122 0.000648594 50.1694C0.241666 45.8091 0.905248 35.1167 1.87871 30.0084C2.7614 25.3821 14.7121 19.053 15.2223 18.7745C15.2692 18.7501 15.3214 18.7381 15.3741 18.7393C15.4269 18.7406 15.4784 18.7552 15.524 18.7818C15.5696 18.8083 15.6078 18.846 15.6349 18.8912C15.6621 18.9364 15.6773 18.9878 15.6793 19.0405L16.3554 38.5223C16.3569 38.54 16.3569 38.5578 16.3554 38.5755L14.7904 50.2289C14.7803 50.3057 14.7421 50.3761 14.6831 50.4264C14.6242 50.4767 14.5486 50.5034 14.4711 50.5012ZM0.642321 49.8751H14.1957L15.7325 38.5191L15.0752 19.5664C12.8841 20.7715 3.23404 26.2679 2.49534 30.1242C1.55005 35.0729 0.898989 45.3396 0.642321 49.8751Z" fill="#093F68"/>
<path d="M64.3555 0.312988H16.4775C13.8256 0.312988 11.6759 2.46273 11.6759 5.11456V41.3048C11.6759 43.9566 13.8256 46.1064 16.4775 46.1064H64.3555C67.0074 46.1064 69.1571 43.9566 69.1571 41.3048V5.11456C69.1571 2.46273 67.0074 0.312988 64.3555 0.312988Z" fill="#68E1FD"/>
<path d="M64.3556 46.4225H16.4651C15.1085 46.4209 13.8081 45.8811 12.8492 44.9216C11.8903 43.9621 11.3513 42.6613 11.3505 41.3048V5.11459C11.3521 3.75862 11.8915 2.45867 12.8503 1.49986C13.8091 0.541044 15.1091 0.00165665 16.4651 0H64.3556C65.7116 0.00165665 67.0115 0.541044 67.9703 1.49986C68.9292 2.45867 69.4685 3.75862 69.4702 5.11459V41.3048C69.4694 42.6613 68.9304 43.9621 67.9715 44.9216C67.0125 45.8811 65.7121 46.4209 64.3556 46.4225ZM16.4651 0.62602C15.2749 0.62685 14.1337 1.10002 13.2921 1.94161C12.4505 2.7832 11.9773 3.9244 11.9765 5.11459V41.3048C11.9773 42.4953 12.4504 43.6368 13.2919 44.4789C14.1334 45.321 15.2746 45.7949 16.4651 45.7965H64.3556C65.5461 45.7949 66.6873 45.321 67.5288 44.4789C68.3703 43.6368 68.8433 42.4953 68.8442 41.3048V5.11459C68.8433 3.9244 68.3702 2.7832 67.5286 1.94161C66.687 1.10002 65.5458 0.62685 64.3556 0.62602H16.4651Z" fill="#093F68"/>
<path d="M15.4384 5.0332H65.3916V41.3893H15.4384V5.0332Z" fill="white"/>
<path d="M65.3947 41.7024H15.4414C15.3584 41.7024 15.2788 41.6694 15.2201 41.6107C15.1614 41.552 15.1284 41.4724 15.1284 41.3894V5.03323C15.1284 4.95021 15.1614 4.87059 15.2201 4.81189C15.2788 4.75319 15.3584 4.72021 15.4414 4.72021H65.3947C65.4777 4.72021 65.5574 4.75319 65.6161 4.81189C65.6748 4.87059 65.7077 4.95021 65.7077 5.03323V41.3894C65.7077 41.4724 65.6748 41.552 65.6161 41.6107C65.5574 41.6694 65.4777 41.7024 65.3947 41.7024ZM15.7544 41.0764H65.0817V5.34624H15.7544V41.0764Z" fill="#093F68"/>
<path d="M19.8549 33.4482H25.32V37.1355H19.8549V33.4482Z" fill="#F56132"/>
<path d="M25.3169 37.4579H19.8487C19.7656 37.4579 19.686 37.4249 19.6273 37.3662C19.5686 37.3075 19.5356 37.2279 19.5356 37.1449V33.4483C19.5356 33.3652 19.5686 33.2856 19.6273 33.2269C19.686 33.1682 19.7656 33.1353 19.8487 33.1353H25.3107C25.3937 33.1353 25.4733 33.1682 25.532 33.2269C25.5907 33.2856 25.6237 33.3652 25.6237 33.4483V37.1449C25.6237 37.2269 25.5916 37.3055 25.5342 37.3641C25.4769 37.4226 25.3989 37.4563 25.3169 37.4579ZM20.1617 36.8319H24.9977V33.7738H20.1617V36.8319Z" fill="#093F68"/>
<path d="M28.7694 31.6704H34.2346V37.1356H28.7694V31.6704Z" fill="#F56132"/>
<path d="M34.2471 37.458H28.7694C28.6864 37.458 28.6068 37.425 28.5481 37.3663C28.4894 37.3076 28.4564 37.228 28.4564 37.145V31.6704C28.4564 31.5874 28.4894 31.5078 28.5481 31.4491C28.6068 31.3904 28.6864 31.3574 28.7694 31.3574H34.2471C34.3301 31.3574 34.4097 31.3904 34.4684 31.4491C34.5271 31.5078 34.5601 31.5874 34.5601 31.6704V37.145C34.5601 37.228 34.5271 37.3076 34.4684 37.3663C34.4097 37.425 34.3301 37.458 34.2471 37.458ZM29.095 36.832H33.9341V31.9834H29.0824L29.095 36.832Z" fill="#093F68"/>
<path d="M37.684 26.5029H43.1491V37.1359H37.684V26.5029Z" fill="#FFBC0E"/>
<path d="M43.1491 37.4578H37.6902C37.6072 37.4578 37.5276 37.4248 37.4689 37.3661C37.4102 37.3074 37.3772 37.2278 37.3772 37.1448V26.5025C37.3772 26.4194 37.4102 26.3398 37.4689 26.2811C37.5276 26.2224 37.6072 26.1895 37.6902 26.1895H43.1554C43.2384 26.1895 43.318 26.2224 43.3767 26.2811C43.4354 26.3398 43.4684 26.4194 43.4684 26.5025V37.1448C43.4684 37.1864 43.4601 37.2277 43.444 37.2661C43.4278 37.3044 43.4042 37.3392 43.3745 37.3684C43.3448 37.3975 43.3095 37.4205 43.2708 37.4358C43.2321 37.4512 43.1907 37.4587 43.1491 37.4578ZM38.0032 36.8318H42.8424V26.8155H38.0032V36.8318Z" fill="#093F68"/>
<path d="M46.5985 19.9888H52.0637V37.1323H46.5985V19.9888Z" fill="#70CC40"/>
<path d="M52.0637 37.4584H46.5985C46.5155 37.4584 46.4359 37.4254 46.3772 37.3667C46.3185 37.308 46.2855 37.2284 46.2855 37.1454V19.9893C46.2855 19.9063 46.3185 19.8266 46.3772 19.7679C46.4359 19.7092 46.5155 19.6763 46.5985 19.6763H52.0637C52.1467 19.6763 52.2263 19.7092 52.285 19.7679C52.3437 19.8266 52.3767 19.9063 52.3767 19.9893V37.1454C52.3767 37.2284 52.3437 37.308 52.285 37.3667C52.2263 37.4254 52.1467 37.4584 52.0637 37.4584ZM46.9115 36.8324H51.7507V20.3023H46.9115V36.8324Z" fill="#093F68"/>
<path d="M55.5162 11.9321H60.9814V37.1357H55.5162V11.9321Z" fill="#70CC40"/>
<path d="M60.9781 37.4576H55.5318C55.4487 37.4576 55.3691 37.4247 55.3104 37.366C55.2517 37.3073 55.2188 37.2277 55.2188 37.1446V11.9317C55.2188 11.8486 55.2517 11.769 55.3104 11.7103C55.3691 11.6516 55.4487 11.6187 55.5318 11.6187H60.9781C61.0612 11.6187 61.1408 11.6516 61.1995 11.7103C61.2582 11.769 61.2911 11.8486 61.2911 11.9317V37.1446C61.2911 37.2277 61.2582 37.3073 61.1995 37.366C61.1408 37.4247 61.0612 37.4576 60.9781 37.4576ZM55.8448 36.8316H60.6651V12.2447H55.8448V36.8316Z" fill="#093F68"/>
<path d="M63.5793 37.4576H17.4791C17.3961 37.4576 17.3165 37.4246 17.2578 37.3659C17.1991 37.3072 17.1661 37.2276 17.1661 37.1446C17.1661 37.0615 17.1991 36.9819 17.2578 36.9232C17.3165 36.8645 17.3961 36.8315 17.4791 36.8315H63.5793C63.6623 36.8315 63.7419 36.8645 63.8006 36.9232C63.8593 36.9819 63.8923 37.0615 63.8923 37.1446C63.8923 37.2276 63.8593 37.3072 63.8006 37.3659C63.7419 37.4246 63.6623 37.4576 63.5793 37.4576Z" fill="#093F68"/>
<path d="M49.331 24.4144C48.4556 24.4144 47.5999 24.1549 46.8721 23.6685C46.1442 23.1822 45.5769 22.491 45.2419 21.6822C44.9069 20.8735 44.8193 19.9836 44.9901 19.125C45.1609 18.2665 45.5824 17.4778 46.2014 16.8588C46.8203 16.2399 47.609 15.8183 48.4675 15.6475C49.3261 15.4768 50.216 15.5644 51.0247 15.8994C51.8335 16.2344 52.5247 16.8017 53.011 17.5295C53.4974 18.2574 53.757 19.1131 53.757 19.9885C53.7553 21.1618 53.2885 22.2866 52.4588 23.1163C51.6291 23.9459 50.5043 24.4128 49.331 24.4144ZM49.331 16.1885C48.5794 16.1885 47.8448 16.4114 47.2199 16.8289C46.595 17.2465 46.1079 17.8399 45.8203 18.5343C45.5327 19.2286 45.4574 19.9927 45.6041 20.7298C45.7507 21.4669 46.1126 22.144 46.644 22.6754C47.1755 23.2069 47.8525 23.5688 48.5897 23.7154C49.3268 23.862 50.0908 23.7868 50.7852 23.4992C51.4795 23.2115 52.073 22.7245 52.4905 22.0996C52.9081 21.4747 53.1309 20.74 53.1309 19.9885C53.1293 18.9812 52.7284 18.0156 52.0161 17.3033C51.3039 16.5911 50.3383 16.1902 49.331 16.1885Z" fill="#093F68"/>
<path d="M55.0216 46.5071L55.9168 50.1881H70.6846C69.6079 47.7654 67.9521 44.0969 67.614 43.6149C67.1007 42.8699 67.301 33.1228 65.401 29.808C64.3775 28.1271 62.4806 27.5575 60.6026 27.7265C60.0392 27.7766 54.9684 29.0317 54.8213 28.412C54.2954 26.296 53.6694 24.2093 52.9432 22.1518C52.6621 21.19 52.2139 20.2851 51.6192 19.4787C51.0338 18.765 49.9947 18.2266 49.2027 18.7055C48.4108 19.1844 48.4108 20.3394 48.5172 21.2722C49.1433 26.7092 50.7866 32.0804 52.5864 37.2357C52.5864 37.2357 49.8601 35.4735 48.5172 35.0008C47.1744 34.5282 46.0132 35.8147 46.9084 38.5723C47.8036 41.3299 55.0216 46.5071 55.0216 46.5071Z" fill="#FFC9B0"/>
<path d="M70.6846 50.5009H55.9167C55.8448 50.5028 55.7744 50.4799 55.7174 50.436C55.6604 50.3921 55.6203 50.3299 55.6037 50.2599L54.7398 46.6947C53.8477 46.0436 47.4999 41.3297 46.6016 38.6503C46.0694 37.0352 46.1727 35.708 46.8801 35.0132C47.1075 34.7993 47.3921 34.6559 47.6993 34.6003C48.0065 34.5448 48.3232 34.5795 48.6111 34.7001C49.5501 35.0132 51.0776 35.9271 51.9979 36.4906C50.4328 31.9676 48.8208 26.7027 48.1979 21.3033C48.0884 20.3643 48.0539 19.0246 49.0305 18.4299C50.0071 17.8352 51.1559 18.4299 51.8476 19.275C52.5394 20.1201 52.8774 21.0435 53.2249 22.042C53.9354 24.0735 54.5583 26.1612 55.0779 28.249C55.6382 28.4118 58.3895 27.8421 59.46 27.623C60.086 27.4947 60.4147 27.4258 60.5649 27.4133C62.8124 27.2129 64.6685 28.0393 65.6545 29.645C66.941 31.8893 67.2915 36.9225 67.5325 40.2529C67.6327 41.7053 67.736 43.2046 67.8706 43.4394C68.1398 43.8338 69.1852 46.0656 70.9694 50.0721C70.9932 50.1218 71.0034 50.177 70.999 50.232C70.9946 50.2869 70.9757 50.3397 70.9444 50.3851C70.9133 50.4235 70.8735 50.4541 70.8284 50.4742C70.7832 50.4943 70.7339 50.5035 70.6846 50.5009ZM56.1609 49.8749H70.2025C68.6187 46.3285 67.5858 44.1155 67.3541 43.7806C67.1225 43.4457 67.063 42.4816 66.9097 40.2843C66.6843 37.0102 66.34 32.0646 65.1286 29.9549C64.2772 28.5558 62.6246 27.8484 60.6307 28.0268C60.5117 28.0268 60.0892 28.1269 59.6009 28.2271C55.7133 29.0315 54.6678 29.0847 54.5176 28.4775C53.998 26.3772 53.372 24.28 52.6614 22.2392C52.3903 21.3134 51.9603 20.4417 51.3906 19.6631C50.8773 19.0371 50.0008 18.5801 49.378 18.9557C48.8678 19.2687 48.6987 19.9855 48.8396 21.2219C49.4969 26.8999 51.2623 32.4433 52.9087 37.1166C52.9305 37.1783 52.9324 37.2453 52.9141 37.3081C52.8959 37.371 52.8583 37.4265 52.8069 37.467C52.7554 37.5074 52.6925 37.5307 52.6271 37.5335C52.5618 37.5363 52.4971 37.5186 52.4423 37.4828C52.4173 37.4828 49.7348 35.7362 48.4327 35.2917C48.2532 35.2138 48.055 35.1897 47.8621 35.2225C47.6693 35.2553 47.4901 35.3435 47.3465 35.4764C46.8238 35.9897 46.7768 37.1103 47.2245 38.4719C48.0915 41.1012 55.1405 46.2189 55.2125 46.269C55.2725 46.3134 55.3147 46.3778 55.3314 46.4506L56.1609 49.8749Z" fill="#093F68"/>
<path d="M2.13541 37.4297C2.13541 37.4297 2.05715 30.9003 9.5381 26.1958C15.9548 22.1642 16.2772 24.5274 15.9392 26.1457C15.5229 28.1396 10.8058 31.8832 10.8058 31.8832C10.8058 31.8832 13.7606 34.9225 10.0765 39.7084" fill="#FFC9B0"/>
<path d="M10.0764 40.034C10.0083 40.0331 9.94239 40.01 9.88861 39.9683C9.82268 39.918 9.77939 39.8436 9.76824 39.7615C9.75709 39.6793 9.77899 39.5961 9.82913 39.5301C13.3067 34.9977 10.6085 32.1305 10.5804 32.1023C10.55 32.0709 10.5265 32.0334 10.5115 31.9923C10.4965 31.9512 10.4902 31.9074 10.4932 31.8638C10.4961 31.8201 10.5082 31.7776 10.5286 31.7389C10.549 31.7002 10.5773 31.6662 10.6117 31.6391C11.8981 30.6155 15.3068 27.6263 15.6198 26.08C15.72 25.6074 15.817 24.7685 15.3506 24.4461C14.8843 24.1237 13.604 24.0016 9.69141 26.4619C5.91025 28.8376 4.14174 31.6923 3.32165 33.6611C2.80121 34.8491 2.50106 36.1219 2.43583 37.4172C2.43583 37.5003 2.40286 37.5799 2.34416 37.6386C2.28546 37.6973 2.20584 37.7303 2.12282 37.7303C2.03981 37.7303 1.96019 37.6973 1.90149 37.6386C1.84279 37.5799 1.80981 37.5003 1.80981 37.4172C1.80981 37.1418 1.80981 30.6531 9.35962 25.9141C12.6212 23.8639 14.6964 23.2066 15.7106 23.9109C16.2803 24.3084 16.4618 25.0972 16.2333 26.1896C15.8483 28.0238 12.2237 31.0976 11.2252 31.9114C11.8512 32.7847 13.4914 35.7426 10.308 39.8932C10.2825 39.9325 10.2484 39.9656 10.2083 39.99C10.1682 40.0143 10.1231 40.0294 10.0764 40.034Z" fill="#093F68"/>
<path d="M47.3215 18.8179C47.2786 18.8178 47.2362 18.8088 47.1969 18.7916C47.1575 18.7743 47.1222 18.7492 47.093 18.7177L41.005 12.2447H36.3349C36.2518 12.2447 36.1722 12.2117 36.1135 12.153C36.0548 12.0943 36.0219 12.0147 36.0219 11.9317C36.0219 11.8487 36.0548 11.769 36.1135 11.7103C36.1722 11.6516 36.2518 11.6187 36.3349 11.6187H41.1333C41.176 11.6184 41.2183 11.6269 41.2576 11.6436C41.2969 11.6602 41.3323 11.6848 41.3618 11.7157L47.5438 18.2889C47.5731 18.318 47.5964 18.3526 47.6123 18.3908C47.6282 18.4289 47.6363 18.4698 47.6363 18.5111C47.6363 18.5525 47.6282 18.5934 47.6123 18.6315C47.5964 18.6697 47.5731 18.7043 47.5438 18.7334C47.4837 18.7897 47.4038 18.82 47.3215 18.8179Z" fill="#093F68"/>
<path d="M33.7901 12.2452H28.325C28.242 12.2452 28.1623 12.2122 28.1036 12.1535C28.0449 12.0948 28.012 12.0152 28.012 11.9322C28.012 11.8491 28.0449 11.7695 28.1036 11.7108C28.1623 11.6521 28.242 11.6191 28.325 11.6191H33.7901C33.8731 11.6191 33.9528 11.6521 34.0115 11.7108C34.0702 11.7695 34.1031 11.8491 34.1031 11.9322C34.1031 12.0152 34.0702 12.0948 34.0115 12.1535C33.9528 12.2122 33.8731 12.2452 33.7901 12.2452Z" fill="#DFEAEF"/>
<path d="M33.7901 15.5474H29.9995C29.9165 15.5474 29.8369 15.5144 29.7782 15.4557C29.7195 15.397 29.6865 15.3174 29.6865 15.2344C29.6865 15.1514 29.7195 15.0718 29.7782 15.0131C29.8369 14.9544 29.9165 14.9214 29.9995 14.9214H33.7901C33.8731 14.9214 33.9527 14.9544 34.0114 15.0131C34.0701 15.0718 34.1031 15.1514 34.1031 15.2344C34.1031 15.3174 34.0701 15.397 34.0114 15.4557C33.9527 15.5144 33.8731 15.5474 33.7901 15.5474Z" fill="#DFEAEF"/>
<path d="M28.325 19.545H21.4387C21.3557 19.545 21.2761 19.512 21.2174 19.4533C21.1587 19.3946 21.1257 19.315 21.1257 19.232C21.1257 19.1489 21.1587 19.0693 21.2174 19.0106C21.2761 18.9519 21.3557 18.9189 21.4387 18.9189H28.325C28.408 18.9189 28.4876 18.9519 28.5463 19.0106C28.605 19.0693 28.638 19.1489 28.638 19.232C28.638 19.315 28.605 19.3946 28.5463 19.4533C28.4876 19.512 28.408 19.545 28.325 19.545Z" fill="#DFEAEF"/>
<path d="M33.1891 19.545H29.9995C29.9165 19.545 29.8369 19.512 29.7782 19.4533C29.7195 19.3946 29.6865 19.315 29.6865 19.232C29.6865 19.1489 29.7195 19.0693 29.7782 19.0106C29.8369 18.9519 29.9165 18.9189 29.9995 18.9189H33.1891C33.2721 18.9189 33.3517 18.9519 33.4104 19.0106C33.4691 19.0693 33.5021 19.1489 33.5021 19.232C33.5021 19.315 33.4691 19.3946 33.4104 19.4533C33.3517 19.512 33.2721 19.545 33.1891 19.545Z" fill="#DFEAEF"/>
<path d="M30.7632 23.523H21.4512C21.3682 23.523 21.2886 23.49 21.2299 23.4313C21.1712 23.3726 21.1382 23.293 21.1382 23.21C21.1382 23.127 21.1712 23.0474 21.2299 22.9887C21.2886 22.93 21.3682 22.897 21.4512 22.897H30.7632C30.8463 22.897 30.9259 22.93 30.9846 22.9887C31.0433 23.0474 31.0763 23.127 31.0763 23.21C31.0763 23.293 31.0433 23.3726 30.9846 23.4313C30.9259 23.49 30.8463 23.523 30.7632 23.523Z" fill="#DFEAEF"/>
<path d="M23.9429 16.8497C23.335 16.8497 22.7407 16.6694 22.2352 16.3316C21.7297 15.9939 21.3358 15.5138 21.1031 14.9522C20.8705 14.3905 20.8096 13.7725 20.9282 13.1762C21.0468 12.58 21.3396 12.0323 21.7694 11.6024C22.1993 11.1726 22.747 10.8798 23.3432 10.7612C23.9395 10.6426 24.5575 10.7035 25.1192 10.9361C25.6808 11.1688 26.1609 11.5627 26.4986 12.0682C26.8364 12.5737 27.0167 13.168 27.0167 13.7759C27.0158 14.5909 26.6917 15.3722 26.1155 15.9485C25.5392 16.5247 24.7579 16.8488 23.9429 16.8497ZM23.9429 11.3313C23.4587 11.3313 22.9853 11.4749 22.5827 11.744C22.1801 12.0131 21.8664 12.3956 21.6812 12.8431C21.496 13.2905 21.4477 13.7828 21.5424 14.2577C21.6371 14.7326 21.8706 15.1688 22.2132 15.511C22.5558 15.8532 22.9923 16.086 23.4673 16.1801C23.9423 16.2742 24.4346 16.2253 24.8818 16.0396C25.329 15.8538 25.7111 15.5396 25.9796 15.1367C26.2482 14.7337 26.3913 14.2602 26.3906 13.7759C26.3898 13.1273 26.1316 12.5055 25.6726 12.0471C25.2137 11.5888 24.5915 11.3313 23.9429 11.3313Z" fill="#DFEAEF"/>
<path d="M23.9428 16.8497C23.4563 16.8505 22.9765 16.7358 22.543 16.515C22.1094 16.2943 21.7345 15.9738 21.449 15.5799C21.1634 15.186 20.9755 14.7299 20.9006 14.2492C20.8256 13.7685 20.8659 13.2769 21.018 12.8148C21.1701 12.3527 21.4298 11.9333 21.7756 11.5911C22.1214 11.2489 22.5435 10.9936 23.0072 10.8464C23.4709 10.6991 23.9629 10.664 24.4428 10.7439C24.9227 10.8239 25.3767 11.0166 25.7676 11.3063C25.8346 11.3549 25.8796 11.428 25.8928 11.5097C25.9044 11.5917 25.8831 11.675 25.8334 11.7413L24.5625 13.4629H26.7035C26.7865 13.4629 26.8662 13.4959 26.9249 13.5546C26.9836 13.6133 27.0165 13.6929 27.0165 13.7759C27.0165 14.5911 26.6927 15.3729 26.1163 15.9494C25.5398 16.5258 24.758 16.8497 23.9428 16.8497ZM23.9428 11.3313C23.4719 11.3315 23.0111 11.4674 22.6156 11.7229C22.2201 11.9784 21.9066 12.3425 21.7129 12.7717C21.5191 13.2008 21.4532 13.6767 21.5231 14.1424C21.593 14.608 21.7957 15.0436 22.1069 15.3969C22.4181 15.7503 22.8246 16.0063 23.2777 16.1344C23.7308 16.2625 24.2112 16.2572 24.6614 16.1192C25.1116 15.9811 25.5124 15.7162 25.8157 15.356C26.1191 14.9959 26.3121 14.556 26.3717 14.0889H23.9428C23.885 14.0887 23.8283 14.0726 23.7792 14.0422C23.73 14.0118 23.6902 13.9684 23.6642 13.9168C23.6409 13.8667 23.6312 13.8114 23.6362 13.7565C23.6411 13.7015 23.6605 13.6488 23.6924 13.6037L25.1322 11.6506C24.7691 11.4453 24.3599 11.3354 23.9428 11.3313Z" fill="#DFEAEF"/>
<path d="M46.5985 7.73779H60.9782V8.91158H46.5985V7.73779Z" fill="#68E1FD"/>
<path d="M60.9782 9.22725H46.5985C46.5155 9.22725 46.4359 9.19428 46.3772 9.13558C46.3185 9.07687 46.2855 8.99726 46.2855 8.91424V7.73733C46.2855 7.65431 46.3185 7.5747 46.3772 7.51599C46.4359 7.45729 46.5155 7.42432 46.5985 7.42432H60.9782C61.0612 7.42432 61.1409 7.45729 61.1996 7.51599C61.2583 7.5747 61.2912 7.65431 61.2912 7.73733V8.91424C61.2912 8.99726 61.2583 9.07687 61.1996 9.13558C61.1409 9.19428 61.0612 9.22725 60.9782 9.22725ZM46.9115 8.60123H60.6652V8.05034H46.9115V8.60123Z" fill="#093F68"/>
</svg>
