<svg width="75" height="70" viewBox="0 0 75 70" fill="none" xmlns="http://www.w3.org/2000/svg">
<path d="M59.6245 28.6267C59.2506 28.6272 58.8868 28.5061 58.5877 28.2818C58.2886 28.0575 58.0705 27.7421 57.9663 27.3831L52.8383 9.19273C52.53 8.03808 51.8554 7.01464 50.9157 6.27611C49.9761 5.53758 48.8223 5.12383 47.6275 5.097H20.8601C19.6628 5.11935 18.5053 5.53062 17.5622 6.26872C16.6192 7.00683 15.942 8.03169 15.6327 9.18859L10.5213 27.3665C10.381 27.7867 10.0843 28.1368 9.69286 28.3442C9.30138 28.5516 8.8451 28.6004 8.41863 28.4805C7.99215 28.3605 7.6282 28.081 7.40222 27.7C7.17625 27.3189 7.10559 26.8655 7.2049 26.4338L12.3163 8.25585C12.8316 6.37779 13.9437 4.71828 15.4849 3.52778C17.0262 2.33729 18.9128 1.6804 20.8601 1.65625H47.6275C49.5723 1.68489 51.4552 2.34428 52.993 3.5352C54.5309 4.72613 55.6404 6.3842 56.1547 8.26L61.2661 26.4379C61.3885 26.8777 61.3316 27.3481 61.1078 27.7459C60.884 28.1438 60.5116 28.4367 60.0722 28.5604C59.9268 28.6032 59.7761 28.6255 59.6245 28.6267Z" fill="white"/>
<path d="M59.6244 29.0413C59.156 29.0436 58.6998 28.8925 58.3255 28.611C57.9512 28.3295 57.6794 27.9332 57.5516 27.4826L52.4527 9.30466C52.1694 8.2342 51.5452 7.28508 50.6747 6.60075C49.8041 5.91643 48.7345 5.53409 47.6274 5.51154H20.86C19.7529 5.53363 18.6831 5.91521 17.8119 6.59869C16.9407 7.28218 16.3155 8.23049 16.0305 9.30051L10.9191 27.4826C10.7516 28.0119 10.3848 28.4554 9.89625 28.7192C9.40771 28.9831 8.83573 29.0466 8.3012 28.8964C7.76666 28.7462 7.31147 28.3941 7.03183 27.9144C6.75219 27.4347 6.67002 26.8651 6.80268 26.326L11.9182 8.14807C12.4559 6.18167 13.6194 4.44392 15.2328 3.1978C16.8462 1.95168 18.8216 1.26501 20.86 1.2417H47.6274C49.6655 1.26636 51.6402 1.95354 53.2533 3.19946C54.8664 4.44537 56.0303 6.18236 56.5692 8.14807L61.6805 26.326C61.758 26.5953 61.781 26.8773 61.7483 27.1556C61.7155 27.4339 61.6277 27.7029 61.4898 27.9469C61.3026 28.2772 61.0315 28.5523 60.704 28.7444C60.3765 28.9365 60.0041 29.0389 59.6244 29.0413ZM20.86 4.68245H47.6274C48.9155 4.70531 50.1611 5.14688 51.176 5.9404C52.1909 6.73392 52.9199 7.83626 53.2528 9.0808L58.3642 27.2587C58.4625 27.5905 58.6867 27.8706 58.9887 28.0395C59.2907 28.2083 59.6468 28.2524 59.9809 28.1624C60.3135 28.0668 60.595 27.8438 60.7642 27.5419C60.9334 27.24 60.9767 26.8835 60.8846 26.5499L55.7691 8.37193C55.2803 6.57996 54.2215 4.99582 52.7526 3.859C51.2837 2.72218 49.4846 2.09448 47.6274 2.0708H20.86C19.0024 2.09493 17.203 2.72273 15.7336 3.85942C14.2641 4.9961 13.2043 6.57997 12.7141 8.37193L7.60276 26.5499C7.55501 26.7146 7.54104 26.8873 7.5617 27.0575C7.58236 27.2278 7.63722 27.3921 7.72298 27.5406C7.80575 27.6911 7.91767 27.8236 8.05219 27.9303C8.18671 28.0371 8.34114 28.116 8.50648 28.1624C8.84014 28.2557 9.19715 28.2129 9.49937 28.0435C9.80158 27.8742 10.0244 27.592 10.1191 27.2587L15.2346 9.0808C15.5675 7.83626 16.2965 6.73392 17.3114 5.9404C18.3263 5.14688 19.5719 4.70531 20.86 4.68245Z" fill="#093F68"/>
<path d="M56.5277 66.0353H11.9597C11.1028 66.0352 10.2753 65.7228 9.63205 65.1567C8.98881 64.5905 8.57394 63.8093 8.46506 62.9594L4.31958 30.3096H64.1513L60.0058 62.9594C59.899 63.8072 59.487 64.5871 58.8469 65.1533C58.2067 65.7194 57.3823 66.0329 56.5277 66.0353Z" fill="#68E1FD"/>
<path d="M56.5278 66.4499H11.9556C10.9989 66.4486 10.0754 66.0991 9.35751 65.4667C8.63965 64.8343 8.17655 63.9622 8.0547 63.0133L3.92165 30.3842C3.91513 30.3261 3.92099 30.2672 3.93885 30.2114C3.95671 30.1557 3.98617 30.1044 4.02529 30.0609C4.06414 30.0166 4.11196 29.9812 4.16557 29.9569C4.21917 29.9326 4.27734 29.92 4.3362 29.9199H64.1513C64.2102 29.92 64.2684 29.9326 64.322 29.9569C64.3756 29.9812 64.4234 30.0166 64.4622 30.0609C64.5006 30.1047 64.5293 30.1562 64.5465 30.2119C64.5636 30.2676 64.5688 30.3264 64.5617 30.3842L60.4162 63.0382C60.29 63.9808 59.8265 64.8458 59.1116 65.473C58.3967 66.1002 57.4788 66.4473 56.5278 66.4499ZM4.80464 30.7407L8.89623 62.9221C8.99101 63.6713 9.35563 64.3604 9.92181 64.8602C10.488 65.36 11.2169 65.6363 11.9722 65.6374H56.5278C57.2835 65.6364 58.013 65.3602 58.5798 64.8605C59.1467 64.3608 59.5122 63.6717 59.6079 62.9221L63.6787 30.7407H4.80464Z" fill="#093F68"/>
<path d="M64.5948 26.04H3.89261C1.97173 26.04 0.414551 27.5972 0.414551 29.5181V29.8207C0.414551 31.7416 1.97173 33.2988 3.89261 33.2988H64.5948C66.5157 33.2988 68.0729 31.7416 68.0729 29.8207V29.5181C68.0729 27.5972 66.5157 26.04 64.5948 26.04Z" fill="#68E1FD"/>
<path d="M64.5907 33.7006H3.8926C2.86018 33.6984 1.87072 33.287 1.14108 32.5566C0.411427 31.8262 0.00109483 30.8363 0 29.8039V29.5095C0.00109483 28.4771 0.411427 27.4872 1.14108 26.7568C1.87072 26.0264 2.86018 25.615 3.8926 25.6128H64.5907C65.6239 25.6139 66.6144 26.0248 67.3449 26.7553C68.0755 27.4859 68.4864 28.4764 68.4875 29.5095V29.8039C68.4864 30.837 68.0755 31.8275 67.3449 32.5581C66.6144 33.2886 65.6239 33.6995 64.5907 33.7006ZM3.8926 26.4543C3.08007 26.4565 2.3015 26.7806 1.72733 27.3555C1.15317 27.9304 0.830189 28.7094 0.829096 29.522V29.8163C0.830189 30.6288 1.15317 31.4079 1.72733 31.9828C2.3015 32.5577 3.08007 32.8818 3.8926 32.884H64.5907C65.404 32.8829 66.1836 32.5593 66.7587 31.9843C67.3337 31.4092 67.6573 30.6296 67.6584 29.8163V29.522C67.6573 28.7087 67.3337 27.9291 66.7587 27.354C66.1836 26.779 65.404 26.4554 64.5907 26.4543H3.8926Z" fill="#093F68"/>
<path d="M17.0131 35.8975H17.0089C15.5253 35.8975 14.3226 37.1001 14.3226 38.5837V58.5152C14.3226 59.9988 15.5253 61.2015 17.0089 61.2015H17.0131C18.4966 61.2015 19.6993 59.9988 19.6993 58.5152V38.5837C19.6993 37.1001 18.4966 35.8975 17.0131 35.8975Z" fill="#093F68"/>
<path d="M17.013 61.6162C16.1903 61.6163 15.4011 61.2897 14.819 60.7083C14.2368 60.1269 13.9092 59.3382 13.9081 58.5154V38.5881C13.9081 37.7635 14.2356 36.9727 14.8187 36.3896C15.4018 35.8066 16.1926 35.479 17.0172 35.479C17.8418 35.479 18.6326 35.8066 19.2157 36.3896C19.7987 36.9727 20.1263 37.7635 20.1263 38.5881V58.5154C20.1258 58.9235 20.0448 59.3275 19.888 59.7043C19.7312 60.0811 19.5016 60.4232 19.2125 60.7112C18.9233 60.9992 18.5803 61.2274 18.2029 61.3827C17.8255 61.538 17.4211 61.6173 17.013 61.6162ZM17.013 36.3288C16.7142 36.3288 16.4182 36.3877 16.1421 36.5021C15.866 36.6164 15.6151 36.7841 15.4038 36.9954C15.1924 37.2067 15.0248 37.4576 14.9104 37.7338C14.796 38.0099 14.7372 38.3058 14.7372 38.6047V58.532C14.7372 59.1367 14.9774 59.7166 15.405 60.1442C15.8326 60.5718 16.4125 60.812 17.0172 60.812C17.6219 60.812 18.2018 60.5718 18.6294 60.1442C19.057 59.7166 19.2972 59.1367 19.2972 58.532V38.5881C19.2972 38.2885 19.2381 37.9919 19.1232 37.7153C19.0083 37.4386 18.8399 37.1873 18.6277 36.9759C18.4155 36.7645 18.1636 36.597 17.8865 36.4831C17.6095 36.3692 17.3126 36.3112 17.013 36.3122V36.3288Z" fill="#093F68"/>
<path d="M28.5001 35.8975H28.496C27.0124 35.8975 25.8097 37.1001 25.8097 38.5837V58.5152C25.8097 59.9988 27.0124 61.2015 28.496 61.2015H28.5001C29.9837 61.2015 31.1864 59.9988 31.1864 58.5152V38.5837C31.1864 37.1001 29.9837 35.8975 28.5001 35.8975Z" fill="#093F68"/>
<path d="M28.5001 61.6162C27.6773 61.6163 26.8882 61.2897 26.306 60.7083C25.7239 60.1269 25.3962 59.3382 25.3951 58.5154V38.5881C25.3951 37.7635 25.7227 36.9727 26.3058 36.3896C26.8889 35.8066 27.6797 35.479 28.5043 35.479C29.3288 35.479 30.1197 35.8066 30.7027 36.3896C31.2858 36.9727 31.6134 37.7635 31.6134 38.5881V58.5154C31.6128 58.9235 31.5318 59.3275 31.375 59.7043C31.2182 60.0811 30.9887 60.4232 30.6995 60.7112C30.4104 60.9992 30.0673 61.2274 29.6899 61.3827C29.3125 61.538 28.9082 61.6173 28.5001 61.6162ZM28.5001 36.3288C28.2012 36.3288 27.9053 36.3877 27.6292 36.5021C27.353 36.6164 27.1022 36.7841 26.8908 36.9954C26.6795 37.2067 26.5118 37.4576 26.3975 37.7338C26.2831 38.0099 26.2242 38.3058 26.2242 38.6047V58.532C26.2242 59.1367 26.4645 59.7166 26.892 60.1442C27.3196 60.5718 27.8996 60.812 28.5043 60.812C29.1089 60.812 29.6889 60.5718 30.1165 60.1442C30.544 59.7166 30.7843 59.1367 30.7843 58.532V38.5881C30.7843 38.2885 30.7251 37.9919 30.6102 37.7153C30.4953 37.4386 30.327 37.1873 30.1147 36.9759C29.9025 36.7645 29.6507 36.597 29.3736 36.4831C29.0965 36.3692 28.7997 36.3112 28.5001 36.3122V36.3288Z" fill="#093F68"/>
<path d="M39.9914 35.8975H39.9873C38.5037 35.8975 37.301 37.1001 37.301 38.5837V58.5152C37.301 59.9988 38.5037 61.2015 39.9873 61.2015H39.9914C41.475 61.2015 42.6777 59.9988 42.6777 58.5152V38.5837C42.6777 37.1001 41.475 35.8975 39.9914 35.8975Z" fill="#093F68"/>
<path d="M39.9873 61.6162C39.1649 61.6162 38.3762 61.2896 37.7947 60.708C37.2132 60.1265 36.8865 59.3378 36.8865 58.5154V38.5881C36.8865 37.7635 37.214 36.9727 37.7971 36.3896C38.3802 35.8066 39.171 35.479 39.9956 35.479C40.8202 35.479 41.611 35.8066 42.1941 36.3896C42.7771 36.9727 43.1047 37.7635 43.1047 38.5881V58.5154C43.1042 58.9239 43.023 59.3282 42.866 59.7053C42.7089 60.0823 42.479 60.4247 42.1894 60.7127C41.8998 61.0007 41.5562 61.2288 41.1784 61.3839C40.8005 61.5389 40.3957 61.6179 39.9873 61.6162ZM39.9873 36.3288C39.3844 36.3299 38.8066 36.5702 38.3807 36.9969C37.9548 37.4236 37.7156 38.0018 37.7156 38.6047V58.532C37.7156 59.1367 37.9558 59.7166 38.3834 60.1442C38.811 60.5718 39.3909 60.812 39.9956 60.812C40.6003 60.812 41.1802 60.5718 41.6078 60.1442C42.0354 59.7166 42.2756 59.1367 42.2756 58.532V38.5881C42.2756 38.2882 42.2163 37.9912 42.1012 37.7143C41.986 37.4374 41.8173 37.1859 41.6046 36.9744C41.392 36.7629 41.1396 36.5955 40.8621 36.4819C40.5845 36.3683 40.2872 36.3106 39.9873 36.3122V36.3288Z" fill="#093F68"/>
<path d="M51.4785 35.8975H51.4744C49.9908 35.8975 48.7881 37.1001 48.7881 38.5837V58.5152C48.7881 59.9988 49.9908 61.2015 51.4744 61.2015H51.4785C52.9621 61.2015 54.1648 59.9988 54.1648 58.5152V38.5837C54.1648 37.1001 52.9621 35.8975 51.4785 35.8975Z" fill="#093F68"/>
<path d="M51.4744 61.6162C50.652 61.6162 49.8633 61.2896 49.2817 60.708C48.7002 60.1265 48.3735 59.3378 48.3735 58.5154V38.5881C48.3735 37.7635 48.7011 36.9727 49.2842 36.3896C49.8672 35.8066 50.6581 35.479 51.4826 35.479C52.3072 35.479 53.098 35.8066 53.6811 36.3896C54.2642 36.9727 54.5918 37.7635 54.5918 38.5881V58.5154C54.5918 58.924 54.511 59.3286 54.3541 59.7059C54.1973 60.0832 53.9674 60.4258 53.6777 60.7139C53.388 61.0021 53.0442 61.2301 52.6661 61.385C52.288 61.5398 51.883 61.6184 51.4744 61.6162ZM51.4744 36.3288C50.8715 36.3299 50.2937 36.5702 49.8678 36.9969C49.4418 37.4236 49.2026 38.0018 49.2026 38.6047V58.532C49.2026 59.1367 49.4428 59.7166 49.8704 60.1442C50.298 60.5718 50.8779 60.812 51.4826 60.812C52.0873 60.812 52.6673 60.5718 53.0949 60.1442C53.5224 59.7166 53.7627 59.1367 53.7627 58.532V38.5881C53.7627 38.2882 53.7034 37.9912 53.5882 37.7143C53.4731 37.4374 53.3043 37.1859 53.0917 36.9744C52.879 36.7629 52.6267 36.5955 52.3491 36.4819C52.0716 36.3683 51.7743 36.3106 51.4744 36.3122V36.3288Z" fill="#093F68"/>
<path d="M42.3005 0.416504H26.187C24.5363 0.416504 23.1981 1.75468 23.1981 3.40539V3.40954C23.1981 5.06026 24.5363 6.39843 26.187 6.39843H42.3005C43.9512 6.39843 45.2894 5.06026 45.2894 3.40954V3.40539C45.2894 1.75468 43.9512 0.416504 42.3005 0.416504Z" fill="#68E1FD"/>
<path d="M42.2964 6.8131H26.1871C25.3044 6.7823 24.4682 6.41002 23.8547 5.77472C23.2412 5.13943 22.8983 4.29076 22.8983 3.40759C22.8983 2.52441 23.2412 1.67574 23.8547 1.04044C24.4682 0.405152 25.3044 0.0328723 26.1871 0.00207288H42.2964C42.7536 -0.0138816 43.2094 0.0623937 43.6365 0.226353C44.0636 0.390312 44.4533 0.638598 44.7824 0.956404C45.1115 1.27421 45.3732 1.65503 45.5519 2.07616C45.7307 2.49728 45.8228 2.95009 45.8228 3.40759C45.8228 3.86508 45.7307 4.31789 45.5519 4.73901C45.3732 5.16014 45.1115 5.54096 44.7824 5.85876C44.4533 6.17657 44.0636 6.42486 43.6365 6.58881C43.2094 6.75277 42.7536 6.82905 42.2964 6.8131ZM26.1871 0.831169C25.5216 0.857866 24.8923 1.14098 24.431 1.62124C23.9696 2.10149 23.7119 2.74162 23.7119 3.40759C23.7119 4.07355 23.9696 4.71368 24.431 5.19393C24.8923 5.67418 25.5216 5.9573 26.1871 5.984H42.2964C42.6434 5.99792 42.9897 5.94159 43.3144 5.81839C43.6392 5.69519 43.9356 5.50765 44.1861 5.26704C44.4366 5.02642 44.6358 4.73769 44.772 4.41816C44.9081 4.09863 44.9783 3.7549 44.9783 3.40759C44.9783 3.06027 44.9081 2.71654 44.772 2.39701C44.6358 2.07748 44.4366 1.78875 44.1861 1.54813C43.9356 1.30752 43.6392 1.11998 43.3144 0.996777C42.9897 0.873574 42.6434 0.817245 42.2964 0.831169H26.1871Z" fill="#093F68"/>
<path d="M59.8193 68.6388C67.9744 68.6388 74.5855 62.0278 74.5855 53.8726C74.5855 45.7175 67.9744 39.1064 59.8193 39.1064C51.6641 39.1064 45.0531 45.7175 45.0531 53.8726C45.0531 62.0278 51.6641 68.6388 59.8193 68.6388Z" fill="white"/>
<path d="M59.8193 69.0573C56.8158 69.0581 53.8796 68.1682 51.3819 66.5002C48.8842 64.8321 46.9373 62.4609 45.7873 59.6863C44.6374 56.9117 44.3361 53.8584 44.9215 50.9125C45.507 47.9667 46.9529 45.2606 49.0763 43.1365C51.1998 41.0125 53.9055 39.5658 56.8512 38.9796C59.7969 38.3933 62.8503 38.6938 65.6252 39.843C68.4001 40.9922 70.7719 42.9385 72.4406 45.4357C74.1094 47.9329 75 50.8689 75 53.8724C74.9956 57.8976 73.395 61.7568 70.5491 64.6034C67.7032 67.4501 63.8445 69.0518 59.8193 69.0573ZM59.8193 39.5207C56.9796 39.5199 54.2035 40.3613 51.8421 41.9384C49.4806 43.5155 47.64 45.7576 46.5529 48.3809C45.4658 51.0042 45.1812 53.8911 45.735 56.6762C46.2888 59.4613 47.6561 62.0197 49.6641 64.0276C51.672 66.0356 54.2303 67.4029 57.0155 67.9567C59.8006 68.5105 62.6874 68.2258 65.3108 67.1388C67.9341 66.0517 70.1762 64.211 71.7533 61.8496C73.3304 59.4882 74.1718 56.7121 74.1709 53.8724C74.1709 50.0646 72.6594 46.4125 69.9685 43.7184C67.2775 41.0243 63.6271 39.5086 59.8193 39.5042V39.5207Z" fill="#093F68"/>
<path d="M55.8686 61.7405L49.9903 55.257C49.7734 55.0177 49.6603 54.7022 49.6759 54.3796C49.6914 54.0571 49.8343 53.7539 50.0733 53.5366L51.7066 52.0525C51.9458 51.8356 52.2614 51.7225 52.5839 51.738C52.9065 51.7536 53.2097 51.8965 53.4269 52.1354L56.9672 56.0322L66.7174 46.966C66.9539 46.7465 67.2679 46.6298 67.5904 46.6414C67.9129 46.6531 68.2176 46.7922 68.4377 47.0282L69.9384 48.6449C70.0476 48.7618 70.1326 48.8991 70.1886 49.0489C70.2446 49.1988 70.2705 49.3582 70.2647 49.518C70.2589 49.6779 70.2216 49.835 70.155 49.9804C70.0883 50.1258 69.9936 50.2566 69.8762 50.3653L57.5807 61.7985C57.4648 61.9078 57.3284 61.9929 57.1794 62.0492C57.0304 62.1054 56.8718 62.1316 56.7126 62.1262C56.5534 62.1208 56.3969 62.0839 56.252 62.0177C56.1072 61.9515 55.9769 61.8573 55.8686 61.7405Z" fill="#70CC40"/>
<path d="M56.7599 62.549H56.6894C56.4757 62.5414 56.2657 62.4909 56.072 62.4005C55.8783 62.31 55.7048 62.1815 55.5618 62.0225L49.6835 55.5473C49.5392 55.3887 49.4276 55.2033 49.3551 55.0015C49.2826 54.7998 49.2507 54.5857 49.2611 54.3716C49.2715 54.1575 49.324 53.9475 49.4157 53.7537C49.5074 53.5599 49.6365 53.3862 49.7955 53.2424L51.4288 51.7583C51.7489 51.4674 52.1714 51.3153 52.6035 51.3355C53.0356 51.3557 53.4421 51.5465 53.7337 51.8661L56.992 55.4519L66.4354 46.6759C66.5921 46.5298 66.776 46.4161 66.9767 46.3411C67.1774 46.2662 67.391 46.2316 67.605 46.2393C67.8191 46.247 68.0296 46.2969 68.2244 46.386C68.4192 46.4752 68.5945 46.6019 68.7403 46.7588L70.2451 48.3756C70.3909 48.5325 70.5044 48.7167 70.579 48.9175C70.6535 49.1184 70.6878 49.332 70.6797 49.5461C70.6716 49.7602 70.6213 49.9706 70.5318 50.1652C70.4423 50.3599 70.3153 50.535 70.158 50.6805L57.8625 62.1137C57.5638 62.3939 57.1694 62.5496 56.7599 62.549ZM52.5273 52.1645C52.3279 52.1629 52.1353 52.237 51.9884 52.3718L50.3509 53.8559C50.196 54.0008 50.1026 54.1996 50.0898 54.4114C50.0848 54.5164 50.1005 54.6213 50.1361 54.7201C50.1717 54.819 50.2264 54.9099 50.2971 54.9876L56.1753 61.4753C56.3174 61.6318 56.5156 61.7256 56.7267 61.7365C56.8307 61.7412 56.9346 61.7249 57.0322 61.6885C57.1297 61.6522 57.219 61.5966 57.2946 61.525L69.5943 50.0918C69.7503 49.9466 69.8422 49.7454 69.85 49.5325C69.8578 49.3195 69.7807 49.1121 69.6357 48.9559L68.135 47.3392C67.9866 47.1889 67.7864 47.1009 67.5753 47.0932C67.3642 47.0855 67.1582 47.1587 66.9992 47.2978L57.249 56.3639C57.2089 56.4012 57.1617 56.4301 57.1103 56.4491C57.0589 56.468 57.0042 56.4766 56.9495 56.4743C56.8948 56.4719 56.841 56.4588 56.7914 56.4356C56.7418 56.4124 56.6972 56.3796 56.6604 56.339L53.1201 52.4423C53.0465 52.3568 52.9556 52.2879 52.8534 52.24C52.7513 52.1921 52.6401 52.1664 52.5273 52.1645Z" fill="#093F68"/>
</svg>
