<svg width="18" height="17" viewBox="0 0 18 17" fill="none" xmlns="http://www.w3.org/2000/svg">
<path d="M9.00008 14.275L4.85008 16.775C4.66675 16.8916 4.47508 16.9416 4.27508 16.9249C4.07508 16.9083 3.90008 16.8416 3.75008 16.725C3.60008 16.6083 3.48342 16.4623 3.40008 16.287C3.31675 16.1116 3.30008 15.916 3.35008 15.7L4.45008 10.975L0.775085 7.79995C0.608418 7.64995 0.504418 7.47895 0.463085 7.28695C0.421751 7.09495 0.434085 6.90762 0.500085 6.72495C0.566751 6.54162 0.666751 6.39162 0.800085 6.27495C0.933418 6.15828 1.11675 6.08328 1.35008 6.04995L6.20008 5.62495L8.07508 1.17495C8.15842 0.974952 8.28775 0.824951 8.46309 0.724951C8.63842 0.624951 8.81742 0.574951 9.00008 0.574951C9.18342 0.574951 9.36242 0.624951 9.53708 0.724951C9.71175 0.824951 9.84109 0.974952 9.92509 1.17495L11.8001 5.62495L16.6501 6.04995C16.8834 6.08328 17.0668 6.15828 17.2001 6.27495C17.3334 6.39162 17.4334 6.54162 17.5001 6.72495C17.5668 6.90829 17.5794 7.09595 17.5381 7.28795C17.4968 7.47995 17.3924 7.65062 17.2251 7.79995L13.5501 10.975L14.6501 15.7C14.7001 15.9166 14.6834 16.1126 14.6001 16.288C14.5168 16.4633 14.4001 16.609 14.2501 16.725C14.1001 16.8416 13.9251 16.9083 13.7251 16.9249C13.5251 16.9416 13.3334 16.8916 13.1501 16.775L9.00008 14.275Z" fill="#FFD233"/>
</svg>
