<svg id="Layer_1" data-name="Layer 1" xmlns="http://www.w3.org/2000/svg" viewBox="0 0 400 300" width="406" height="306" class="illustration styles_illustrationTablet__1DWOa"><rect x="44.12" y="54.94" width="311.76" height="190.06" fill="#e6e6e6"></rect><circle cx="93.33" cy="139.13" r="27.06" fill="#efefef"></circle><rect x="172.56" y="166.42" width="36.95" height="62.93" fill="#c9c9c9"></rect><path d="M251.54,106.6a8.76,8.76,0,0,0-8.76-8.76,8.22,8.22,0,0,0-1.41.13A11.8,11.8,0,0,0,231,91.75l-.43,0a14,14,0,1,0-27.16,0l-.43,0a11.81,11.81,0,0,0,0,23.61h41v-.09A8.75,8.75,0,0,0,251.54,106.6Z" fill="#efefef"></path><path d="M295.29,129.36c-.35,0-.71-.05-1.07-.06-4.55-.09-9,1.5-13.19,3.17a31.24,31.24,0,0,0-8.08,4.16C266.5,141.71,267.59,153,263,160c-4,6.22-10.11,9.48-17.42,6.7-22.49-8.55-42.28-28.19-42.28-28.19L197,144s50.14,72,90.3,33.84a69.56,69.56,0,0,0,17-24.83c2.73-7,2.82-18.17-5-22.49A10.31,10.31,0,0,0,295.29,129.36Z" fill="#4313e1"></path><path d="M295.29,129.36c-.35,0-.71-.05-1.07-.06-4.55-.09-9,1.5-13.19,3.17a31.24,31.24,0,0,0-8.08,4.16C266.5,141.71,267.59,153,263,160c-4,6.22-10.11,9.48-17.42,6.7-22.49-8.55-42.28-28.19-42.28-28.19L197,144s50.14,72,90.3,33.84a69.56,69.56,0,0,0,17-24.83c2.73-7,2.82-18.17-5-22.49A10.31,10.31,0,0,0,295.29,129.36Z" fill="#fff" opacity="0.46"></path><path d="M286.43,90.64s-15.46,22.68,4.3,21.12,10.54-22.47,10.54-22.47Z" fill="#ffd200"></path><path d="M286.43,90.64s-15.46,22.68,4.3,21.12,10.54-22.47,10.54-22.47Z" fill="#24285b"></path><path d="M288.14,89.4s-1.59,7.62-.9,12.9a3.91,3.91,0,0,0,4.41,3.35c2.65-.38,6.12-1.67,7.47-5.65l3.11-6.48a7,7,0,0,0-2.18-7.77C296.06,82.1,288.87,84.71,288.14,89.4Z" fill="#f4a28c"></path><polygon points="301.66 94.7 302.68 120.18 288.6 119.73 293.51 101.37 301.66 94.7" fill="#f4a28c"></polygon><path d="M295.56,97s.41-3,2.62-2.47,1.64,4.78-1.44,4.82Z" fill="#f4a28c"></path><path d="M287.39,94.25,284.88,97a1.25,1.25,0,0,0,.55,2l2.88.9Z" fill="#f4a28c"></path><path d="M292.27,105.34a9.15,9.15,0,0,0,4.84-2.16s-.75,4.61-6.38,8.58Z" fill="#ce8172" opacity="0.31"></path><path d="M288.6,119.73s-62.12,33.77-33.1,65.49L269.67,222H314.2s41.05-76.7-11.52-101.81Z" fill="#4313e1"></path><circle cx="270.2" cy="131.47" r="7.79" fill="#24285b"></circle><polygon points="268.55 170.7 262.17 169.91 263.96 143.71 273.23 144.86 268.55 170.7" fill="#24285b"></polygon><rect x="257.65" y="135.75" width="22.25" height="14.25" transform="translate(19.72 -32.12) rotate(7.1)" fill="#ffd200"></rect><path d="M264.07,138.83l-3.15-.39.16-1.24,7.62,1-.16,1.24L265.4,139l-1.07,8.53-1.32-.16Z" fill="#fff"></path><path d="M268.77,138.16l1.53.19,1.88,8.31h0l4-7.58,1.45.18-5.07,9.3-1.24-.16Z" fill="#fff"></path><path d="M277.06,171.81s-2.66-10.21-6.46-11.16-7.22-2.09-8.74,2.09-2.09,8.3,0,8.71,8.23,2.18,9.69,7.25Z" fill="#f4a28c"></path><path d="M293,140.8s-17.66,14.65-.9,33.88-11.32,16.2-18.37,2.36L264,207.28,269.67,222l43.52-2.44,10.12-16.31L328,174.68Z" opacity="0.08"></path><path d="M202.77,139.19s-6.41-9.44-10.91-6.07S197,144,197,144Z" fill="#f4a28c"></path><polygon points="324.23 245.06 318.59 218.92 269.67 221.99 267.44 245.06 324.23 245.06" fill="#24285b"></polygon><path d="M293.23,144.47c-2.67-13.53,13.48-22.74,24-13.78,5.48,4.69,10.83,10.7,14.73,24.16,17.91,61.84-9.3,93.44-63.66,21.87l9.34-9.84s37.71,44.31,40.07,26.09C319.32,180.23,297.1,164,293.23,144.47Z" fill="#4313e1"></path><path d="M293.23,144.47c-2.67-13.53,13.48-22.74,24-13.78,5.48,4.69,10.83,10.7,14.73,24.16,17.91,61.84-9.3,93.44-63.66,21.87l9.34-9.84s37.71,44.31,40.07,26.09C319.32,180.23,297.1,164,293.23,144.47Z" fill="#fff" opacity="0.46"></path><path d="M287.07,80a9,9,0,0,0-3.54,6.92c0,2.37,1,4.84,5.09,5.29,8.15.9,10.9.9,10.9.9s-9,22.27,6.92,20.69,9.9-15.07,2.93-27.21C303.08,75.64,294.8,73.83,287.07,80Z" fill="#24285b"></path><rect x="66.09" y="72.78" width="43.54" height="16.24" fill="#ffd200"></rect><path d="M69,76.31h2.75l3.91,6.38h0V76.31h2V85.5H75.08l-4-6.54h0V85.5H69Z" fill="#fff"></path><path d="M79.67,76.31h6.25v1.87H81.7v1.71h4v1.87h-4v1.87h4.45V85.5H79.67Z" fill="#fff"></path><path d="M86.81,76.31H89l1.47,5.89h0l1.92-5.89h1.88l1.91,6h0l1.54-6h2L97.16,85.5H95.35l-2-6.36h0l-2,6.36H89.54Z" fill="#fff"></path><path d="M105.29,78.55a1.46,1.46,0,0,0-.66-.46,2.44,2.44,0,0,0-.8-.15,1.88,1.88,0,0,0-.46.06,1.46,1.46,0,0,0-.44.16,1,1,0,0,0-.34.29.79.79,0,0,0-.13.44.74.74,0,0,0,.32.64,3,3,0,0,0,.78.37l1,.32a4.2,4.2,0,0,1,1,.44,2.36,2.36,0,0,1,.78.76,2.32,2.32,0,0,1,.32,1.29,2.93,2.93,0,0,1-.29,1.33,2.76,2.76,0,0,1-.77.95,3.32,3.32,0,0,1-1.13.56,5.23,5.23,0,0,1-3-.09,4.23,4.23,0,0,1-1.43-.88L101.5,83a2.18,2.18,0,0,0,.79.65,2.26,2.26,0,0,0,1,.22,2.2,2.2,0,0,0,.5-.06,1.5,1.5,0,0,0,.45-.17,1,1,0,0,0,.33-.3.75.75,0,0,0,.12-.43.77.77,0,0,0-.32-.65,2.85,2.85,0,0,0-.8-.41c-.32-.12-.66-.23-1-.34a4.42,4.42,0,0,1-1-.45,2.52,2.52,0,0,1-.8-.76,2.16,2.16,0,0,1-.32-1.23,2.83,2.83,0,0,1,.29-1.3,2.94,2.94,0,0,1,.78-.93,3.54,3.54,0,0,1,1.13-.57,4.77,4.77,0,0,1,1.31-.19,5,5,0,0,1,1.5.23,3.4,3.4,0,0,1,1.31.73Z" fill="#fff"></path><polygon points="66.65 244.99 66.65 185.5 101.37 185.5 101.37 140.8 155.33 140.8 155.33 192.9 186.63 192.9 186.63 218.92 221.35 218.92 221.35 244.99 66.65 244.99" fill="#c9c9c9"></polygon><rect x="106.77" y="109.93" width="25.65" height="45.64" fill="#c9c9c9"></rect><rect x="60.36" y="181.4" width="43.1" height="9.79" fill="#c9c9c9"></rect><rect x="89.99" y="202.5" width="5.62" height="5.62" fill="#e6e6e6"></rect><rect x="117.39" y="185.63" width="5.62" height="5.62" fill="#e6e6e6"></rect><rect x="138.04" y="198.11" width="5.62" height="5.62" fill="#e6e6e6"></rect><rect x="182.88" y="219.18" width="5.62" height="5.62" fill="#e6e6e6"></rect><rect x="155.64" y="207.64" width="5.62" height="5.62" fill="#e6e6e6"></rect><rect x="194.87" y="175.88" width="5.62" height="5.62" fill="#e6e6e6"></rect><rect x="181.62" y="195.08" width="5.62" height="5.62" fill="#e6e6e6"></rect><rect x="132.42" y="168.95" width="5.62" height="5.62" fill="#e6e6e6"></rect><rect x="117.39" y="209.52" width="5.62" height="5.62" fill="#e6e6e6"></rect><rect x="132.42" y="221.99" width="5.62" height="5.62" fill="#e6e6e6"></rect><rect x="87.18" y="219.18" width="5.62" height="5.62" fill="#e6e6e6"></rect><polygon points="66.65 210.45 54.41 222.69 54.41 244.99 66.65 244.99 66.65 210.45" fill="#c9c9c9"></polygon></svg>